<svg width="12" height="21" viewBox="0 0 12 21" fill="none" xmlns="http://www.w3.org/2000/svg">
<path d="M6.7762 4.3916H5.59302V3.20842H6.7762V4.3916Z" fill="#6265E8"/>
<path d="M9.14241 4.3916H7.95923V3.20842H9.14241V4.3916Z" fill="#6265E8"/>
<path d="M4.40975 4.3916H3.22656V3.20842H4.40975V4.3916Z" fill="#6265E8"/>
<path d="M6.7762 6.75781H5.59302V5.57463H6.7762V6.75781Z" fill="#6265E8"/>
<path d="M9.14241 6.75781H7.95923V5.57463H9.14241V6.75781Z" fill="#6265E8"/>
<path d="M4.40975 6.75781H3.22656V5.57463H4.40975V6.75781Z" fill="#6265E8"/>
<path d="M6.7762 9.125H5.59302V7.94182H6.7762V9.125Z" fill="#6265E8"/>
<path d="M9.14241 9.125H7.95923V7.94182H9.14241V9.125Z" fill="#6265E8"/>
<path d="M4.40975 9.125H3.22656V7.94182H4.40975V9.125Z" fill="#6265E8"/>
<path d="M2.60962 10.7831L4.98021 14.8252" stroke="#6265E8" stroke-width="1.2" stroke-miterlimit="10"/>
<path d="M9.70804 10.7831L7.38892 14.8252" stroke="#6265E8" stroke-width="1.2" stroke-miterlimit="10"/>
<path d="M11.369 5.07692C11.369 8.21926 10.2467 12.3789 6.18448 12.3789C2.00389 12.3789 1 8.21926 1 5.07692C1 1.93454 3.32117 0.99947 6.18448 0.99947C9.04779 0.99947 11.369 1.93454 11.369 5.07692Z" stroke="#6265E8" stroke-width="1.2" stroke-miterlimit="10"/>
<path d="M7.38881 17.6526V14.8253H4.98008V17.6526H4.40967V20H7.9804V17.6526H7.38881Z" stroke="#6265E8" stroke-width="1.2" stroke-miterlimit="10"/>
</svg>
