<svg width="24" height="24" viewBox="0 0 24 24" fill="none" xmlns="http://www.w3.org/2000/svg">
<path d="M17.6913 19.5663H6.04419V20.8898H17.6913V19.5663Z" fill="#A39FA4"/>
<path d="M13.9634 8.91187H9.88249C9.51697 8.91187 9.2207 9.20813 9.2207 9.57365C9.2207 9.93917 9.51697 10.2354 9.88249 10.2354H13.9634C14.3289 10.2354 14.6251 9.93917 14.6251 9.57365C14.6251 9.20813 14.3289 8.91187 13.9634 8.91187Z" fill="#A39FA4"/>
<path d="M17.0516 12.0001H9.88249C9.51697 12.0001 9.2207 12.2964 9.2207 12.6619C9.2207 13.0274 9.51697 13.3237 9.88249 13.3237H17.0516C17.4172 13.3237 17.7134 13.0274 17.7134 12.6619C17.7134 12.2964 17.4171 12.0001 17.0516 12.0001Z" fill="#A39FA4"/>
<path d="M20.61 3.0806C20.3725 2.97383 20.0948 3.01598 19.8997 3.18824L18.0466 4.82765L16.1912 3.16859C15.94 2.9438 15.5601 2.9438 15.3089 3.16859L13.4559 4.82565L11.6028 3.16859C11.3515 2.9438 10.9719 2.9438 10.7206 3.16859L8.86523 4.82765L7.01207 3.18824C6.81731 3.01619 6.53936 2.97404 6.30178 3.0806C6.06444 3.18758 5.91179 3.42362 5.91179 3.68391V15.4634H3.66178C3.29626 15.4633 3 15.7596 3 16.1251V17.7354C3 19.4747 4.41508 20.8898 6.1544 20.8898V19.5663C5.14478 19.5663 4.32353 18.7448 4.32353 17.7354V16.7869H14.6912V17.7354C14.6912 19.4747 16.1063 20.8898 17.8456 20.8898C19.5849 20.8898 21 19.4748 21 17.7354V3.68388C21 3.42358 20.8474 3.18758 20.61 3.0806ZM19.6765 17.7354C19.6765 18.7448 18.855 19.5663 17.8456 19.5663C16.8362 19.5663 16.0148 18.7448 16.0148 17.7354V16.1251C16.0148 15.7596 15.7185 15.4633 15.353 15.4633H7.23532V5.15278L8.42937 6.20919C8.68084 6.43156 9.05891 6.43043 9.30884 6.20677L11.1618 4.54971L13.0147 6.20656C13.266 6.43134 13.6458 6.43134 13.8971 6.20656L15.7502 4.5495L17.6032 6.20656C17.8533 6.43022 18.2314 6.4311 18.4827 6.20898L19.6765 5.15281V17.7354Z" fill="#A39FA4"/>
</svg>
