<svg width="20" height="20" viewBox="0 0 20 20" fill="none" xmlns="http://www.w3.org/2000/svg">
<path d="M13.2173 1.59375H6.78234C4.49984 1.59375 3.99567 2.73042 3.70234 4.12375L2.6665 9.08292H17.3332L16.2973 4.12375C16.004 2.73042 15.4998 1.59375 13.2173 1.59375V1.59375Z" stroke="#6265E8" stroke-width="1.5" stroke-linecap="round" stroke-linejoin="round"/>
<path d="M19.1575 17.168C19.2583 18.2405 18.3967 19.1663 17.2967 19.1663H15.5733C14.5833 19.1663 14.4458 18.7447 14.2717 18.2222L14.0883 17.6722C13.8317 16.9205 13.6667 16.4163 12.3467 16.4163H7.65334C6.33334 16.4163 6.14084 16.9847 5.91167 17.6722L5.72834 18.2222C5.55417 18.7447 5.41667 19.1663 4.42667 19.1663H2.70334C1.60334 19.1663 0.741669 18.2405 0.842503 17.168L1.35584 11.5855C1.48417 10.2105 1.75 9.08301 4.15167 9.08301H15.8483C18.25 9.08301 18.5158 10.2105 18.6442 11.5855L19.1575 17.168Z" stroke="#6265E8" stroke-width="1.5" stroke-linecap="round" stroke-linejoin="round"/>
<path d="M2.66667 6.33301H1.75" stroke="#6265E8" stroke-width="1.5" stroke-linecap="round" stroke-linejoin="round"/>
<path d="M18.2502 6.33301H17.3335" stroke="#6265E8" stroke-width="1.5" stroke-linecap="round" stroke-linejoin="round"/>
<path d="M10 1.75V3.58333" stroke="#6265E8" stroke-width="1.5" stroke-linecap="round" stroke-linejoin="round"/>
<path d="M8.625 3.58301H11.375" stroke="#6265E8" stroke-width="1.5" stroke-linecap="round" stroke-linejoin="round"/>
<path d="M4.5 12.75H7.25" stroke="#6265E8" stroke-width="1.5" stroke-linecap="round" stroke-linejoin="round"/>
<path d="M12.75 12.75H15.5" stroke="#6265E8" stroke-width="1.5" stroke-linecap="round" stroke-linejoin="round"/>
</svg>
