<svg width="24" height="24" viewBox="0 0 24 24" fill="none" xmlns="http://www.w3.org/2000/svg">
<path d="M19.2 6H4.8C4.32261 6 3.86477 6.20114 3.52721 6.55916C3.18964 6.91718 3 7.40277 3 7.90909V18.0909C3 18.5972 3.18964 19.0828 3.52721 19.4408C3.86477 19.7989 4.32261 20 4.8 20H19.2C19.6774 20 20.1352 19.7989 20.4728 19.4408C20.8104 19.0828 21 18.5972 21 18.0909V7.90909C21 7.40277 20.8104 6.91718 20.4728 6.55916C20.1352 6.20114 19.6774 6 19.2 6ZM4.2 11.0909H5.4V14.9091H4.2V11.0909ZM11.4 18.7273H4.8C4.64087 18.7273 4.48826 18.6602 4.37574 18.5409C4.26321 18.4215 4.2 18.2597 4.2 18.0909V16.1818H6C6.15913 16.1818 6.31174 16.1148 6.42426 15.9954C6.53679 15.8761 6.6 15.7142 6.6 15.5455V10.4545C6.6 10.2858 6.53679 10.1239 6.42426 10.0046C6.31174 9.88523 6.15913 9.81818 6 9.81818H4.2V7.90909C4.2 7.74032 4.26321 7.57846 4.37574 7.45911C4.48826 7.33977 4.64087 7.27273 4.8 7.27273H11.4V10.5436C10.8916 10.6902 10.4427 11.0101 10.1228 11.454C9.80277 11.8979 9.6294 12.4412 9.6294 13C9.6294 13.5588 9.80277 14.1021 10.1228 14.546C10.4427 14.9899 10.8916 15.3098 11.4 15.4564V18.7273ZM10.8 13C10.8 12.7483 10.8704 12.5022 11.0022 12.2929C11.1341 12.0836 11.3215 11.9205 11.5408 11.8242C11.7601 11.7278 12.0013 11.7026 12.2341 11.7517C12.4669 11.8008 12.6807 11.9221 12.8485 12.1C13.0164 12.278 13.1306 12.5048 13.1769 12.7517C13.2232 12.9986 13.1995 13.2545 13.1087 13.4871C13.0178 13.7196 12.864 13.9184 12.6667 14.0582C12.4693 14.1981 12.2373 14.2727 12 14.2727C11.6817 14.2727 11.3765 14.1386 11.1515 13.9C10.9264 13.6613 10.8 13.3375 10.8 13ZM19.8 14.9091H18.6V11.0909H19.8V14.9091ZM19.8 9.81818H18C17.8409 9.81818 17.6883 9.88523 17.5757 10.0046C17.4632 10.1239 17.4 10.2858 17.4 10.4545V15.5455C17.4 15.7142 17.4632 15.8761 17.5757 15.9954C17.6883 16.1148 17.8409 16.1818 18 16.1818H19.8V18.0909C19.8 18.2597 19.7368 18.4215 19.6243 18.5409C19.5117 18.6602 19.3591 18.7273 19.2 18.7273H12.6V15.4564C13.1084 15.3098 13.5573 14.9899 13.8772 14.546C14.1972 14.1021 14.3706 13.5588 14.3706 13C14.3706 12.4412 14.1972 11.8979 13.8772 11.454C13.5573 11.0101 13.1084 10.6902 12.6 10.5436V7.27273H19.2C19.3591 7.27273 19.5117 7.33977 19.6243 7.45911C19.7368 7.57846 19.8 7.74032 19.8 7.90909V9.81818Z" fill="#A39FA4"/>
</svg>
