<svg width="24" height="24" viewBox="0 0 24 24" fill="none" xmlns="http://www.w3.org/2000/svg">
<path fill-rule="evenodd" clip-rule="evenodd" d="M20.9944 9.31622L9.53033 20.7802C9.38968 20.9209 9.19891 20.9999 9 20.9999H4.5C4.5 20.9999 3.87868 20.9999 3.43934 20.5606C3.43934 20.5606 3 20.1212 3 19.4999L3 15.3093C3 15.3093 2.99896 15.015 3.11176 14.7404C3.11176 14.7404 3.22456 14.4657 3.43398 14.2553L14.6853 3.00396C14.6853 3.00396 14.8927 2.79332 15.1707 2.67694C15.1707 2.67694 15.4486 2.56055 15.75 2.56055C15.75 2.56055 16.0514 2.56055 16.3293 2.67694C16.3293 2.67694 16.6073 2.79332 16.8187 3.00804L20.996 7.18521C20.996 7.18521 21.2066 7.39262 21.323 7.67059C21.323 7.67059 21.4394 7.94857 21.4394 8.24992C21.4394 8.24992 21.4394 8.55127 21.323 8.82924C21.323 8.82924 21.2077 9.10456 20.996 9.31463L20.9944 9.31622ZM19.9394 8.24992L19.9353 8.24587L15.75 4.06055L15.746 4.06462L4.5 15.3106V19.4999H8.68934L19.9353 8.25396L19.9394 8.24992Z" fill="#A39FA4"/>
<path d="M20.25 19.5H8.99999C8.58578 19.5 8.24999 19.8358 8.24999 20.25C8.24999 20.6642 8.58579 20.9999 9 20.9999L20.25 21C20.6642 21 21 20.6642 21 20.25C21 19.8358 20.6642 19.5 20.25 19.5Z" fill="#A39FA4"/>
<path d="M17.4693 11.7799C17.6099 11.9206 17.8011 12 18 12C18.1989 12 18.3897 11.921 18.5303 11.7803C18.671 11.6397 18.75 11.4489 18.75 11.25C18.75 11.0511 18.671 10.8603 18.5303 10.7197L13.2804 5.46976C13.1397 5.32902 12.9489 5.25 12.75 5.25C12.5511 5.25 12.3603 5.32902 12.2197 5.46967C12.079 5.61032 12 5.80109 12 6C12 6.19891 12.079 6.38968 12.2197 6.53033L17.4693 11.7799Z" fill="#A39FA4"/>
</svg>
