<svg width="24" height="24" viewBox="0 0 24 24" fill="none" xmlns="http://www.w3.org/2000/svg">
<path d="M17.8606 10.9535H17.0986C16.9321 10.9535 16.7724 10.8874 16.6546 10.7696C16.5369 10.6518 16.4707 10.4921 16.4707 10.3256C16.4707 10.1591 16.5369 9.99936 16.6546 9.8816C16.7724 9.76385 16.9321 9.69769 17.0986 9.69769H17.8606C18.36 9.69715 18.8388 9.49851 19.192 9.14536C19.5451 8.79221 19.7438 8.3134 19.7443 7.81397V6.13955C19.7437 6.08425 19.7214 6.03139 19.6823 5.99228C19.6432 5.95316 19.5903 5.9309 19.535 5.93025H17.442C17.2755 5.93025 17.1158 5.8641 16.998 5.74634C16.8802 5.62859 16.8141 5.46888 16.8141 5.30235C16.8141 5.13581 16.8802 4.9761 16.998 4.85835C17.1158 4.74059 17.2755 4.67444 17.442 4.67444H19.535C19.9235 4.67491 20.2958 4.82942 20.5705 5.10408C20.8452 5.37874 20.9997 5.75113 21.0001 6.13955V7.81397C20.9992 8.64635 20.6682 9.44438 20.0796 10.033C19.491 10.6215 18.693 10.9526 17.8606 10.9535Z" fill="#A39FA4"/>
<path d="M6.90153 10.9535H6.13953C5.30716 10.9526 4.50913 10.6215 3.92055 10.033C3.33197 9.44438 3.00091 8.64635 3 7.81397V6.13955C3.00047 5.75113 3.15498 5.37874 3.42964 5.10408C3.7043 4.82942 4.07669 4.67491 4.46512 4.67444H6.55814C6.72467 4.67444 6.88438 4.74059 7.00214 4.85835C7.11989 4.9761 7.18605 5.13581 7.18605 5.30235C7.18605 5.46888 7.11989 5.62859 7.00214 5.74634C6.88438 5.8641 6.72467 5.93025 6.55814 5.93025H4.46512C4.40981 5.9309 4.35695 5.95316 4.31784 5.99228C4.27873 6.03139 4.25647 6.08425 4.25581 6.13955V7.81397C4.25636 8.3134 4.455 8.79221 4.80814 9.14536C5.16129 9.49851 5.64011 9.69715 6.13953 9.69769H6.90153C7.06806 9.69769 7.22777 9.76385 7.34553 9.8816C7.46328 9.99936 7.52944 10.1591 7.52944 10.3256C7.52944 10.4921 7.46328 10.6518 7.34553 10.7696C7.22777 10.8874 7.06806 10.9535 6.90153 10.9535Z" fill="#A39FA4"/>
<path d="M12.0001 14.3023C10.5285 14.2567 9.12868 13.6564 8.08126 12.6218C7.03384 11.5872 6.41633 10.1948 6.35259 8.72392L6.00797 4.58694C5.99117 4.38497 6.01645 4.18171 6.0822 3.99C6.14795 3.79829 6.25275 3.62231 6.38998 3.47317C6.52721 3.32403 6.69389 3.20498 6.87947 3.12353C7.06506 3.04209 7.26552 3.00003 7.46818 3H16.532C16.7346 3.00003 16.9351 3.04209 17.1207 3.12353C17.3063 3.20498 17.4729 3.32403 17.6102 3.47317C17.7474 3.62231 17.8522 3.79829 17.9179 3.99C17.9837 4.18171 18.009 4.38497 17.9922 4.58694L17.6476 8.72392C17.5838 10.1948 16.9663 11.5872 15.9189 12.6218C14.8715 13.6564 13.4716 14.2567 12.0001 14.3023ZM7.46818 4.25581C7.43918 4.2557 7.41048 4.26168 7.38393 4.27336C7.35738 4.28504 7.33358 4.30217 7.31407 4.32363C7.29434 4.34474 7.27929 4.36978 7.26992 4.39712C7.26055 4.42446 7.25707 4.45347 7.2597 4.48225L7.60431 8.61923C7.64403 9.7754 8.11896 10.8739 8.93405 11.6948C9.74914 12.5158 10.8442 12.9985 12.0001 13.0465C13.1559 12.9985 14.251 12.5158 15.0661 11.6948C15.8812 10.8739 16.3561 9.77543 16.3958 8.61927L16.7404 4.48229C16.7431 4.45351 16.7396 4.4245 16.7302 4.39716C16.7209 4.36983 16.7058 4.34478 16.6861 4.32367C16.6666 4.30221 16.6428 4.28508 16.6162 4.2734C16.5897 4.26172 16.561 4.25574 16.532 4.25586L7.46818 4.25581Z" fill="#A39FA4"/>
<path d="M16.4424 21H7.55764C7.3918 21 7.22832 20.9606 7.08069 20.885C6.93307 20.8094 6.80551 20.6999 6.70854 20.5653C6.61157 20.4308 6.54796 20.2751 6.52295 20.1112C6.49795 19.9472 6.51226 19.7797 6.56471 19.6223L7.12313 17.9479C7.19237 17.7395 7.32554 17.5582 7.50371 17.4298C7.68189 17.3013 7.89601 17.2323 8.11564 17.2325H15.8844C16.1041 17.2324 16.3183 17.3014 16.4965 17.4299C16.6748 17.5584 16.808 17.7398 16.8773 17.9484L17.4353 19.6224C17.4878 19.7797 17.5021 19.9472 17.4771 20.1112C17.4521 20.2751 17.3884 20.4308 17.2915 20.5654C17.1945 20.6999 17.0669 20.8095 16.9193 20.885C16.7717 20.9606 16.6082 21 16.4424 21ZM7.84789 19.7442H16.1521L15.7335 18.4884H8.26649L7.84789 19.7442Z" fill="#A39FA4"/>
<path d="M15.3489 18.4883H8.6512C8.52497 18.4883 8.40166 18.4502 8.29739 18.3791C8.19312 18.3079 8.11272 18.207 8.06668 18.0895C8.02064 17.9719 8.01111 17.8432 8.03932 17.7202C8.06753 17.5971 8.13218 17.4854 8.22483 17.3997C8.90536 16.7814 9.42352 16.0054 9.73371 15.1399C9.92964 14.6054 10.0336 14.0416 10.0411 13.4724C10.0411 13.3896 10.0577 13.3076 10.09 13.2313C10.1223 13.1551 10.1695 13.086 10.229 13.0284C10.2884 12.9707 10.3588 12.9255 10.436 12.8956C10.5132 12.8656 10.5957 12.8514 10.6784 12.8539C10.845 12.8565 11.0036 12.925 11.1196 13.0445C11.2356 13.164 11.2994 13.3247 11.2969 13.4912C11.2873 14.199 11.1583 14.9002 10.9151 15.565C10.7051 16.1594 10.4115 16.7209 10.0431 17.2325H13.9573C13.5877 16.7186 13.2932 16.1546 13.0826 15.5577C12.8407 14.8951 12.7125 14.1965 12.7032 13.4912C12.7007 13.3247 12.7645 13.164 12.8805 13.0445C12.9965 12.925 13.1552 12.8565 13.3217 12.8539H13.3311C13.496 12.8539 13.6543 12.9188 13.7718 13.0345C13.8893 13.1502 13.9565 13.3075 13.959 13.4724C13.9663 14.039 14.0694 14.6003 14.264 15.1325C14.574 16.0009 15.093 16.7795 15.7753 17.3997C15.8679 17.4854 15.9326 17.5971 15.9608 17.7202C15.989 17.8432 15.9795 17.9719 15.9334 18.0895C15.8874 18.207 15.807 18.3079 15.7027 18.3791C15.5984 18.4502 15.4751 18.4883 15.3489 18.4883Z" fill="#A39FA4"/>
</svg>
