<svg width="70" height="70" viewBox="0 0 70 70" fill="none" xmlns="http://www.w3.org/2000/svg">
<rect width="70" height="70" rx="35" fill="#E5E7EB"/>
<path d="M49.7656 22.9688H20.2344C19.3283 22.9688 18.5938 23.7033 18.5938 24.6094V45.3906C18.5938 46.2967 19.3283 47.0312 20.2344 47.0312H49.7656C50.6717 47.0312 51.4062 46.2967 51.4062 45.3906V24.6094C51.4062 23.7033 50.6717 22.9688 49.7656 22.9688Z" fill="#B4ACBC"/>
<path d="M49.2188 25.1562H20.7812C20.1772 25.1562 19.6875 25.6459 19.6875 26.25V43.75C19.6875 44.3541 20.1772 44.8438 20.7812 44.8438H49.2188C49.8228 44.8438 50.3125 44.3541 50.3125 43.75V26.25C50.3125 25.6459 49.8228 25.1562 49.2188 25.1562Z" fill="#F3EEF8"/>
<path d="M50.3125 43.0938L36.1255 34.5822C35.7855 34.3783 35.3965 34.2705 35 34.2705C34.6035 34.2705 34.2145 34.3783 33.8745 34.5822L19.6875 43.0938V44.8438C19.6875 45.1339 19.8027 45.4121 20.0079 45.6172C20.213 45.8223 20.4912 45.9376 20.7812 45.9376H49.2188C49.5088 45.9376 49.787 45.8223 49.9921 45.6172C50.1973 45.4121 50.3125 45.1339 50.3125 44.8438V43.0938Z" fill="#E1D8EC"/>
<path d="M19.6875 28.1816V26.25H50.3125V28.1816L36.6888 36.3563C36.1787 36.6624 35.5949 36.8242 35 36.8242C34.4051 36.8242 33.8213 36.6624 33.3113 36.3563L19.6875 28.1816Z" fill="#998EA4"/>
<path d="M19.6875 26.9062V25.1562C19.6875 24.8662 19.8027 24.588 20.0079 24.3829C20.213 24.1777 20.4912 24.0625 20.7812 24.0625H49.2188C49.5088 24.0625 49.787 24.1777 49.9921 24.3829C50.1973 24.588 50.3125 24.8662 50.3125 25.1562V26.9062L36.1255 35.4189C35.7855 35.6229 35.3965 35.7306 35 35.7306C34.6035 35.7306 34.2145 35.6229 33.8745 35.4189L19.6875 26.9062Z" fill="#F3EEF8"/>
<path d="M35 42.6562C37.0306 42.6562 38.978 41.8496 40.4138 40.4138C41.8496 38.978 42.6562 37.0306 42.6562 35C42.6562 32.9694 41.8496 31.022 40.4138 29.5862C38.978 28.1504 37.0306 27.3438 35 27.3438C32.9694 27.3438 31.022 28.1504 29.5862 29.5862C28.1504 31.022 27.3438 32.9694 27.3438 35C27.3438 37.0306 28.1504 38.978 29.5862 40.4138C31.022 41.8496 32.9694 42.6562 35 42.6562Z" fill="#00A6ED"/>
<path d="M34.9998 30.0778C33.6764 30.056 32.4186 30.5591 31.4779 31.4997C30.5264 32.4294 30.0123 33.6763 30.0123 34.9997C30.0123 37.7122 32.2217 39.9216 34.9342 39.9216C35.0705 39.9216 35.2013 39.8674 35.2977 39.771C35.3941 39.6746 35.4483 39.5439 35.4483 39.4075C35.4483 39.2712 35.3941 39.1404 35.2977 39.044C35.2013 38.9476 35.0705 38.8935 34.9342 38.8935C32.7904 38.8935 31.0404 37.1435 31.0404 34.9997C31.0404 33.9497 31.4561 32.9653 32.1998 32.2325C32.9436 31.4997 33.9389 31.106 34.9889 31.106C37.0998 31.1388 38.8279 32.9106 38.8279 35.0653V35.9513C38.8279 36.1456 38.7507 36.332 38.6133 36.4694C38.4759 36.6069 38.2895 36.6841 38.0951 36.6841C37.9008 36.6841 37.7144 36.6069 37.577 36.4694C37.4395 36.332 37.3623 36.1456 37.3623 35.9513V32.5825C37.3623 32.4462 37.3082 32.3154 37.2118 32.219C37.1153 32.1226 36.9846 32.0685 36.8483 32.0685C36.5639 32.0685 36.3123 32.2981 36.3123 32.5825V32.681C35.8311 32.2981 35.2295 32.0575 34.5623 32.0575C33.0311 32.0575 31.7842 33.3044 31.7842 34.8356C31.7842 36.3669 33.0311 37.6138 34.5623 37.6138C35.3279 37.6138 36.0279 37.2966 36.5311 36.7935C36.8373 37.3403 37.417 37.7122 38.0842 37.7122C39.0576 37.7122 39.8561 36.9138 39.8561 35.9403V35.0544C39.8561 32.3528 37.6795 30.1106 34.9998 30.0778ZM34.5733 36.5966C33.6108 36.5966 32.8233 35.8091 32.8233 34.8466C32.8233 33.8841 33.6108 33.0966 34.5733 33.0966C35.5358 33.0966 36.3233 33.8841 36.3233 34.8466C36.3233 35.8091 35.5358 36.5966 34.5733 36.5966Z" fill="#F4F4F4"/>
</svg>
