<svg width="20" height="19" viewBox="0 0 20 19" fill="none" xmlns="http://www.w3.org/2000/svg">
<path d="M9.08325 18.1667V15.4167H10.9166V18.1667H9.08325ZM0.833252 9.91667V8.08333H3.58325V9.91667H0.833252ZM16.4166 9.91667V8.08333H19.1666V9.91667H16.4166ZM15.4999 16.2417L13.5749 14.3167L14.8583 13.0333L16.7833 14.9583L15.4999 16.2417ZM4.49992 16.2417L3.21659 14.9583L5.14159 13.0333L6.42492 14.3167L4.49992 16.2417ZM9.99992 13.5833C8.73186 13.5833 7.65096 13.1365 6.75721 12.2427C5.86346 11.349 5.41659 10.2681 5.41659 9C5.41659 8.26667 5.58082 7.58299 5.90929 6.94896C6.23777 6.31493 6.68464 5.77639 7.24992 5.33333V0.75H12.7499V5.33333C13.3152 5.77639 13.7621 6.31493 14.0905 6.94896C14.419 7.58299 14.5833 8.26667 14.5833 9C14.5833 10.2681 14.1364 11.349 13.2426 12.2427C12.3489 13.1365 11.268 13.5833 9.99992 13.5833ZM9.08325 4.50833C9.23603 4.47778 9.38881 4.45486 9.54159 4.43958C9.69436 4.42431 9.84714 4.41667 9.99992 4.41667C10.1527 4.41667 10.3055 4.42431 10.4583 4.43958C10.611 4.45486 10.7638 4.47778 10.9166 4.50833V2.58333H9.08325V4.50833ZM9.99992 11.75C10.7638 11.75 11.4131 11.4826 11.9478 10.9479C12.4826 10.4132 12.7499 9.76389 12.7499 9C12.7499 8.23611 12.4826 7.58681 11.9478 7.05208C11.4131 6.51736 10.7638 6.25 9.99992 6.25C9.23603 6.25 8.58672 6.51736 8.052 7.05208C7.51728 7.58681 7.24992 8.23611 7.24992 9C7.24992 9.76389 7.51728 10.4132 8.052 10.9479C8.58672 11.4826 9.23603 11.75 9.99992 11.75Z" fill="#6265E8"/>
</svg>
