<svg width="21" height="20" viewBox="0 0 21 20" fill="none" xmlns="http://www.w3.org/2000/svg">
<path fill-rule="evenodd" clip-rule="evenodd" d="M10.0735 5C10.0735 5 11.3774 5 12.2995 5.91529C12.2995 5.91529 13.2215 6.83058 13.2215 8.125C13.2215 8.125 13.2215 9.41942 12.2995 10.3347C12.2995 10.3347 11.3774 11.25 10.0735 11.25C10.0735 11.25 8.76957 11.25 7.84755 10.3347C7.84755 10.3347 6.92552 9.41942 6.92552 8.125C6.92552 8.125 6.92552 6.83058 7.84755 5.91529C7.84755 5.91529 8.76957 5 10.0735 5ZM10.0735 6.25C10.0735 6.25 9.29114 6.25 8.73793 6.79917C8.73793 6.79917 8.18472 7.34835 8.18471 8.125C8.18471 8.125 8.18471 8.90165 8.73793 9.45083C8.73793 9.45083 9.29114 10 10.0735 10C10.0735 10 10.8559 10 11.4091 9.45083C11.4091 9.45083 11.9623 8.90165 11.9623 8.125C11.9623 8.125 11.9623 7.34835 11.4091 6.79917C11.4091 6.79917 10.8559 6.25 10.0735 6.25Z" fill="#6265E8"/>
<path fill-rule="evenodd" clip-rule="evenodd" d="M16.4719 5.49405C16.4719 5.49405 16.9991 6.75748 16.9991 8.125C16.9991 8.125 16.9991 11.8744 13.6966 15.6445C13.6966 15.6445 12.6817 16.8031 11.465 17.8297C11.465 17.8297 10.8523 18.3468 10.4346 18.637C10.2178 18.7877 9.92923 18.7877 9.71245 18.637C9.71245 18.637 9.29476 18.3468 8.682 17.8297C8.682 17.8297 7.46533 16.8031 6.45043 15.6445C6.45043 15.6445 3.14795 11.8744 3.14795 8.125C3.14795 8.125 3.14795 6.75748 3.67513 5.49405C3.67513 5.49405 4.2023 4.23063 5.1764 3.26364C5.1764 3.26364 6.15049 2.29666 7.42321 1.77333C7.42321 1.77333 8.69592 1.25 10.0735 1.25C10.0735 1.25 11.4511 1.25 12.7238 1.77333C12.7238 1.77333 13.9965 2.29666 14.9706 3.26364C14.9706 3.26364 15.9447 4.23062 16.4719 5.49405ZM15.7399 8.125C15.7399 8.125 15.7399 7.00612 15.3085 5.97241C15.3085 5.97241 14.8772 4.9387 14.0802 4.14752C14.0802 4.14752 13.2832 3.35636 12.2419 2.92818C12.2419 2.92818 11.2006 2.5 10.0735 2.5C10.0735 2.5 8.94639 2.5 7.90508 2.92818C7.90508 2.92818 6.86377 3.35636 6.06678 4.14752C6.06678 4.14752 5.26979 4.93869 4.83847 5.97241C4.83847 5.97241 4.40714 7.00612 4.40714 8.125C4.40714 8.125 4.40714 11.4069 7.40062 14.8243C7.40062 14.8243 8.3532 15.9117 9.49752 16.8773C9.49752 16.8773 9.81692 17.1468 10.0735 17.3459C10.0735 17.3459 10.3301 17.1468 10.6495 16.8773C10.6495 16.8773 11.7938 15.9117 12.7464 14.8243C12.7464 14.8243 15.7399 11.4069 15.7399 8.125Z" fill="#6265E8"/>
</svg>
