<svg width="212" height="115" viewBox="0 0 212 115" fill="none" xmlns="http://www.w3.org/2000/svg">
<path d="M106.055 49.0062L98.5838 61.9667C103.392 63.8653 108.742 63.8653 113.55 61.9667L106.078 49.0033L106.055 49.0062ZM95.5779 67.1537L87.0947 81.8442L84.5399 80.37C77.9956 76.5911 72.5605 71.1571 68.7805 64.6134C64.9966 58.0673 63.0029 50.6404 63 43.0794C62.9971 35.5185 64.9849 28.09 68.7637 21.541C72.5425 14.992 77.979 9.55343 84.5265 5.7721C91.074 1.99076 98.5017 0 106.063 0C113.624 0 121.051 1.99076 127.599 5.7721C134.146 9.55343 139.583 14.992 143.362 21.541C147.14 28.09 149.128 35.5185 149.125 43.0794C149.122 50.6404 147.129 58.0673 143.345 64.6134C139.568 71.1566 134.134 76.59 127.591 80.3671L125.022 81.8499L116.536 67.1537C113.229 68.5897 109.663 69.3306 106.058 69.3306C102.454 69.3306 98.8872 68.5897 95.5808 67.1537H95.5779ZM106.058 16.8407C111.249 16.8407 116.324 18.38 120.64 21.2639C124.956 24.1478 128.32 28.2468 130.306 33.0426C132.293 37.8383 132.812 43.1154 131.8 48.2066C130.787 53.2978 128.287 57.9743 124.617 61.6448C123.696 62.5639 122.708 63.414 121.663 64.188L127.123 73.6541C131.664 70.525 135.451 66.4235 138.21 61.6477C141.465 56.0041 143.177 49.6032 143.175 43.0881C143.173 36.5731 141.457 30.1732 138.198 24.5317C134.939 18.8901 130.253 14.2055 124.611 10.9486C118.968 7.69162 112.568 5.97701 106.053 5.97701C99.5375 5.97701 93.1372 7.69162 87.4946 10.9486C81.852 14.2055 77.166 18.8901 73.9073 24.5317C70.6486 30.1732 68.9319 36.5731 68.9299 43.0881C68.9279 49.6032 70.6405 56.0041 73.8957 61.6477C76.6529 66.4241 80.4404 70.5258 84.9825 73.6541L90.4426 64.1708C89.3948 63.3948 88.4055 62.5429 87.4827 61.6218C83.8121 57.9513 81.3125 53.2748 80.2998 48.1836C79.2871 43.0925 79.8068 37.8153 81.7933 33.0196C83.7798 28.2238 87.1437 24.1248 91.4598 21.2409C95.7759 18.357 100.85 16.8177 106.041 16.8177L106.058 16.8407ZM120.427 28.7264C118.469 26.7819 116.136 25.2568 113.569 24.2443C111.002 23.2318 108.255 22.7531 105.497 22.8374C102.739 22.9218 100.027 23.5673 97.527 24.7348C95.0268 25.9022 92.7907 27.5669 90.9553 29.6274C89.1199 31.6879 87.7237 34.1008 86.852 36.7188C85.9803 39.3369 85.6513 42.1052 85.8852 44.8546C86.119 47.604 86.9108 50.277 88.2122 52.7102C89.5136 55.1434 91.2972 57.2859 93.4542 59.0067L103.484 41.6294H108.639L118.668 59.0039C119.28 58.5167 119.864 57.9958 120.418 57.4434C124.225 53.6346 126.364 48.47 126.364 43.0849C126.364 37.6998 124.225 32.5352 120.418 28.7264H120.427Z" fill="url(#paint0_linear_1898_36318)"/>
<path d="M1.411 111.854L12.6702 91.8418L25.3146 114.366H19.662L12.6645 101.877L5.64973 114.366H0L1.411 111.854ZM20.8603 96.7386V93.5775H41.6229V98.4111H33.6627V114.352H28.8205V98.4255H20.8603V96.7386ZM60.6211 101.552V93.5919H65.4518V114.366H60.6211V106.406H49.5113V114.366H44.6806V93.5919H49.5113V101.552H60.6211ZM82.8666 109.535H89.2721V114.366H68.5008V93.5919H73.3316V109.535H82.8666ZM92.4016 96.6352C92.8876 96.1462 93.4198 95.7054 93.9907 95.319C95.1077 94.5617 96.367 94.0396 97.6921 93.7844C98.3695 93.6564 99.0574 93.5919 99.7468 93.5919C101.114 93.5755 102.469 93.8364 103.732 94.359C104.995 94.8816 106.139 95.655 107.095 96.6323C107.581 97.1204 108.02 97.6524 108.408 98.2215C108.788 98.779 109.11 99.3741 109.368 99.9974C109.624 100.618 109.817 101.263 109.943 101.923C110.199 103.282 110.199 104.676 109.943 106.035C109.692 107.36 109.171 108.619 108.411 109.734C108.025 110.305 107.584 110.837 107.095 111.323C106.609 111.812 106.077 112.252 105.506 112.639C104.95 113.017 104.357 113.338 103.736 113.596C103.115 113.852 102.47 114.044 101.81 114.171C100.451 114.427 99.0566 114.427 97.6978 114.171C97.0383 114.044 96.3932 113.852 95.7724 113.596C95.1513 113.338 94.5581 113.017 94.0022 112.639C93.4304 112.253 92.8972 111.812 92.4102 111.323C91.922 110.837 91.4813 110.306 91.094 109.736C90.3362 108.624 89.8121 107.37 89.5537 106.049C89.297 104.691 89.297 103.296 89.5537 101.937C89.8089 100.612 90.331 99.3528 91.0883 98.2358C91.4754 97.6671 91.9151 97.136 92.4016 96.6495V96.6352ZM96.9593 108.8C97.1716 108.922 97.3914 109.03 97.6174 109.124C97.8364 109.215 98.061 109.292 98.2898 109.354C98.5233 109.415 98.7603 109.461 98.9996 109.492C99.2475 109.522 99.4971 109.537 99.7468 109.535C100.239 109.538 100.73 109.476 101.207 109.351C101.673 109.227 102.12 109.041 102.537 108.8C102.749 108.677 102.952 108.54 103.146 108.392C103.915 107.796 104.516 107.01 104.891 106.113C104.984 105.894 105.061 105.668 105.121 105.437C105.183 105.205 105.23 104.969 105.261 104.73C105.292 104.482 105.306 104.231 105.305 103.98C105.306 103.489 105.244 102.999 105.121 102.523C104.995 102.056 104.809 101.608 104.566 101.19C104.444 100.978 104.309 100.775 104.161 100.581C104.017 100.392 103.861 100.213 103.695 100.043C103.527 99.8717 103.346 99.7123 103.155 99.5664C102.961 99.4154 102.758 99.2772 102.546 99.1525C102.334 99.0306 102.116 98.9221 101.891 98.8278C101.671 98.7371 101.445 98.6603 101.215 98.5979C100.983 98.5356 100.747 98.4896 100.508 98.46C100.009 98.4025 99.5047 98.4025 99.0054 98.46C98.7669 98.4898 98.5307 98.5359 98.2984 98.5979C98.0687 98.6603 97.8432 98.7371 97.6231 98.8278C97.3981 98.9221 97.1792 99.0306 96.9679 99.1525C96.5505 99.3968 96.1644 99.6911 95.8184 100.029C95.6494 100.197 95.492 100.377 95.3471 100.566C95.1999 100.76 95.0646 100.963 94.9419 101.173C94.6995 101.591 94.5131 102.039 94.3873 102.506C94.1421 103.462 94.1421 104.464 94.3873 105.42C94.5126 105.886 94.6991 106.334 94.9419 106.751C95.0636 106.962 95.1989 107.166 95.3471 107.36C95.4939 107.549 95.6523 107.728 95.8213 107.897C95.9907 108.067 96.1711 108.226 96.3615 108.371C96.5558 108.52 96.7592 108.657 96.9708 108.779L96.9593 108.8ZM127.547 93.5919C127.971 93.5915 128.393 93.6319 128.809 93.7126C129.218 93.791 129.617 93.9114 130.001 94.0718C130.385 94.2261 130.751 94.4187 131.096 94.6465C131.447 94.8844 131.775 95.1558 132.073 95.4569C132.374 95.7562 132.645 96.0833 132.884 96.434C133.117 96.7796 133.317 97.1473 133.479 97.5318C133.637 97.9163 133.756 98.3159 133.835 98.7244C133.996 99.5557 133.996 100.41 133.835 101.242C133.757 101.651 133.636 102.05 133.476 102.434C133.323 102.82 133.13 103.189 132.901 103.535C132.665 103.887 132.395 104.214 132.093 104.512C131.793 104.812 131.466 105.083 131.116 105.322C130.773 105.557 130.406 105.755 130.021 105.914C129.637 106.074 129.237 106.194 128.829 106.274C128.413 106.352 127.991 106.391 127.567 106.391H118.012V114.352H113.179V101.552H127.547C127.661 101.554 127.774 101.545 127.886 101.526C127.985 101.512 128.081 101.486 128.174 101.449C128.261 101.411 128.345 101.365 128.424 101.311C128.516 101.245 128.602 101.172 128.682 101.092C128.76 101.017 128.831 100.934 128.892 100.845C128.945 100.768 128.989 100.685 129.024 100.598C129.061 100.511 129.088 100.421 129.105 100.328C129.124 100.219 129.134 100.108 129.133 99.9974C129.134 99.8857 129.124 99.7741 129.105 99.6641C129.074 99.4749 128.999 99.2957 128.886 99.141C128.824 99.0481 128.752 98.9624 128.671 98.8853C128.593 98.8038 128.508 98.7306 128.415 98.6669C128.335 98.6127 128.251 98.5665 128.162 98.5289C128.069 98.4922 127.973 98.4652 127.875 98.4485C127.765 98.4298 127.653 98.4211 127.541 98.4226H113.179V93.5919H127.547ZM138.737 96.6323C139.224 96.145 139.756 95.7053 140.327 95.319C140.885 94.941 141.48 94.6204 142.103 94.3621C142.723 94.1057 143.368 93.9132 144.028 93.7873C144.705 93.6591 145.393 93.5946 146.083 93.5948C147.449 93.5781 148.805 93.8389 150.067 94.3615C151.33 94.8841 152.473 95.6576 153.428 96.6352C153.915 97.1209 154.355 97.6521 154.741 98.2215C155.501 99.3377 156.027 100.597 156.284 101.923C156.543 103.286 156.543 104.686 156.284 106.049C156.158 106.71 155.966 107.356 155.71 107.978C155.453 108.599 155.134 109.192 154.756 109.748C154.368 110.317 153.927 110.849 153.439 111.334C152.954 111.822 152.422 112.263 151.853 112.65C150.738 113.409 149.479 113.93 148.155 114.182C146.796 114.439 145.401 114.439 144.042 114.182C142.718 113.93 141.459 113.409 140.344 112.65C139.774 112.263 139.243 111.822 138.758 111.334C138.269 110.85 137.828 110.32 137.441 109.751C136.672 108.638 136.14 107.378 135.881 106.049C135.753 105.372 135.688 104.684 135.688 103.995C135.677 102.625 135.938 101.266 136.456 99.9974C136.713 99.3753 137.034 98.7812 137.413 98.2243C137.8 97.6531 138.241 97.12 138.729 96.6323H138.737ZM143.295 108.8C143.507 108.92 143.726 109.029 143.95 109.124C144.393 109.311 144.859 109.437 145.335 109.498C145.583 109.528 145.833 109.543 146.083 109.541C146.574 109.544 147.064 109.482 147.54 109.357C148.007 109.233 148.455 109.047 148.873 108.805C149.084 108.681 149.287 108.545 149.482 108.397C149.673 108.252 149.853 108.095 150.023 107.926C150.366 107.584 150.662 107.198 150.902 106.777C151.024 106.565 151.132 106.346 151.227 106.121C151.319 105.901 151.396 105.674 151.456 105.443C151.519 105.211 151.566 104.975 151.597 104.736C151.626 104.488 151.641 104.239 151.64 103.989C151.642 103.497 151.58 103.008 151.456 102.532C151.331 102.065 151.144 101.617 150.902 101.199C150.779 100.987 150.643 100.783 150.494 100.589C150.351 100.399 150.194 100.22 150.025 100.052C149.855 99.8819 149.675 99.7226 149.485 99.575C149.291 99.4278 149.089 99.2925 148.879 99.1698C148.667 99.0478 148.449 98.9394 148.224 98.845C148.004 98.7543 147.778 98.6775 147.548 98.6152C147.315 98.5529 147.078 98.5068 146.838 98.4772C146.34 98.4197 145.837 98.4197 145.338 98.4772C145.1 98.5068 144.864 98.5529 144.631 98.6152C144.402 98.6771 144.176 98.7539 143.956 98.845C143.73 98.9347 143.509 99.0374 143.295 99.1525C143.083 99.2752 142.88 99.4115 142.686 99.5606C142.308 99.8543 141.968 100.194 141.674 100.572C141.526 100.765 141.391 100.968 141.269 101.179C141.027 101.597 140.84 102.045 140.715 102.512C140.469 103.468 140.469 104.47 140.715 105.426C140.84 105.892 141.026 106.339 141.269 106.756C141.391 106.968 141.526 107.172 141.674 107.366C141.964 107.747 142.304 108.088 142.686 108.377C142.882 108.525 143.086 108.662 143.298 108.785L143.295 108.8ZM173.883 109.535H180.291V114.366H159.517V93.5919H164.348V109.535H173.883ZM183.338 112.679V93.5919H188.183V114.366H183.338V112.679ZM197.623 93.5919H211.991V98.4255H197.623C197.417 98.4205 197.211 98.4566 197.019 98.5318C196.93 98.5692 196.844 98.6154 196.764 98.6698C196.674 98.7306 196.59 98.7999 196.514 98.8767C196.433 98.9591 196.359 99.0475 196.292 99.141C196.238 99.2206 196.192 99.3053 196.154 99.3939C196.118 99.48 196.091 99.5696 196.074 99.6612C196.039 99.8821 196.039 100.107 196.074 100.328C196.092 100.419 196.119 100.509 196.154 100.595C196.19 100.684 196.236 100.768 196.292 100.845C196.351 100.934 196.419 101.016 196.496 101.089C196.577 101.169 196.664 101.241 196.758 101.305C196.836 101.359 196.92 101.406 197.008 101.443C197.1 101.48 197.197 101.506 197.295 101.52C197.407 101.539 197.521 101.548 197.634 101.546H205.594C206.017 101.546 206.438 101.586 206.853 101.667C207.262 101.745 207.661 101.865 208.046 102.023C208.432 102.183 208.801 102.381 209.146 102.615C209.498 102.851 209.826 103.122 210.123 103.423C210.423 103.723 210.695 104.05 210.934 104.4C211.4 105.095 211.722 105.877 211.882 106.699C212.039 107.532 212.039 108.386 211.882 109.219C211.724 110.041 211.401 110.823 210.934 111.518C210.696 111.868 210.426 112.194 210.126 112.492C209.825 112.791 209.497 113.062 209.146 113.3C208.801 113.528 208.433 113.721 208.049 113.875C207.664 114.033 207.265 114.153 206.856 114.231C206.441 114.311 206.02 114.352 205.597 114.352H191.229V109.535H205.597C205.709 109.537 205.821 109.528 205.931 109.509C206.023 109.492 206.114 109.465 206.201 109.429C206.291 109.392 206.377 109.344 206.457 109.288C206.549 109.225 206.635 109.153 206.712 109.073C206.792 108.995 206.864 108.911 206.928 108.82C207.036 108.661 207.11 108.482 207.146 108.294C207.181 108.073 207.181 107.848 207.146 107.627C207.128 107.535 207.101 107.444 207.066 107.357C207.029 107.271 206.984 107.19 206.931 107.113C206.871 107.024 206.803 106.941 206.727 106.866C206.646 106.788 206.558 106.717 206.465 106.653C206.386 106.599 206.301 106.552 206.212 106.515C206.124 106.481 206.033 106.455 205.939 106.437C205.827 106.419 205.714 106.41 205.6 106.412H197.64C197.217 106.411 196.794 106.372 196.378 106.294C195.971 106.214 195.572 106.094 195.189 105.935C194.802 105.777 194.434 105.579 194.088 105.345C193.385 104.868 192.778 104.261 192.301 103.558C192.072 103.212 191.88 102.843 191.726 102.457C191.566 102.073 191.446 101.673 191.367 101.265C191.21 100.432 191.21 99.5772 191.367 98.7445C191.447 98.3361 191.567 97.9366 191.726 97.5519C191.885 97.1675 192.083 96.8006 192.318 96.457C192.555 96.1055 192.826 95.7774 193.125 95.4771C193.425 95.1782 193.753 94.9079 194.102 94.6695C194.449 94.436 194.817 94.2377 195.203 94.0776C195.587 93.9168 195.987 93.7964 196.396 93.7183C196.81 93.6377 197.232 93.5972 197.654 93.5976L197.623 93.5919Z" fill="url(#paint1_linear_1898_36318)"/>
<defs>
<linearGradient id="paint0_linear_1898_36318" x1="59.6306" y1="59.8408" x2="156.59" y2="37.4965" gradientUnits="userSpaceOnUse">
<stop stop-color="#FA93BF"/>
<stop offset="0.54" stop-color="#6265E8"/>
<stop offset="1" stop-color="#10D6E3"/>
</linearGradient>
<linearGradient id="paint1_linear_1898_36318" x1="38.0844" y1="116.582" x2="189.018" y2="107.561" gradientUnits="userSpaceOnUse">
<stop stop-color="#FA93BF"/>
<stop offset="0.56" stop-color="#6265E8"/>
<stop offset="1" stop-color="#10D6E3"/>
</linearGradient>
</defs>
</svg>
