<svg width="218" height="72" viewBox="0 0 218 72" fill="none" xmlns="http://www.w3.org/2000/svg">
<path d="M0 35.2C0 22.8788 0 16.7183 2.39786 12.0122C4.50707 7.87264 7.87264 4.50707 12.0122 2.39786C16.7183 0 22.8788 0 35.2 0H182.8C195.121 0 201.282 0 205.988 2.39786C210.127 4.50707 213.493 7.87264 215.602 12.0122C218 16.7183 218 22.8788 218 35.2V72H0V35.2Z" fill="white" fill-opacity="0.8"/>
<path d="M32.8382 43.1544L29.9117 48.2233C30.8177 48.5828 31.8055 48.7805 32.8395 48.7805C33.8727 48.7805 34.8597 48.5832 35.7651 48.2242L32.8382 43.1544ZM28.7406 50.2519L25.4237 55.9968L24.4244 55.4199C21.82 53.9162 19.7152 51.775 18.2613 49.2581L18.2593 49.2593C16.8035 46.7381 16 43.844 16 40.8395C16 36.1896 17.885 31.9796 20.9323 28.9323C23.9796 25.8849 28.1896 24 32.8395 24C37.4894 24 41.6994 25.8849 44.7467 28.9323C47.7941 31.9796 49.679 36.1896 49.679 40.8395C49.679 43.8408 48.8755 46.7334 47.4198 49.2547V49.2593C45.967 51.7757 43.863 53.9165 41.2593 55.4199L40.2545 56L36.9363 50.2527C35.6813 50.7997 34.2958 51.1032 32.8395 51.1032C31.3824 51.1032 29.9962 50.7995 28.7406 50.2519ZM32.8395 30.5758C35.6735 30.5758 38.2396 31.7248 40.097 33.5821C41.9542 35.4395 43.1032 38.0056 43.1032 40.8395C43.1032 43.6735 41.9542 46.2396 40.097 48.097C39.7375 48.4563 39.3514 48.7892 38.9421 49.0923L41.0795 52.7943C42.8771 51.5556 44.349 49.9438 45.4147 48.098L45.4166 48.099C46.6664 45.933 47.3563 43.438 47.3563 40.8395C47.3563 36.8307 45.7314 33.2014 43.1045 30.5745C40.4776 27.9476 36.8484 26.3227 32.8395 26.3227C28.8308 26.3227 25.2013 27.9476 22.5745 30.5745C19.9477 33.2013 18.3227 36.8307 18.3227 40.8395C18.3227 43.4364 19.0134 45.9312 20.2645 48.098V48.1026C21.3302 49.9484 22.8023 51.5599 24.6002 52.798L26.7388 49.0938C26.3288 48.7902 25.9421 48.4569 25.5821 48.097C23.7248 46.2396 22.5758 43.6735 22.5758 40.8395C22.5758 38.0056 23.7248 35.4395 25.5821 33.5821C27.4394 31.7248 30.0056 30.5758 32.8395 30.5758ZM38.4548 35.2242C37.0178 33.7875 35.0324 32.8986 32.8395 32.8986C30.6466 32.8986 28.6611 33.7875 27.2242 35.2242C25.7875 36.6612 24.8985 38.6466 24.8985 40.8395C24.8985 43.0325 25.7875 45.0179 27.2242 46.4548C27.4407 46.6712 27.6698 46.875 27.9098 47.0654L31.833 40.2704H33.8487L37.771 47.064C38.0105 46.874 38.2389 46.6706 38.4548 46.4548C39.8916 45.0179 40.7804 43.0325 40.7804 40.8395C40.7804 38.6466 39.8916 36.6612 38.4548 35.2242Z" fill="url(#paint0_linear_1898_36277)"/>
<path d="M59.1212 34.7152L53.0188 45.5643H55.5343L59.1197 39.1827L62.6953 45.5643H65.2102L59.1212 34.7152ZM63.3492 35.4509V37.5974H67.3275V45.5643H69.4842V37.5973L73.4625 37.5974V35.4509H63.3492ZM83.2212 35.4509V39.4293H77.4001V35.4509H75.2539V45.5643H77.4001V41.5861H83.2212V45.5643H85.367V35.4509H83.2212ZM97.2721 43.4183H89.3049V35.4509H87.1589V45.5643H97.2721V43.4183ZM99.4376 36.5919C99.3071 36.6998 99.1829 36.8128 99.0654 36.9308C98.9457 37.051 98.8314 37.1766 98.7232 37.3074C98.6166 37.4363 98.5169 37.5691 98.4247 37.7054C98.3322 37.8412 98.2467 37.9821 98.1681 38.1277C98.0902 38.2722 98.0204 38.4191 97.959 38.5679C97.8972 38.7176 97.8425 38.8719 97.7952 39.0301C97.7485 39.1867 97.7097 39.3453 97.6791 39.5055C97.6168 39.8306 97.5857 40.165 97.5857 40.5079C97.5857 40.6827 97.5933 40.852 97.6086 41.0155C97.6239 41.1804 97.6475 41.3455 97.6791 41.5102C97.7097 41.6705 97.7486 41.8292 97.7954 41.9858C97.8426 42.1439 97.8972 42.2979 97.959 42.4475C98.0205 42.5965 98.0903 42.7436 98.1685 42.8882C98.2471 43.0339 98.3326 43.175 98.4248 43.3108C98.5151 43.4441 98.6148 43.5766 98.7234 43.7078C98.8318 43.8388 98.9462 43.9647 99.066 44.0851C99.1862 44.2048 99.3107 44.3181 99.4396 44.4245C99.5715 44.5335 99.7057 44.6343 99.8417 44.7265C99.9775 44.8185 100.118 44.904 100.264 44.9825C100.408 45.0602 100.554 45.1297 100.703 45.1909C100.852 45.2527 101.007 45.3075 101.165 45.3548C101.322 45.4017 101.48 45.4406 101.64 45.4709C101.805 45.5024 101.97 45.526 102.135 45.5414C102.298 45.5566 102.467 45.5643 102.642 45.5643C102.817 45.5643 102.986 45.5566 103.149 45.5414C103.314 45.526 103.48 45.5023 103.644 45.4708C103.805 45.4402 103.964 45.4012 104.12 45.3544C104.278 45.3073 104.432 45.2526 104.582 45.1909C104.73 45.1295 104.877 45.0598 105.021 44.9818C105.167 44.9035 105.307 44.8184 105.442 44.7265C105.576 44.6358 105.71 44.5357 105.841 44.4268C105.97 44.3203 106.095 44.2061 106.216 44.0849L106.223 44.0798C106.34 43.9629 106.452 43.8393 106.559 43.7097C106.668 43.5782 106.769 43.4442 106.861 43.3086C106.952 43.173 107.038 43.0324 107.116 42.8872C107.194 42.7428 107.264 42.596 107.325 42.4475C107.387 42.2981 107.442 42.1443 107.489 41.9863C107.536 41.8294 107.575 41.6705 107.605 41.5099C107.637 41.3455 107.66 41.1802 107.676 41.0146C107.691 40.8514 107.699 40.6823 107.699 40.5079C107.699 40.3332 107.691 40.1639 107.676 40.0005C107.66 39.8354 107.637 39.6702 107.605 39.5053C107.575 39.3451 107.536 39.1866 107.489 39.03C107.442 38.8718 107.387 38.7176 107.325 38.5679C107.264 38.4191 107.194 38.2723 107.116 38.1277C107.038 37.982 106.952 37.841 106.86 37.7051C106.77 37.5719 106.67 37.4394 106.562 37.3083C106.453 37.177 106.339 37.0509 106.219 36.9303C105.975 36.6859 105.716 36.471 105.442 36.2859C105.169 36.1009 104.882 35.9463 104.583 35.8227C104.284 35.699 103.973 35.606 103.649 35.5439C103.326 35.482 102.99 35.4509 102.642 35.4509C102.467 35.4509 102.298 35.4586 102.135 35.4739C101.97 35.4893 101.805 35.5129 101.64 35.5443C101.48 35.5751 101.321 35.614 101.164 35.6609C101.006 35.7082 100.852 35.7628 100.703 35.8244C100.554 35.8859 100.407 35.9558 100.262 36.0339C100.117 36.1125 99.9757 36.1978 99.8402 36.2897C99.7014 36.3842 99.5669 36.4849 99.4376 36.5919ZM101.348 43.1214C101.29 43.0931 101.235 43.0632 101.181 43.0322L101.181 43.0317C101.124 42.9987 101.069 42.9642 101.016 42.9289C100.963 42.8932 100.911 42.8564 100.862 42.819C100.813 42.7817 100.766 42.7428 100.72 42.7028C100.675 42.663 100.628 42.6187 100.58 42.5706L100.579 42.5701C100.531 42.5217 100.487 42.4749 100.447 42.4298C100.407 42.3843 100.368 42.3368 100.331 42.2877C100.292 42.2364 100.254 42.1839 100.218 42.1303C100.184 42.0787 100.15 42.0251 100.118 41.9698L100.118 41.9672C100.053 41.8555 99.9967 41.7416 99.9486 41.626C99.9003 41.5099 99.86 41.3909 99.8277 41.2696C99.7962 41.1504 99.7721 41.0261 99.7559 40.8972C99.7395 40.7704 99.7315 40.6406 99.7315 40.5079C99.7315 40.3751 99.7395 40.2451 99.7555 40.1183C99.7713 39.9918 99.7956 39.8674 99.8277 39.7457C99.86 39.6243 99.9004 39.5052 99.9487 39.3891C99.9969 39.2734 100.053 39.1596 100.118 39.0481L100.118 39.0455C100.15 38.9903 100.184 38.9367 100.218 38.8851C100.254 38.8315 100.292 38.7787 100.331 38.7275C100.369 38.6784 100.409 38.6296 100.45 38.5817C100.491 38.5355 100.532 38.491 100.575 38.4488L100.579 38.4438C100.623 38.4005 100.668 38.358 100.715 38.3165C100.764 38.2743 100.813 38.2341 100.862 38.1964C100.914 38.157 100.967 38.1191 101.021 38.0829C101.072 38.0487 101.125 38.0156 101.18 37.984L101.183 37.9833C101.237 37.9515 101.294 37.9214 101.351 37.8931C101.409 37.8643 101.467 37.8378 101.525 37.8137C101.584 37.7891 101.644 37.7665 101.703 37.7462C101.761 37.7266 101.82 37.7087 101.879 37.6929C101.943 37.676 102.005 37.6616 102.066 37.6497C102.124 37.6383 102.186 37.6283 102.25 37.6202C102.311 37.6126 102.373 37.6068 102.437 37.6033C102.507 37.5994 102.575 37.5974 102.642 37.5974C102.709 37.5974 102.778 37.5994 102.847 37.6033C102.911 37.6068 102.973 37.6126 103.034 37.6202C103.099 37.6283 103.16 37.6383 103.219 37.6497C103.279 37.6616 103.341 37.676 103.405 37.6929C103.465 37.7087 103.524 37.7268 103.582 37.7465C103.641 37.7667 103.701 37.7892 103.76 37.8137C103.817 37.8376 103.875 37.8641 103.933 37.8927C103.99 37.9211 104.047 37.9514 104.102 37.9833L104.104 37.984C104.159 38.0158 104.213 38.0491 104.265 38.0837C104.318 38.1195 104.371 38.157 104.422 38.1959C104.471 38.2337 104.52 38.274 104.568 38.3162C104.615 38.3567 104.661 38.4002 104.706 38.4467C104.754 38.4944 104.797 38.5405 104.836 38.5849C104.877 38.6306 104.916 38.6784 104.954 38.7279C104.992 38.7779 105.029 38.8295 105.064 38.8821C105.098 38.9324 105.132 38.9876 105.166 39.0469C105.231 39.1589 105.288 39.2732 105.336 39.3893C105.384 39.5054 105.424 39.6243 105.456 39.7457C105.488 39.8647 105.512 39.989 105.528 40.1177C105.545 40.2474 105.553 40.3776 105.553 40.5079C105.553 40.5751 105.551 40.6434 105.547 40.7125C105.543 40.7765 105.537 40.8388 105.53 40.8988C105.523 40.9599 105.512 41.0217 105.5 41.0841C105.488 41.1445 105.474 41.2069 105.457 41.2706C105.441 41.3305 105.423 41.3896 105.403 41.4476C105.383 41.5067 105.361 41.5659 105.336 41.625C105.312 41.6825 105.286 41.7405 105.257 41.7984C105.23 41.8536 105.199 41.9104 105.166 41.9679C105.133 42.0252 105.099 42.0795 105.065 42.131C105.03 42.1843 104.993 42.2365 104.954 42.2873C104.916 42.3365 104.876 42.3855 104.834 42.4338C104.792 42.4815 104.749 42.5275 104.706 42.571C104.665 42.6124 104.619 42.6552 104.569 42.6992C104.52 42.7414 104.471 42.7816 104.422 42.8193C104.369 42.8597 104.317 42.897 104.266 42.9306C104.214 42.9654 104.159 42.9993 104.103 43.0317C103.991 43.0966 103.876 43.1533 103.76 43.2016C103.644 43.2497 103.526 43.2899 103.404 43.322C103.285 43.3535 103.161 43.3776 103.032 43.3938C102.905 43.4102 102.775 43.4183 102.642 43.4183C102.575 43.4183 102.507 43.4162 102.438 43.4124C102.37 43.4085 102.307 43.4029 102.251 43.3959C102.185 43.3871 102.124 43.3772 102.066 43.3659C102.005 43.354 101.943 43.3395 101.879 43.3225C101.819 43.3067 101.76 43.2888 101.702 43.269C101.643 43.249 101.584 43.2265 101.525 43.202C101.466 43.1772 101.406 43.1502 101.348 43.1214ZM116.84 35.4648C116.743 35.4556 116.642 35.4509 116.536 35.4509H109.49V37.5974H116.536C116.57 37.5974 116.603 37.5986 116.636 37.6013C116.667 37.6037 116.698 37.6078 116.727 37.6133C116.756 37.6186 116.783 37.6253 116.81 37.6332C116.837 37.6413 116.864 37.6507 116.89 37.6613C116.916 37.6721 116.942 37.6845 116.967 37.6984C116.992 37.7122 117.016 37.7273 117.04 37.7435C117.066 37.7611 117.092 37.7807 117.117 37.8022C117.141 37.8226 117.165 37.8452 117.189 37.8696C117.213 37.8942 117.236 37.9182 117.255 37.9409C117.277 37.9679 117.296 37.9925 117.312 38.0146C117.328 38.0385 117.343 38.0628 117.356 38.0868C117.369 38.1108 117.382 38.1364 117.393 38.1626L117.395 38.1658C117.404 38.1893 117.413 38.2158 117.422 38.2452C117.43 38.2722 117.437 38.2999 117.442 38.3277C117.447 38.3577 117.451 38.3883 117.454 38.4192C117.456 38.4517 117.458 38.485 117.458 38.5186C117.458 38.5529 117.456 38.5864 117.454 38.6187C117.451 38.6503 117.447 38.6806 117.442 38.7092C117.436 38.7381 117.43 38.7656 117.422 38.7913C117.414 38.8177 117.405 38.8444 117.393 38.871C117.383 38.8968 117.371 38.9222 117.357 38.9464C117.344 38.9714 117.329 38.9952 117.314 39.0177L117.313 39.0182C117.296 39.0433 117.277 39.068 117.257 39.0916C117.238 39.1147 117.216 39.1381 117.193 39.1613C117.167 39.1863 117.143 39.2088 117.12 39.2282C117.095 39.2491 117.07 39.2682 117.045 39.2851L116.933 39.3615L116.926 39.3525L116.894 39.3671C116.867 39.3777 116.84 39.387 116.814 39.3945C116.79 39.4013 116.762 39.4078 116.73 39.4136C116.7 39.4192 116.669 39.4231 116.637 39.4255C116.604 39.428 116.57 39.4293 116.536 39.4293H109.49V45.5643H111.636V41.5861H116.536C116.642 41.5861 116.743 41.5815 116.841 41.5723C116.94 41.5629 117.04 41.5484 117.141 41.5292C117.237 41.5106 117.333 41.4869 117.429 41.4584C117.526 41.4293 117.62 41.3958 117.71 41.3584C117.802 41.3204 117.891 41.2779 117.978 41.2308C118.064 41.1843 118.15 41.1322 118.235 41.075L118.313 41.0216C118.367 40.9825 118.421 40.941 118.474 40.8974C118.553 40.8311 118.63 40.7612 118.704 40.688L118.706 40.687C118.779 40.614 118.848 40.5385 118.912 40.461C118.977 40.3829 119.037 40.3022 119.093 40.2192C119.149 40.1384 119.2 40.0539 119.247 39.9661C119.294 39.8787 119.336 39.7878 119.375 39.6937C119.413 39.6027 119.447 39.5086 119.476 39.4116C119.504 39.316 119.528 39.2197 119.547 39.1232C119.566 39.0223 119.58 38.9219 119.59 38.8226C119.599 38.7255 119.604 38.624 119.604 38.5186C119.604 38.4135 119.599 38.3122 119.59 38.2152C119.58 38.1158 119.566 38.0153 119.547 37.9143C119.528 37.8177 119.504 37.7213 119.476 37.6257C119.447 37.5288 119.413 37.4346 119.376 37.3439L119.375 37.3401C119.338 37.2517 119.296 37.1633 119.248 37.0753C119.2 36.9862 119.148 36.9 119.092 36.817C119.035 36.7341 118.975 36.6533 118.91 36.5753C118.843 36.4959 118.775 36.4205 118.703 36.3492C118.627 36.2738 118.551 36.2038 118.474 36.1396C118.396 36.0749 118.316 36.015 118.235 35.9602C118.151 35.9041 118.067 35.8528 117.982 35.8074C117.895 35.7607 117.804 35.7179 117.711 35.6793C117.62 35.6417 117.526 35.6081 117.429 35.579C117.333 35.5504 117.237 35.5267 117.141 35.5082C117.04 35.4887 116.94 35.4742 116.84 35.4648ZM122.596 36.5914C122.467 36.6978 122.342 36.8111 122.223 36.9307C122.103 37.0505 121.99 37.175 121.883 37.3037C121.774 37.4355 121.674 37.5696 121.582 37.7055C121.49 37.8413 121.404 37.9822 121.326 38.1277C121.248 38.2723 121.178 38.4191 121.116 38.5679C120.992 38.8686 120.899 39.181 120.837 39.5046C120.774 39.8271 120.743 40.1616 120.743 40.5079C120.743 40.6825 120.751 40.8518 120.766 41.0153C120.782 41.1804 120.805 41.3455 120.837 41.5103C120.867 41.6708 120.906 41.8297 120.953 41.9865C121 42.1445 121.055 42.2983 121.116 42.4475C121.178 42.5967 121.248 42.7442 121.327 42.8894C121.405 43.0345 121.49 43.1752 121.582 43.3106C121.675 43.4468 121.775 43.5798 121.882 43.7088C121.99 43.8389 122.104 43.9637 122.224 44.083L122.227 44.0869C122.347 44.2059 122.471 44.3194 122.601 44.4268C122.733 44.5359 122.866 44.6358 122.999 44.7265C123.135 44.8184 123.276 44.9038 123.421 44.9823C123.565 45.0601 123.712 45.1297 123.86 45.1909C124.01 45.2526 124.164 45.3074 124.322 45.3546C124.479 45.4014 124.637 45.4403 124.798 45.4709C124.962 45.5024 125.128 45.526 125.293 45.5414C125.456 45.5566 125.625 45.5643 125.8 45.5643C125.975 45.5643 126.144 45.5566 126.307 45.5414C126.472 45.526 126.637 45.5023 126.802 45.4708C126.962 45.4402 127.121 45.4012 127.278 45.3544C127.436 45.3072 127.59 45.2526 127.74 45.1909C127.888 45.1297 128.034 45.0601 128.178 44.9824C128.324 44.9038 128.465 44.8184 128.6 44.7265C128.734 44.6356 128.867 44.5355 128.999 44.4266C129.129 44.3189 129.253 44.2053 129.373 44.0863L129.377 44.082C129.496 43.9621 129.611 43.8368 129.719 43.7065C129.828 43.5749 129.928 43.4419 130.018 43.3083C130.11 43.1728 130.196 43.0323 130.274 42.887C130.352 42.7426 130.422 42.5959 130.483 42.4475C130.545 42.298 130.599 42.144 130.646 41.9861C130.693 41.8292 130.732 41.6702 130.763 41.5097C130.794 41.3448 130.818 41.1796 130.834 41.0146C130.849 40.8514 130.856 40.6822 130.856 40.5079C130.856 40.3331 130.849 40.1638 130.834 40.0004C130.818 39.8354 130.795 39.6702 130.763 39.5054C130.732 39.3451 130.693 39.1861 130.647 39.0293C130.599 38.8713 130.545 38.7174 130.483 38.5679C130.422 38.4193 130.352 38.2724 130.274 38.128C130.197 37.985 130.111 37.8441 130.017 37.7055C129.927 37.5714 129.827 37.4385 129.718 37.307C129.611 37.1775 129.498 37.053 129.379 36.9342L129.375 36.9307C129.129 36.6842 128.869 36.4686 128.597 36.2842C128.325 36.1002 128.04 35.9463 127.741 35.8227C127.442 35.699 127.13 35.6059 126.807 35.5438C126.484 35.482 126.148 35.4509 125.8 35.4509C125.625 35.4509 125.456 35.4586 125.293 35.4739C125.128 35.4893 124.962 35.5129 124.798 35.5443C124.637 35.575 124.479 35.6139 124.322 35.6607C124.164 35.708 124.01 35.7626 123.86 35.8244C123.711 35.8859 123.565 35.9558 123.42 36.0337C123.277 36.1108 123.136 36.1965 122.998 36.2902C122.861 36.3819 122.727 36.4825 122.596 36.5914ZM124.51 43.1233C124.454 43.0958 124.397 43.0651 124.34 43.0317C124.281 42.9978 124.226 42.964 124.176 42.9306L124.175 42.9301C124.121 42.894 124.069 42.8568 124.02 42.8189C123.971 42.7815 123.922 42.7416 123.874 42.6997C123.826 42.658 123.78 42.6151 123.737 42.5715L123.736 42.571C123.692 42.5272 123.649 42.4811 123.607 42.4331C123.565 42.3852 123.526 42.3366 123.488 42.2877C123.449 42.2364 123.411 42.1838 123.376 42.1301C123.341 42.0787 123.308 42.025 123.276 41.9698L123.275 41.9672C123.211 41.8556 123.154 41.7418 123.106 41.6263C123.058 41.5102 123.018 41.3911 122.985 41.2696C122.953 41.1479 122.929 41.0237 122.913 40.8971C122.897 40.7703 122.889 40.6404 122.889 40.5079C122.889 40.3751 122.897 40.2453 122.913 40.1185C122.929 39.9919 122.953 39.8675 122.985 39.7457C123.018 39.6241 123.058 39.505 123.106 39.3888C123.154 39.2733 123.211 39.1595 123.275 39.0481L123.276 39.0455C123.308 38.9903 123.341 38.9367 123.376 38.8852C123.412 38.8315 123.449 38.7789 123.488 38.7279C123.526 38.6785 123.565 38.6308 123.605 38.5851C123.645 38.5402 123.689 38.4935 123.737 38.4454C123.78 38.4026 123.826 38.3589 123.877 38.3142C123.922 38.2735 123.97 38.2342 124.02 38.1964C124.071 38.1571 124.124 38.1192 124.178 38.083C124.229 38.0487 124.283 38.0156 124.338 37.984L124.34 37.9833C124.395 37.9515 124.452 37.9212 124.509 37.8929C124.566 37.8642 124.624 37.8378 124.682 37.8138C124.741 37.7892 124.801 37.7666 124.86 37.7464C124.918 37.7267 124.977 37.7087 125.037 37.6929C125.101 37.676 125.163 37.6616 125.223 37.6497C125.282 37.6383 125.343 37.6283 125.408 37.6202C125.469 37.6126 125.531 37.6068 125.595 37.6033C125.664 37.5994 125.733 37.5974 125.8 37.5974C125.867 37.5974 125.935 37.5994 126.004 37.6033C126.068 37.6068 126.131 37.6126 126.191 37.6202C126.256 37.6283 126.318 37.6383 126.376 37.6497C126.436 37.6616 126.499 37.676 126.563 37.6929C126.622 37.7087 126.681 37.7267 126.739 37.7464C126.799 37.7667 126.858 37.7892 126.917 37.8138C126.975 37.8378 127.033 37.8643 127.091 37.8931C127.148 37.9214 127.204 37.9515 127.259 37.9833L127.262 37.984C127.317 38.0159 127.371 38.0493 127.422 38.0837C127.476 38.1195 127.528 38.1571 127.579 38.1962C127.629 38.2338 127.676 38.2729 127.722 38.3131C127.77 38.3551 127.816 38.3989 127.862 38.4442L127.864 38.4451C127.907 38.4881 127.949 38.5335 127.991 38.5808C128.033 38.6289 128.073 38.6781 128.111 38.7275C128.151 38.7803 128.188 38.8319 128.222 38.8822C128.257 38.9353 128.291 38.9902 128.324 39.0469C128.388 39.1587 128.445 39.273 128.493 39.3889C128.542 39.5051 128.582 39.6242 128.614 39.7457C128.646 39.8674 128.671 39.9918 128.687 40.1183C128.703 40.2451 128.711 40.3751 128.711 40.5079C128.711 40.5744 128.708 40.6423 128.705 40.7108C128.701 40.7751 128.695 40.8377 128.688 40.8982C128.68 40.9592 128.67 41.021 128.658 41.0834C128.646 41.1452 128.631 41.2074 128.615 41.2694C128.599 41.3293 128.58 41.3892 128.56 41.4489C128.54 41.5081 128.518 41.5671 128.494 41.6251C128.47 41.6827 128.443 41.7408 128.415 41.7988C128.386 41.8563 128.356 41.9131 128.324 41.9685C128.289 42.0278 128.255 42.0828 128.222 42.1333C128.186 42.1858 128.15 42.2374 128.111 42.2877C128.073 42.3369 128.033 42.3858 127.991 42.4341C127.95 42.4817 127.907 42.5275 127.864 42.571L127.863 42.5715C127.819 42.6152 127.773 42.6581 127.725 42.6998C127.677 42.7419 127.629 42.7818 127.58 42.8192C127.529 42.8578 127.477 42.895 127.424 42.9303C127.372 42.9651 127.317 42.9991 127.261 43.0317C127.148 43.0966 127.034 43.1533 126.918 43.2015C126.802 43.2497 126.683 43.2899 126.562 43.322C126.443 43.3535 126.318 43.3776 126.19 43.3938C126.063 43.4102 125.933 43.4183 125.8 43.4183C125.733 43.4183 125.664 43.4162 125.595 43.4124C125.531 43.4088 125.469 43.403 125.409 43.3954C125.344 43.3871 125.282 43.3773 125.224 43.3658C125.163 43.354 125.101 43.3395 125.037 43.3225C124.977 43.3067 124.918 43.2888 124.86 43.2692C124.801 43.249 124.742 43.2265 124.683 43.202C124.625 43.1782 124.568 43.1518 124.51 43.1233ZM142.761 43.4183H134.794V35.4509H132.648V45.5643H142.761V43.4183ZM144.553 35.4509V45.5643H146.699V35.4509H144.553ZM158.604 35.4509H151.558C151.453 35.4509 151.351 35.4556 151.254 35.4648C151.155 35.4742 151.055 35.4887 150.954 35.5082C150.857 35.5267 150.761 35.5504 150.665 35.5791C150.57 35.6077 150.476 35.6413 150.384 35.6793C150.293 35.7164 150.204 35.7591 150.115 35.8068C150.026 35.855 149.94 35.9072 149.858 35.9628C149.773 36.0205 149.693 36.0803 149.618 36.1427C149.537 36.2094 149.461 36.2786 149.389 36.3501C149.317 36.4214 149.249 36.4962 149.185 36.5739C149.12 36.653 149.059 36.735 149.002 36.8196C148.946 36.9016 148.894 36.9874 148.846 37.0764C148.798 37.1646 148.756 37.2539 148.719 37.3439C148.681 37.4346 148.648 37.5287 148.619 37.6256C148.59 37.7212 148.566 37.8175 148.548 37.9142C148.528 38.0151 148.514 38.1155 148.504 38.215C148.495 38.312 148.491 38.4133 148.491 38.5186C148.491 38.624 148.495 38.7255 148.504 38.8226C148.514 38.922 148.528 39.0225 148.548 39.1234C148.566 39.2201 148.59 39.3167 148.619 39.4124C148.648 39.5089 148.681 39.6029 148.719 39.6937C148.758 39.7877 148.801 39.8786 148.847 39.9658C148.893 40.0511 148.944 40.1359 149.001 40.2196C149.057 40.3025 149.118 40.3832 149.182 40.4614C149.246 40.5391 149.315 40.6149 149.389 40.688C149.46 40.76 149.536 40.829 149.616 40.8949C149.694 40.9594 149.775 41.0199 149.858 41.076C149.941 41.1326 150.026 41.184 150.111 41.2297C150.198 41.2764 150.289 41.3194 150.383 41.3582C150.474 41.3957 150.568 41.4293 150.665 41.4583C150.761 41.4869 150.857 41.5106 150.953 41.5292C151.054 41.5484 151.155 41.5629 151.254 41.5723C151.351 41.5815 151.453 41.5861 151.558 41.5861H155.536C155.571 41.5861 155.605 41.5876 155.638 41.59C155.669 41.5924 155.7 41.5965 155.73 41.6019C155.761 41.6075 155.789 41.614 155.813 41.6207L155.813 41.6212C155.842 41.6296 155.869 41.6387 155.892 41.6483L155.893 41.6487C155.919 41.6594 155.944 41.6716 155.97 41.6853C155.998 41.7 156.022 41.7147 156.044 41.7292L156.103 41.7691V41.7745L156.12 41.7885C156.146 41.8094 156.171 41.8312 156.193 41.8532L156.194 41.8543C156.217 41.8772 156.238 41.9 156.256 41.9224C156.276 41.9453 156.294 41.9692 156.311 41.9937L156.314 41.9972C156.329 42.0198 156.344 42.0438 156.357 42.0686L156.358 42.0692C156.371 42.0935 156.383 42.1187 156.394 42.1444C156.405 42.1715 156.415 42.1979 156.422 42.2232C156.43 42.2494 156.437 42.2769 156.442 42.3059C156.447 42.3349 156.451 42.3652 156.454 42.3964C156.456 42.4291 156.458 42.4626 156.458 42.4968C156.458 42.5308 156.456 42.5643 156.454 42.5969C156.452 42.6287 156.447 42.6591 156.442 42.6883C156.437 42.717 156.43 42.7443 156.422 42.7699C156.414 42.7979 156.404 42.8248 156.394 42.8505C156.382 42.879 156.369 42.9048 156.357 42.9273C156.342 42.9537 156.327 42.9787 156.311 43.0019C156.294 43.028 156.274 43.0539 156.253 43.0789C156.233 43.1028 156.21 43.1267 156.186 43.15C156.162 43.1743 156.138 43.1961 156.116 43.2151C156.091 43.2362 156.066 43.2552 156.042 43.2718C156.015 43.2891 155.99 43.3046 155.967 43.3175C155.942 43.3309 155.916 43.3432 155.89 43.3538C155.865 43.3648 155.838 43.3744 155.811 43.3826C155.785 43.3903 155.757 43.397 155.728 43.4024C155.671 43.413 155.606 43.4183 155.536 43.4183H148.491V45.5643H155.536C155.642 45.5643 155.743 45.5597 155.84 45.5505C155.94 45.5411 156.04 45.5266 156.141 45.5074C156.237 45.4888 156.334 45.465 156.429 45.4364C156.526 45.4073 156.62 45.3737 156.711 45.3363C156.803 45.2981 156.894 45.2552 156.982 45.2079C157.048 45.1725 157.113 45.1343 157.176 45.0935L157.236 45.053C157.32 44.9959 157.402 44.9347 157.481 44.8696C157.557 44.8066 157.631 44.7396 157.702 44.6689L157.706 44.6636C157.777 44.5922 157.846 44.5165 157.912 44.437C157.978 44.3566 158.039 44.2762 158.093 44.1959L158.133 44.1366C158.175 44.0723 158.213 44.0076 158.248 43.9426C158.294 43.8556 158.337 43.765 158.376 43.6713C158.413 43.5806 158.447 43.4866 158.476 43.3897C158.505 43.2942 158.528 43.1979 158.547 43.1015C158.566 43.0007 158.581 42.9006 158.59 42.8015C158.599 42.7042 158.604 42.6026 158.604 42.4968C158.604 42.3914 158.599 42.2899 158.59 42.1928C158.581 42.0934 158.566 41.993 158.547 41.8921C158.528 41.7956 158.505 41.6994 158.476 41.604C158.447 41.507 158.413 41.4128 158.376 41.322C158.338 41.2294 158.295 41.1386 158.247 41.0501C158.201 40.9644 158.15 40.8798 158.094 40.7962C158.037 40.7131 157.977 40.6322 157.912 40.5539C157.846 40.4743 157.778 40.3987 157.706 40.3274C157.632 40.2541 157.556 40.1849 157.479 40.1205C157.401 40.0559 157.32 39.9954 157.237 39.9394C157.153 39.8828 157.068 39.8314 156.983 39.7857C156.896 39.739 156.805 39.696 156.711 39.6572C156.62 39.6197 156.526 39.5863 156.429 39.5573C156.333 39.5287 156.237 39.505 156.141 39.4865C156.04 39.4671 155.94 39.4526 155.84 39.4433C155.743 39.434 155.642 39.4293 155.536 39.4293H151.558C151.524 39.4293 151.489 39.4281 151.456 39.4255C151.426 39.4231 151.395 39.4191 151.365 39.4137C151.333 39.4078 151.305 39.4014 151.28 39.3943C151.251 39.3861 151.225 39.3769 151.2 39.3671C151.178 39.358 151.153 39.3458 151.127 39.331C151.1 39.3164 151.075 39.3007 151.051 39.2842C151.027 39.2679 151.001 39.2487 150.974 39.2268C150.949 39.2061 150.924 39.1843 150.902 39.1621L150.9 39.1605C150.877 39.137 150.855 39.1138 150.837 39.0914C150.817 39.0682 150.799 39.0441 150.782 39.0196C150.766 38.9954 150.75 38.9711 150.737 38.9468C150.724 38.9222 150.711 38.8968 150.701 38.871C150.69 38.8446 150.68 38.818 150.672 38.7916C150.664 38.7657 150.658 38.7383 150.652 38.7101C150.647 38.6807 150.643 38.6503 150.641 38.6188C150.638 38.5862 150.637 38.5526 150.637 38.5186C150.637 38.4845 150.638 38.451 150.641 38.4184C150.643 38.3889 150.647 38.3595 150.652 38.3306L150.653 38.3257C150.658 38.2961 150.664 38.269 150.672 38.2449C150.679 38.2202 150.689 38.1933 150.701 38.1655C150.711 38.1407 150.723 38.1152 150.737 38.0892C150.752 38.0628 150.767 38.0378 150.783 38.0143C150.799 37.9901 150.819 37.9644 150.841 37.9378C150.863 37.9115 150.886 37.8866 150.908 37.8636L150.909 37.8626C150.928 37.8432 150.952 37.8221 150.978 37.8C151.004 37.7788 151.029 37.7599 151.053 37.7436C151.077 37.7272 151.102 37.7118 151.128 37.6979C151.153 37.6844 151.179 37.672 151.205 37.6613C151.257 37.6396 151.314 37.6234 151.373 37.6129C151.431 37.6026 151.493 37.5974 151.558 37.5974H158.604V35.4509Z" fill="url(#paint1_linear_1898_36277)"/>
<defs>
<linearGradient id="paint0_linear_1898_36277" x1="14.2569" y1="47.3283" x2="50.0854" y2="39.0717" gradientUnits="userSpaceOnUse">
<stop stop-color="#FA93BF"/>
<stop offset="0.541176" stop-color="#6265E8"/>
<stop offset="1" stop-color="#10D6E3"/>
</linearGradient>
<linearGradient id="paint1_linear_1898_36277" x1="71.312" y1="44.0166" x2="142.588" y2="39.7563" gradientUnits="userSpaceOnUse">
<stop stop-color="#FA93BF"/>
<stop offset="0.560784" stop-color="#6265E8"/>
<stop offset="1" stop-color="#10D6E3"/>
</linearGradient>
</defs>
</svg>
