<svg width="87" height="82" viewBox="0 0 87 82" fill="none" xmlns="http://www.w3.org/2000/svg">
<path d="M43.0555 49.0062L35.5838 61.9667C40.3919 63.8653 45.742 63.8653 50.5501 61.9667L43.0785 49.0033L43.0555 49.0062ZM32.5779 67.1537L24.0947 81.8442L21.5399 80.37C14.9956 76.5911 9.56051 71.1571 5.78049 64.6134C1.9966 58.0673 0.00294661 50.6404 3.26381e-06 43.0794C-0.00294009 35.5185 1.98493 28.09 5.76372 21.541C9.54251 14.992 14.979 9.55343 21.5265 5.7721C28.074 1.99076 35.5017 0 43.0627 0C50.6236 0 58.0513 1.99076 64.5988 5.7721C71.1464 9.55343 76.5828 14.992 80.3616 21.541C84.1404 28.09 86.1283 35.5185 86.1253 43.0794C86.1224 50.6404 84.1287 58.0673 80.3449 64.6134C76.5677 71.1566 71.1344 76.59 64.5911 80.3671L62.022 81.8499L53.5359 67.1537C50.2295 68.5897 46.6632 69.3306 43.0584 69.3306C39.4536 69.3306 35.8872 68.5897 32.5808 67.1537H32.5779ZM43.0584 16.8407C48.2493 16.8407 53.3236 18.38 57.6397 21.2639C61.9557 24.1478 65.3197 28.2468 67.3062 33.0426C69.2926 37.8383 69.8124 43.1154 68.7997 48.2066C67.787 53.2978 65.2874 57.9743 61.6168 61.6448C60.6959 62.5639 59.7085 63.414 58.6626 64.188L64.1227 73.6541C68.6641 70.525 72.4514 66.4235 75.2095 61.6477C78.4647 56.0041 80.1773 49.6032 80.1753 43.0881C80.1733 36.5731 78.4567 30.1732 75.198 24.5317C71.9392 18.8901 67.2532 14.2055 61.6106 10.9486C55.9681 7.69162 49.5677 5.97701 43.0526 5.97701C36.5375 5.97701 30.1372 7.69162 24.4946 10.9486C18.852 14.2055 14.166 18.8901 10.9073 24.5317C7.64855 30.1732 5.93195 36.5731 5.92992 43.0881C5.92789 49.6032 7.6405 56.0041 10.8957 61.6477C13.6529 66.4241 17.4404 70.5258 21.9825 73.6541L27.4426 64.1708C26.3948 63.3948 25.4055 62.5429 24.4827 61.6218C20.8121 57.9513 18.3125 53.2748 17.2998 48.1836C16.2871 43.0925 16.8068 37.8153 18.7933 33.0196C20.7798 28.2238 24.1437 24.1248 28.4598 21.2409C32.7759 18.357 37.8502 16.8177 43.0411 16.8177L43.0584 16.8407ZM57.427 28.7264C55.4691 26.7819 53.1355 25.2568 50.5686 24.2443C48.0017 23.2318 45.2554 22.7531 42.4973 22.8374C39.7392 22.9218 37.0273 23.5673 34.527 24.7348C32.0268 25.9022 29.7907 27.5669 27.9553 29.6274C26.1199 31.6879 24.7237 34.1008 23.852 36.7188C22.9803 39.3369 22.6513 42.1052 22.8852 44.8546C23.119 47.604 23.9108 50.277 25.2122 52.7102C26.5136 55.1434 28.2972 57.2859 30.4542 59.0067L40.4835 41.6294H45.639L55.6682 59.0039C56.2802 58.5167 56.8645 57.9958 57.4183 57.4434C61.2251 53.6346 63.3636 48.47 63.3636 43.0849C63.3636 37.6998 61.2251 32.5352 57.4183 28.7264H57.427Z" fill="url(#paint0_linear_1898_36986)"/>
<defs>
<linearGradient id="paint0_linear_1898_36986" x1="-3.36938" y1="59.8408" x2="93.59" y2="37.4965" gradientUnits="userSpaceOnUse">
<stop stop-color="#FA93BF"/>
<stop offset="0.54" stop-color="#6265E8"/>
<stop offset="1" stop-color="#10D6E3"/>
</linearGradient>
</defs>
</svg>
