<svg width="60" height="60" viewBox="0 0 60 60" fill="none" xmlns="http://www.w3.org/2000/svg">
<path opacity="0.3" fill-rule="evenodd" clip-rule="evenodd" d="M0 30V44C0 52.8366 7.16344 60 16 60H30H44C52.8366 60 60 52.8366 60 44V30V16C60 7.16344 52.8366 0 44 0H30H16C7.16344 0 0 7.16344 0 16V30Z" fill="#FF9066"/>
<path d="M39.375 19.6875H20.625C19.88 19.6906 19.1664 19.9879 18.6397 20.5147C18.1129 21.0414 17.8156 21.755 17.8125 22.5V35.625C17.8156 36.37 18.1129 37.0836 18.6397 37.6103C19.1664 38.1371 19.88 38.4344 20.625 38.4375H29.0625V40.3125H26.25C26.0014 40.3125 25.7629 40.4113 25.5871 40.5871C25.4113 40.7629 25.3125 41.0014 25.3125 41.25C25.3125 41.4986 25.4113 41.7371 25.5871 41.9129C25.7629 42.0887 26.0014 42.1875 26.25 42.1875H33.75C33.9986 42.1875 34.2371 42.0887 34.4129 41.9129C34.5887 41.7371 34.6875 41.4986 34.6875 41.25C34.6875 41.0014 34.5887 40.7629 34.4129 40.5871C34.2371 40.4113 33.9986 40.3125 33.75 40.3125H30.9375V38.4375H39.375C40.12 38.4344 40.8336 38.1371 41.3603 37.6103C41.8871 37.0836 42.1844 36.37 42.1875 35.625V22.5C42.1844 21.755 41.8871 21.0414 41.3603 20.5147C40.8336 19.9879 40.12 19.6906 39.375 19.6875ZM39.375 36.5625H20.625C20.3764 36.5625 20.1379 36.4637 19.9621 36.2879C19.7863 36.1121 19.6875 35.8736 19.6875 35.625V33.75H40.3125V35.625C40.3125 35.8736 40.2137 36.1121 40.0379 36.2879C39.8621 36.4637 39.6236 36.5625 39.375 36.5625Z" fill="#FC946D"/>
</svg>
