<svg width="24" height="24" viewBox="0 0 24 24" fill="none" xmlns="http://www.w3.org/2000/svg">
<path d="M9.00003 21.75H15C15.4142 21.75 15.75 21.4142 15.75 21C15.75 20.5858 15.4142 20.25 15 20.25H9.00003C8.58582 20.25 8.25003 20.5858 8.25003 21C8.25003 21.4142 8.58582 21.75 9.00003 21.75Z" fill="#A39FA4"/>
<path fill-rule="evenodd" clip-rule="evenodd" d="M4.51879 10.5V9.74996C4.51879 9.74996 4.51669 8.25425 5.08994 6.87161C5.08994 6.87161 5.66319 5.48898 6.72376 4.43281C6.72376 4.43281 7.78434 3.37664 9.16934 2.80914C9.16934 2.80914 10.5544 2.24164 12.0511 2.24997C12.0511 2.24997 13.573 2.2615 14.9589 2.86949C14.9589 2.86949 16.2922 3.45445 17.3187 4.50882C17.3187 4.50882 18.3411 5.55907 18.9019 6.91333C18.9019 6.91333 19.4813 8.3127 19.4813 9.83433V10.5C19.4813 10.5 19.4813 14.3903 20.7022 16.4992C20.7022 16.4992 20.9033 16.8474 20.9037 17.2486C20.9037 17.2486 20.904 17.6499 20.704 17.9977C20.704 17.9977 20.504 18.3455 20.1571 18.547C20.1571 18.547 19.8102 18.7485 19.4089 18.75L4.59379 18.75C4.59379 18.75 4.18993 18.7485 3.843 18.547C3.843 18.547 3.49607 18.3455 3.29608 17.9977C3.29608 17.9977 3.09608 17.6499 3.09644 17.2486C3.09644 17.2486 3.09679 16.8474 3.2974 16.5C3.2974 16.5 4.51879 14.3903 4.51879 10.5ZM6.0188 10.5C6.0188 10.5 6.0188 14.7932 4.59644 17.25L19.4037 17.25C19.4037 17.25 17.9813 14.7925 17.9813 10.5V9.83433C17.9813 9.83433 17.9813 7.33979 16.2439 5.55516C16.2439 5.55516 14.5046 3.7686 12.0427 3.74995C12.0427 3.74995 10.8457 3.74329 9.73807 4.19714C9.73807 4.19714 8.63041 4.651 7.78222 5.49567C7.78222 5.49567 6.93403 6.34034 6.47557 7.4461C6.47557 7.4461 6.01711 8.55187 6.0188 9.74996V10.5Z" fill="#A39FA4"/>
<circle cx="18" cy="4" r="4" fill="#6265E8"/>
</svg>
