<svg width="24" height="24" viewBox="0 0 24 24" fill="none" xmlns="http://www.w3.org/2000/svg">
<path d="M3.0385 16.8462C3.1749 16.8463 3.30999 16.8196 3.43601 16.7674C3.56203 16.7152 3.67649 16.6386 3.77282 16.542L9.61543 10.6994L11.9965 13.0805C12.0929 13.1769 12.2074 13.2534 12.3334 13.3056C12.4594 13.3578 12.5944 13.3847 12.7308 13.3847C12.8672 13.3847 13.0022 13.3578 13.1282 13.3056C13.2542 13.2534 13.3687 13.1769 13.4651 13.0805L19.9997 6.54596L19.9993 8.88462C19.9993 9.16004 20.1087 9.42417 20.3034 9.61892C20.4982 9.81367 20.7623 9.92308 21.0377 9.92308C21.3132 9.92308 21.5773 9.81367 21.772 9.61892C21.9668 9.42417 22.0762 9.16004 22.0762 8.88462L22.077 4.03846C22.077 3.76305 21.9676 3.49891 21.7728 3.30416C21.5781 3.10941 21.3139 3 21.0385 3H16.1924C15.9169 3 15.6528 3.10941 15.4581 3.30416C15.2633 3.49891 15.1539 3.76305 15.1539 4.03846C15.1539 4.31388 15.2633 4.57802 15.4581 4.77277C15.6528 4.96752 15.9169 5.07692 16.1924 5.07692H18.5315L12.7308 10.8776L10.3498 8.49645C10.2533 8.40002 10.1388 8.32352 10.0128 8.27133C9.88685 8.21914 9.75181 8.19227 9.61543 8.19227C9.47905 8.19227 9.34401 8.21914 9.21801 8.27133C9.09202 8.32352 8.97754 8.40002 8.88111 8.49645L2.30418 15.0734C2.15894 15.2186 2.06003 15.4037 2.01996 15.6051C1.97988 15.8065 2.00045 16.0154 2.07905 16.2051C2.15765 16.3949 2.29076 16.5571 2.46154 16.6712C2.63232 16.7853 2.83311 16.8462 3.0385 16.8462Z" fill="#A39FA4"/>
<path d="M21.0385 18.923H3.03846C2.76305 18.923 2.49891 19.0324 2.30416 19.2271C2.10941 19.4219 2 19.686 2 19.9614C2 20.2369 2.10941 20.501 2.30416 20.6957C2.49891 20.8905 2.76305 20.9999 3.03846 20.9999H21.0385C21.3139 20.9999 21.578 20.8905 21.7728 20.6957C21.9675 20.501 22.0769 20.2369 22.0769 19.9614C22.0769 19.686 21.9675 19.4219 21.7728 19.2271C21.578 19.0324 21.3139 18.923 21.0385 18.923Z" fill="#A39FA4"/>
</svg>
