<svg width="60" height="39" viewBox="0 0 60 39" fill="none" xmlns="http://www.w3.org/2000/svg">
<path d="M25.3687 7.96882C25.3144 7.83189 25.3005 7.68221 25.3287 7.53761C25.357 7.39301 25.4262 7.25958 25.5281 7.15319L29.4656 3.21569C29.6078 3.07486 29.7999 2.99585 30 2.99585C30.2001 2.99585 30.3922 3.07486 30.5344 3.21569L34.4719 7.15319C34.5738 7.25958 34.643 7.39301 34.6713 7.53761C34.6995 7.68221 34.6856 7.83189 34.6312 7.96882C34.5753 8.10707 34.4794 8.22552 34.3559 8.30901C34.2323 8.39251 34.0866 8.43727 33.9375 8.43757H30.75V14.2501C30.75 14.449 30.671 14.6397 30.5303 14.7804C30.3897 14.9211 30.1989 15.0001 30 15.0001C29.8011 15.0001 29.6103 14.9211 29.4697 14.7804C29.329 14.6397 29.25 14.449 29.25 14.2501V8.43757H26.0625C25.9134 8.43727 25.7677 8.39251 25.6441 8.30901C25.5206 8.22552 25.4247 8.10707 25.3687 7.96882ZM38.25 13.5001C38.0511 13.5001 37.8603 13.5791 37.7197 13.7197C37.579 13.8604 37.5 14.0512 37.5 14.2501V19.5001H22.5V14.2501C22.5 14.0512 22.421 13.8604 22.2803 13.7197C22.1397 13.5791 21.9489 13.5001 21.75 13.5001C21.5511 13.5001 21.3603 13.5791 21.2197 13.7197C21.079 13.8604 21 14.0512 21 14.2501V19.5001C21 19.8979 21.158 20.2794 21.4393 20.5607C21.7206 20.842 22.1022 21.0001 22.5 21.0001H37.5C37.8978 21.0001 38.2794 20.842 38.5607 20.5607C38.842 20.2794 39 19.8979 39 19.5001V14.2501C39 14.0512 38.921 13.8604 38.7803 13.7197C38.6397 13.5791 38.4489 13.5001 38.25 13.5001Z" fill="#868686"/>
<path d="M4.416 35.076C4.772 35.076 5.09 35.016 5.37 34.896C5.65 34.776 5.886 34.608 6.078 34.392C6.274 34.176 6.422 33.918 6.522 33.618C6.626 33.318 6.678 32.988 6.678 32.628V27.402H7.836V32.628C7.836 33.124 7.756 33.584 7.596 34.008C7.44 34.432 7.214 34.8 6.918 35.112C6.626 35.42 6.268 35.662 5.844 35.838C5.42 36.014 4.944 36.102 4.416 36.102C3.888 36.102 3.412 36.014 2.988 35.838C2.564 35.662 2.204 35.42 1.908 35.112C1.612 34.8 1.384 34.432 1.224 34.008C1.068 33.584 0.99 33.124 0.99 32.628V27.402H2.148V32.622C2.148 32.982 2.198 33.312 2.298 33.612C2.402 33.912 2.55 34.17 2.742 34.386C2.938 34.602 3.176 34.772 3.456 34.896C3.74 35.016 4.06 35.076 4.416 35.076ZM10.5684 34.536C10.7644 34.8 10.9784 34.986 11.2104 35.094C11.4424 35.202 11.7024 35.256 11.9904 35.256C12.5584 35.256 12.9944 35.054 13.2984 34.65C13.6024 34.246 13.7544 33.67 13.7544 32.922C13.7544 32.526 13.7184 32.186 13.6464 31.902C13.5784 31.618 13.4784 31.386 13.3464 31.206C13.2144 31.022 13.0524 30.888 12.8604 30.804C12.6684 30.72 12.4504 30.678 12.2064 30.678C11.8584 30.678 11.5524 30.758 11.2884 30.918C11.0284 31.078 10.7884 31.304 10.5684 31.596V34.536ZM10.5144 30.864C10.7704 30.548 11.0664 30.294 11.4024 30.102C11.7384 29.91 12.1224 29.814 12.5544 29.814C12.9064 29.814 13.2244 29.882 13.5084 30.018C13.7924 30.15 14.0344 30.348 14.2344 30.612C14.4344 30.872 14.5884 31.196 14.6964 31.584C14.8044 31.972 14.8584 32.418 14.8584 32.922C14.8584 33.37 14.7984 33.788 14.6784 34.176C14.5584 34.56 14.3844 34.894 14.1564 35.178C13.9324 35.458 13.6564 35.68 13.3284 35.844C13.0044 36.004 12.6384 36.084 12.2304 36.084C11.8584 36.084 11.5384 36.022 11.2704 35.898C11.0064 35.77 10.7724 35.594 10.5684 35.37V38.058H9.49444V29.922H10.1364C10.2884 29.922 10.3824 29.996 10.4184 30.144L10.5144 30.864ZM17.325 27.162V36H16.257V27.162H17.325ZM21.6189 29.826C22.0629 29.826 22.4629 29.9 22.8189 30.048C23.1749 30.196 23.4789 30.406 23.7309 30.678C23.9829 30.95 24.1749 31.28 24.3069 31.668C24.4429 32.052 24.5109 32.482 24.5109 32.958C24.5109 33.438 24.4429 33.87 24.3069 34.254C24.1749 34.638 23.9829 34.966 23.7309 35.238C23.4789 35.51 23.1749 35.72 22.8189 35.868C22.4629 36.012 22.0629 36.084 21.6189 36.084C21.1709 36.084 20.7669 36.012 20.4069 35.868C20.0509 35.72 19.7469 35.51 19.4949 35.238C19.2429 34.966 19.0489 34.638 18.9129 34.254C18.7809 33.87 18.7149 33.438 18.7149 32.958C18.7149 32.482 18.7809 32.052 18.9129 31.668C19.0489 31.28 19.2429 30.95 19.4949 30.678C19.7469 30.406 20.0509 30.196 20.4069 30.048C20.7669 29.9 21.1709 29.826 21.6189 29.826ZM21.6189 35.25C22.2189 35.25 22.6669 35.05 22.9629 34.65C23.2589 34.246 23.4069 33.684 23.4069 32.964C23.4069 32.24 23.2589 31.676 22.9629 31.272C22.6669 30.868 22.2189 30.666 21.6189 30.666C21.3149 30.666 21.0489 30.718 20.8209 30.822C20.5969 30.926 20.4089 31.076 20.2569 31.272C20.1089 31.468 19.9969 31.71 19.9209 31.998C19.8489 32.282 19.8129 32.604 19.8129 32.964C19.8129 33.684 19.9609 34.246 20.2569 34.65C20.5569 35.05 21.0109 35.25 21.6189 35.25ZM29.1595 33.264C28.6675 33.28 28.2475 33.32 27.8995 33.384C27.5555 33.444 27.2735 33.524 27.0535 33.624C26.8375 33.724 26.6795 33.842 26.5795 33.978C26.4835 34.114 26.4355 34.266 26.4355 34.434C26.4355 34.594 26.4615 34.732 26.5135 34.848C26.5655 34.964 26.6355 35.06 26.7235 35.136C26.8155 35.208 26.9215 35.262 27.0415 35.298C27.1655 35.33 27.2975 35.346 27.4375 35.346C27.6255 35.346 27.7975 35.328 27.9535 35.292C28.1095 35.252 28.2555 35.196 28.3915 35.124C28.5315 35.052 28.6635 34.966 28.7875 34.866C28.9155 34.766 29.0395 34.652 29.1595 34.524V33.264ZM25.7095 30.78C26.0455 30.456 26.4075 30.214 26.7955 30.054C27.1835 29.894 27.6135 29.814 28.0855 29.814C28.4255 29.814 28.7275 29.87 28.9915 29.982C29.2555 30.094 29.4775 30.25 29.6575 30.45C29.8375 30.65 29.9735 30.892 30.0655 31.176C30.1575 31.46 30.2035 31.772 30.2035 32.112V36H29.7295C29.6255 36 29.5455 35.984 29.4895 35.952C29.4335 35.916 29.3895 35.848 29.3575 35.748L29.2375 35.172C29.0775 35.32 28.9215 35.452 28.7695 35.568C28.6175 35.68 28.4575 35.776 28.2895 35.856C28.1215 35.932 27.9415 35.99 27.7495 36.03C27.5615 36.074 27.3515 36.096 27.1195 36.096C26.8835 36.096 26.6615 36.064 26.4535 36C26.2455 35.932 26.0635 35.832 25.9075 35.7C25.7555 35.568 25.6335 35.402 25.5415 35.202C25.4535 34.998 25.4095 34.758 25.4095 34.482C25.4095 34.242 25.4755 34.012 25.6075 33.792C25.7395 33.568 25.9535 33.37 26.2495 33.198C26.5455 33.026 26.9315 32.886 27.4075 32.778C27.8835 32.666 28.4675 32.602 29.1595 32.586V32.112C29.1595 31.64 29.0575 31.284 28.8535 31.044C28.6495 30.8 28.3515 30.678 27.9595 30.678C27.6955 30.678 27.4735 30.712 27.2935 30.78C27.1175 30.844 26.9635 30.918 26.8315 31.002C26.7035 31.082 26.5915 31.156 26.4955 31.224C26.4035 31.288 26.3115 31.32 26.2195 31.32C26.1475 31.32 26.0855 31.302 26.0335 31.266C25.9815 31.226 25.9375 31.178 25.9015 31.122L25.7095 30.78ZM35.7904 31.368C35.5904 31.1 35.3744 30.914 35.1424 30.81C34.9104 30.702 34.6504 30.648 34.3624 30.648C33.7984 30.648 33.3644 30.85 33.0604 31.254C32.7564 31.658 32.6044 32.234 32.6044 32.982C32.6044 33.378 32.6384 33.718 32.7064 34.002C32.7744 34.282 32.8744 34.514 33.0064 34.698C33.1384 34.878 33.3004 35.01 33.4924 35.094C33.6844 35.178 33.9024 35.22 34.1464 35.22C34.4984 35.22 34.8044 35.14 35.0644 34.98C35.3284 34.82 35.5704 34.594 35.7904 34.302V31.368ZM36.8584 27.162V36H36.2224C36.0704 36 35.9744 35.926 35.9344 35.778L35.8384 35.04C35.5784 35.352 35.2824 35.604 34.9504 35.796C34.6184 35.988 34.2344 36.084 33.7984 36.084C33.4504 36.084 33.1344 36.018 32.8504 35.886C32.5664 35.75 32.3244 35.552 32.1244 35.292C31.9244 35.032 31.7704 34.708 31.6624 34.32C31.5544 33.932 31.5004 33.486 31.5004 32.982C31.5004 32.534 31.5604 32.118 31.6804 31.734C31.8004 31.346 31.9724 31.01 32.1964 30.726C32.4204 30.442 32.6944 30.22 33.0184 30.06C33.3464 29.896 33.7144 29.814 34.1224 29.814C34.4944 29.814 34.8124 29.878 35.0764 30.006C35.3444 30.13 35.5824 30.304 35.7904 30.528V27.162H36.8584ZM43.0315 28.35V31.356H46.5655V32.304H43.0315V36H41.8675V27.402H47.1655V28.35H43.0315ZM49.5053 29.922V36H48.4373V29.922H49.5053ZM49.7333 28.014C49.7333 28.118 49.7113 28.216 49.6673 28.308C49.6273 28.396 49.5713 28.476 49.4993 28.548C49.4313 28.616 49.3493 28.67 49.2533 28.71C49.1612 28.75 49.0633 28.77 48.9593 28.77C48.8553 28.77 48.7573 28.75 48.6653 28.71C48.5773 28.67 48.4993 28.616 48.4313 28.548C48.3633 28.476 48.3093 28.396 48.2693 28.308C48.2293 28.216 48.2093 28.118 48.2093 28.014C48.2093 27.91 48.2293 27.812 48.2693 27.72C48.3093 27.624 48.3633 27.542 48.4313 27.474C48.4993 27.402 48.5773 27.346 48.6653 27.306C48.7573 27.266 48.8553 27.246 48.9593 27.246C49.0633 27.246 49.1612 27.266 49.2533 27.306C49.3493 27.346 49.4313 27.402 49.4993 27.474C49.5713 27.542 49.6273 27.624 49.6673 27.72C49.7113 27.812 49.7333 27.91 49.7333 28.014ZM52.3641 27.162V36H51.2961V27.162H52.3641ZM58.164 32.298C58.164 32.05 58.128 31.824 58.056 31.62C57.988 31.412 57.886 31.234 57.75 31.086C57.618 30.934 57.456 30.818 57.264 30.738C57.072 30.654 56.854 30.612 56.61 30.612C56.098 30.612 55.692 30.762 55.392 31.062C55.096 31.358 54.912 31.77 54.84 32.298H58.164ZM59.028 35.148C58.896 35.308 58.738 35.448 58.554 35.568C58.37 35.684 58.172 35.78 57.96 35.856C57.752 35.932 57.536 35.988 57.312 36.024C57.088 36.064 56.866 36.084 56.646 36.084C56.226 36.084 55.838 36.014 55.482 35.874C55.13 35.73 54.824 35.522 54.564 35.25C54.308 34.974 54.108 34.634 53.964 34.23C53.82 33.826 53.748 33.362 53.748 32.838C53.748 32.414 53.812 32.018 53.94 31.65C54.072 31.282 54.26 30.964 54.504 30.696C54.748 30.424 55.046 30.212 55.398 30.06C55.75 29.904 56.146 29.826 56.586 29.826C56.95 29.826 57.286 29.888 57.594 30.012C57.906 30.132 58.174 30.308 58.398 30.54C58.626 30.768 58.804 31.052 58.932 31.392C59.06 31.728 59.124 32.112 59.124 32.544C59.124 32.712 59.106 32.824 59.07 32.88C59.034 32.936 58.966 32.964 58.866 32.964H54.804C54.816 33.348 54.868 33.682 54.96 33.966C55.056 34.25 55.188 34.488 55.356 34.68C55.524 34.868 55.724 35.01 55.956 35.106C56.188 35.198 56.448 35.244 56.736 35.244C57.004 35.244 57.234 35.214 57.426 35.154C57.622 35.09 57.79 35.022 57.93 34.95C58.07 34.878 58.186 34.812 58.278 34.752C58.374 34.688 58.456 34.656 58.524 34.656C58.612 34.656 58.68 34.69 58.728 34.758L59.028 35.148Z" fill="#A39FA4"/>
</svg>
