<svg width="24" height="24" viewBox="0 0 24 24" fill="none" xmlns="http://www.w3.org/2000/svg">
<path fill-rule="evenodd" clip-rule="evenodd" d="M2.46509 3.73256C2.46509 3.32798 2.79307 3 3.19765 3H10.5232C10.9278 3 11.2558 3.32798 11.2558 3.73256V20.3372C11.2558 20.7418 10.9278 21.0698 10.5232 21.0698H3.19765C2.79307 21.0698 2.46509 20.7418 2.46509 20.3372V10.9639C2.46509 10.5593 2.79307 10.2313 3.19765 10.2313C3.60222 10.2313 3.9302 10.5593 3.9302 10.9639V19.6047H9.79067V4.46512H3.9302V7.1446C3.9302 7.54919 3.60222 7.87716 3.19765 7.87716C2.79307 7.87716 2.46509 7.54919 2.46509 7.1446V3.73256Z" fill="#A39FA4"/>
<path fill-rule="evenodd" clip-rule="evenodd" d="M5.3954 9.10461C4.99082 9.10461 4.66284 8.77663 4.66284 8.37205V5.93019C4.66284 5.52561 4.99082 5.19763 5.3954 5.19763C5.79998 5.19763 6.12796 5.52561 6.12796 5.93019V8.37205C6.12796 8.77663 5.79998 9.10461 5.3954 9.10461Z" fill="#A39FA4"/>
<path fill-rule="evenodd" clip-rule="evenodd" d="M5.3954 13.9884C4.99082 13.9884 4.66284 13.6604 4.66284 13.2558V10.814C4.66284 10.4094 4.99082 10.0814 5.3954 10.0814C5.79998 10.0814 6.12796 10.4094 6.12796 10.814V13.2558C6.12796 13.6604 5.79998 13.9884 5.3954 13.9884Z" fill="#A39FA4"/>
<path fill-rule="evenodd" clip-rule="evenodd" d="M7.83729 9.10461C7.43272 9.10461 7.10474 8.77663 7.10474 8.37205V5.93019C7.10474 5.52561 7.43272 5.19763 7.83729 5.19763C8.24187 5.19763 8.56985 5.52561 8.56985 5.93019V8.37205C8.56985 8.77663 8.24187 9.10461 7.83729 9.10461Z" fill="#A39FA4"/>
<path fill-rule="evenodd" clip-rule="evenodd" d="M7.83729 13.9884C7.43272 13.9884 7.10474 13.6604 7.10474 13.2558V10.814C7.10474 10.4094 7.43272 10.0814 7.83729 10.0814C8.24187 10.0814 8.56985 10.4094 8.56985 10.814V13.2558C8.56985 13.6604 8.24187 13.9884 7.83729 13.9884Z" fill="#A39FA4"/>
<path fill-rule="evenodd" clip-rule="evenodd" d="M1 20.3372C1 19.9326 1.32798 19.6046 1.73256 19.6046H21.2674C21.672 19.6046 22 19.9326 22 20.3372C22 20.7417 21.672 21.0697 21.2674 21.0697H1.73256C1.32798 21.0697 1 20.7417 1 20.3372Z" fill="#A39FA4"/>
<path fill-rule="evenodd" clip-rule="evenodd" d="M9.79077 12.5232C9.79077 12.1186 10.1188 11.7906 10.5233 11.7906H19.314C19.7186 11.7906 20.0466 12.1186 20.0466 12.5232V20.3372C20.0466 20.7417 19.7186 21.0697 19.314 21.0697H10.5233C10.1188 21.0697 9.79077 20.7417 9.79077 20.3372V12.5232ZM11.2559 13.2558V19.6046H18.5815V13.2558H11.2559Z" fill="#A39FA4"/>
<path fill-rule="evenodd" clip-rule="evenodd" d="M16.3837 21.0697C15.9791 21.0697 15.6511 20.7417 15.6511 20.3372V12.5232C15.6511 12.1186 15.9791 11.7906 16.3837 11.7906C16.7882 11.7906 17.1162 12.1186 17.1162 12.5232V20.3372C17.1162 20.7417 16.7882 21.0697 16.3837 21.0697Z" fill="#A39FA4"/>
<path fill-rule="evenodd" clip-rule="evenodd" d="M13.4535 21.0697C13.0489 21.0697 12.7209 20.7417 12.7209 20.3372V12.5232C12.7209 12.1186 13.0489 11.7906 13.4535 11.7906C13.8581 11.7906 14.1861 12.1186 14.1861 12.5232V20.3372C14.1861 20.7417 13.8581 21.0697 13.4535 21.0697Z" fill="#A39FA4"/>
</svg>
