<svg width="40" height="40" viewBox="0 0 40 40" fill="none" xmlns="http://www.w3.org/2000/svg">
<rect width="40" height="40" rx="20" fill="#DDDEFF"/>
<path d="M33.244 26.3516H6.6665V27.6673H33.244V26.3516Z" fill="#6265E8"/>
<path d="M27.6522 13.9844H12.2583L6.6665 26.3521H33.244L27.6522 13.9844Z" fill="#6265E8"/>
<path opacity="0.3" d="M27.6522 13.9844H12.2583L6.6665 26.3521H33.244L27.6522 13.9844Z" fill="white"/>
<g opacity="0.2">
<path d="M10.4883 17.8986H29.4214L28.6781 16.2539H11.2317L10.4883 17.8986Z" fill="white"/>
<path d="M30.8204 20.9903L30.077 19.3457H9.83469L9.09131 20.9903H30.8204Z" fill="white"/>
<path d="M32.2178 24.0812L31.4745 22.4365H8.43625L7.69287 24.0812H32.2178Z" fill="white"/>
</g>
<path d="M11.6242 26.3521L13.3141 20.1238H26.5963L28.2862 26.3545H28.3881L26.681 20.0613L26.6711 20.0251H23.6285C23.5668 19.2085 21.9765 18.5762 19.956 18.5762C17.9356 18.5762 16.3452 19.2085 16.2835 20.0251H13.2409L11.5239 26.357L11.6242 26.3521ZM19.9536 18.6724C21.8835 18.6724 23.4616 19.2735 23.5282 20.0226H16.3806C16.4472 19.2735 18.0252 18.6724 19.9536 18.6724Z" fill="#6265E8"/>
<path d="M16.1425 23.2637L15.7231 26.3515H15.8226L16.2281 23.3624H23.6816L24.087 26.3515H24.1865L23.7671 23.2637H16.1425Z" fill="#6265E8"/>
<path d="M12.009 14.5316H16.7826C16.8369 15.1491 18.2102 15.6277 19.9551 15.6277C21.7001 15.6277 23.0734 15.1491 23.1277 14.5316H27.8971L27.8626 14.4559H23.1268C23.1112 14.2915 22.9986 14.127 22.7979 13.9814H22.6589C22.8991 14.1286 23.0323 14.2915 23.0504 14.4559H16.8599C16.878 14.2915 17.0112 14.127 17.2513 13.9814H17.1157C16.9117 14.127 16.7991 14.289 16.7867 14.4559H12.0436L12.009 14.5316ZM23.0512 14.5316C22.9928 15.0973 21.6269 15.5521 19.9551 15.5521C18.2834 15.5521 16.9175 15.0973 16.8591 14.5316H23.0512Z" fill="#6265E8"/>
<path opacity="0.6" d="M12.009 14.5316H16.7826C16.8369 15.1491 18.2102 15.6277 19.9551 15.6277C21.7001 15.6277 23.0734 15.1491 23.1277 14.5316H27.8971L27.8626 14.4559H23.1268C23.1112 14.2915 22.9986 14.127 22.7979 13.9814H22.6589C22.8991 14.1286 23.0323 14.2915 23.0504 14.4559H16.8599C16.878 14.2915 17.0112 14.127 17.2513 13.9814H17.1157C16.9117 14.127 16.7991 14.289 16.7867 14.4559H12.0436L12.009 14.5316ZM23.0512 14.5316C22.9928 15.0973 21.6269 15.5521 19.9551 15.5521C18.2834 15.5521 16.9175 15.0973 16.8591 14.5316H23.0512Z" fill="white"/>
<g opacity="0.6">
<path d="M11.6242 26.3521L13.3141 20.1238H26.5963L28.2862 26.3545H28.3881L26.681 20.0613L26.6711 20.0251H23.6285C23.5668 19.2085 21.9765 18.5762 19.956 18.5762C17.9356 18.5762 16.3452 19.2085 16.2835 20.0251H13.2409L11.5239 26.357L11.6242 26.3521ZM19.9536 18.6724C21.8835 18.6724 23.4616 19.2735 23.5282 20.0226H16.3806C16.4472 19.2735 18.0252 18.6724 19.9536 18.6724Z" fill="white"/>
<path d="M16.1425 23.2646L15.7231 26.3525H15.8226L16.2281 23.3633H23.6816L24.087 26.3525H24.1865L23.7671 23.2646H16.1425Z" fill="white"/>
</g>
<path d="M19.3585 23.5429C19.2762 23.6169 19.2762 23.8127 19.2762 23.8127H18.9744C18.9695 23.0569 19.1989 23.0117 19.1989 23.0117L19.291 23.1548L19.3585 23.4122V23.5429Z" fill="#6265E8"/>
<path opacity="0.9" d="M19.3585 23.5429C19.2762 23.6169 19.2762 23.8127 19.2762 23.8127H18.9744C18.9695 23.0569 19.1989 23.0117 19.1989 23.0117L19.291 23.1548L19.3585 23.4122V23.5429Z" fill="white"/>
<path d="M19.2826 23.7539L18.9758 23.7383C18.9758 23.763 18.9758 23.7868 18.9758 23.8131H19.2793C19.2793 23.8131 19.2793 23.7884 19.2826 23.7539Z" fill="#6265E8"/>
<path opacity="0.7" d="M19.2826 23.7539L18.9758 23.7383C18.9758 23.763 18.9758 23.7868 18.9758 23.8131H19.2793C19.2793 23.8131 19.2793 23.7884 19.2826 23.7539Z" fill="white"/>
<path d="M20.5525 23.5429C20.6347 23.6169 20.6347 23.8127 20.6347 23.8127H20.9406C20.9456 23.0569 20.717 23.0117 20.717 23.0117L20.5525 23.2954V23.5429Z" fill="#6265E8"/>
<path opacity="0.9" d="M20.5525 23.5429C20.6347 23.6169 20.6347 23.8127 20.6347 23.8127H20.9406C20.9456 23.0569 20.717 23.0117 20.717 23.0117L20.5525 23.2954V23.5429Z" fill="white"/>
<path d="M20.6282 23.7539L20.9349 23.7383C20.9349 23.763 20.9349 23.7868 20.9349 23.8131H20.6315C20.6314 23.7933 20.6303 23.7736 20.6282 23.7539Z" fill="#6265E8"/>
<path opacity="0.7" d="M20.6282 23.7539L20.9349 23.7383C20.9349 23.763 20.9349 23.7868 20.9349 23.8131H20.6315C20.6314 23.7933 20.6303 23.7736 20.6282 23.7539Z" fill="white"/>
<path d="M20.7171 23.0111L19.9646 22.8359H19.9441L19.1917 23.0111C19.1917 23.0111 19.5395 23.6689 19.3561 24.9419C19.3561 24.9419 19.5518 25.0907 19.94 25.0907H19.9605C20.3487 25.0907 20.5435 24.9419 20.5435 24.9419C20.3692 23.6681 20.7171 23.0111 20.7171 23.0111Z" fill="#6265E8"/>
<path opacity="0.8" d="M20.7171 23.0111L19.9646 22.8359H19.9441L19.1917 23.0111C19.1917 23.0111 19.5395 23.6689 19.3561 24.9419C19.3561 24.9419 19.5518 25.0907 19.94 25.0907H19.9605C20.3487 25.0907 20.5435 24.9419 20.5435 24.9419C20.3692 23.6681 20.7171 23.0111 20.7171 23.0111Z" fill="#1A0F1C"/>
<path d="M19.2385 23.1237C19.2451 23.1402 19.2517 23.1591 19.2591 23.1804C19.4365 23.1395 19.6073 23.0739 19.7665 22.9856L19.736 22.9346C19.5797 23.0201 19.4123 23.0838 19.2385 23.1237Z" fill="#6265E8"/>
<path d="M20.1728 22.9346L20.1423 22.9856C20.3015 23.0739 20.4723 23.1395 20.6497 23.1804C20.6571 23.1591 20.6637 23.1402 20.6703 23.1237C20.4965 23.084 20.329 23.0204 20.1728 22.9346Z" fill="#6265E8"/>
<g opacity="0.2">
<path d="M19.2385 23.1237C19.2451 23.1402 19.2517 23.1591 19.2591 23.1804C19.4365 23.1395 19.6073 23.0739 19.7665 22.9856L19.736 22.9346C19.5797 23.0201 19.4123 23.0838 19.2385 23.1237Z" fill="#1A0F1C"/>
<path d="M20.1728 22.9346L20.1423 22.9856C20.3015 23.0739 20.4723 23.1395 20.6497 23.1804C20.6571 23.1591 20.6637 23.1402 20.6703 23.1237C20.4965 23.084 20.329 23.0204 20.1728 22.9346Z" fill="#1A0F1C"/>
</g>
<path d="M19.6974 22.7734H20.2154V22.8869L20.1258 22.9749L19.9515 23.0185C19.9515 23.0185 19.9251 23.1007 19.8133 22.9872L19.7072 22.8696L19.6965 22.8113L19.6974 22.7734Z" fill="#6265E8"/>
<path opacity="0.7" d="M19.6974 22.7734H20.2154V22.8869L20.1258 22.9749L19.9515 23.0185C19.9515 23.0185 19.9251 23.1007 19.8133 22.9872L19.7072 22.8696L19.6965 22.8113L19.6974 22.7734Z" fill="white"/>
<path opacity="0.4" d="M19.6974 22.7734H20.2154V22.8869L20.1258 22.9749L19.9515 23.0185C19.9515 23.0185 19.9251 23.1007 19.8133 22.9872L19.7072 22.8696L19.6965 22.8113L19.6974 22.7734Z" fill="#1A0F1C"/>
<path d="M19.9831 23.0752C20.1558 23.0752 20.2709 22.9034 20.2709 22.9034L20.215 22.7734C20.1923 22.8208 20.16 22.8628 20.12 22.8968C20.0801 22.9308 20.0334 22.956 19.9831 22.9708H19.9288C19.8786 22.9559 19.8319 22.9306 19.792 22.8967C19.7521 22.8627 19.7197 22.8207 19.6969 22.7734L19.6418 22.9034C19.6742 22.9513 19.7166 22.9915 19.7662 23.0212C19.8158 23.0509 19.8713 23.0693 19.9288 23.0752H19.9831Z" fill="#6265E8"/>
<path d="M20.1219 23.458L19.9804 24.1677H19.816L19.9319 23.592H19.7888L19.8151 23.4605L20.1219 23.458Z" fill="white"/>
<path d="M20.793 25.1655H19.1179C19.0798 25.1683 19.0442 25.1854 19.0182 25.2134C18.9922 25.2414 18.9778 25.2781 18.9778 25.3163C18.9778 25.3545 18.9922 25.3913 19.0182 25.4193C19.0442 25.4473 19.0798 25.4644 19.1179 25.4672H20.793C20.8138 25.4688 20.8346 25.466 20.8542 25.4591C20.8739 25.4522 20.8919 25.4414 20.9071 25.4272C20.9224 25.413 20.9345 25.3959 20.9429 25.3768C20.9512 25.3577 20.9555 25.3372 20.9555 25.3163C20.9555 25.2955 20.9512 25.275 20.9429 25.2559C20.9345 25.2368 20.9224 25.2196 20.9071 25.2055C20.8919 25.1913 20.8739 25.1805 20.8542 25.1736C20.8346 25.1667 20.8138 25.1639 20.793 25.1655Z" fill="#6265E8"/>
<path opacity="0.9" d="M20.793 25.1655H19.1179C19.0798 25.1683 19.0442 25.1854 19.0182 25.2134C18.9922 25.2414 18.9778 25.2781 18.9778 25.3163C18.9778 25.3545 18.9922 25.3913 19.0182 25.4193C19.0442 25.4473 19.0798 25.4644 19.1179 25.4672H20.793C20.8138 25.4688 20.8346 25.466 20.8542 25.4591C20.8739 25.4522 20.8919 25.4414 20.9071 25.4272C20.9224 25.413 20.9345 25.3959 20.9429 25.3768C20.9512 25.3577 20.9555 25.3372 20.9555 25.3163C20.9555 25.2955 20.9512 25.275 20.9429 25.2559C20.9345 25.2368 20.9224 25.2196 20.9071 25.2055C20.8919 25.1913 20.8739 25.1805 20.8542 25.1736C20.8346 25.1667 20.8138 25.1639 20.793 25.1655Z" fill="white"/>
<path opacity="0.2" d="M20.8049 25.8324C20.8049 25.9286 20.425 26.0075 19.9563 26.0075C19.4876 26.0075 19.1077 25.9253 19.1077 25.8324C19.1077 25.7395 19.4876 25.6572 19.9563 25.6572C20.425 25.6572 20.8049 25.7353 20.8049 25.8324Z" fill="#1A0F1C"/>
<path d="M10.6394 20.9951C10.5572 21.0683 10.5572 21.2648 10.5572 21.2648H10.2537C10.2488 20.5083 10.4774 20.4639 10.4774 20.4639L10.5695 20.6061L10.6378 20.8643L10.6394 20.9951Z" fill="#6265E8"/>
<path opacity="0.9" d="M10.6394 20.9951C10.5572 21.0683 10.5572 21.2648 10.5572 21.2648H10.2537C10.2488 20.5083 10.4774 20.4639 10.4774 20.4639L10.5695 20.6061L10.6378 20.8643L10.6394 20.9951Z" fill="white"/>
<path d="M10.5638 21.2051L10.2571 21.1895C10.2571 21.2141 10.2571 21.238 10.2571 21.2651H10.5605C10.5606 21.2451 10.5617 21.225 10.5638 21.2051Z" fill="#6265E8"/>
<path opacity="0.7" d="M10.5638 21.2051L10.2571 21.1895C10.2571 21.2141 10.2571 21.238 10.2571 21.2651H10.5605C10.5606 21.2451 10.5617 21.225 10.5638 21.2051Z" fill="white"/>
<path d="M11.8323 20.9951C11.9104 21.0683 11.9145 21.2648 11.9145 21.2648H12.2179C12.2237 20.5083 11.9943 20.4639 11.9943 20.4639L11.8347 20.7476L11.8323 20.9951Z" fill="#6265E8"/>
<path opacity="0.9" d="M11.8323 20.9951C11.9104 21.0683 11.9145 21.2648 11.9145 21.2648H12.2179C12.2237 20.5083 11.9943 20.4639 11.9943 20.4639L11.8347 20.7476L11.8323 20.9951Z" fill="white"/>
<path d="M11.9084 21.2051L12.2152 21.1895C12.2152 21.2141 12.2152 21.238 12.2152 21.2651H11.9117C11.9117 21.2451 11.9106 21.225 11.9084 21.2051Z" fill="#6265E8"/>
<path opacity="0.7" d="M11.9084 21.2051L12.2152 21.1895C12.2152 21.2141 12.2152 21.238 12.2152 21.2651H11.9117C11.9117 21.2451 11.9106 21.225 11.9084 21.2051Z" fill="white"/>
<path d="M11.9973 20.4639L11.2449 20.2871H11.2244L10.4719 20.4631C10.4719 20.4631 10.8206 21.1209 10.6413 22.3931C10.6413 22.3931 10.8362 22.5427 11.2244 22.5427H11.2449C11.633 22.5427 11.8288 22.3931 11.8288 22.3931C11.6478 21.1201 11.9973 20.4639 11.9973 20.4639Z" fill="#6265E8"/>
<path opacity="0.8" d="M11.9973 20.4639L11.2449 20.2871H11.2244L10.4719 20.4631C10.4719 20.4631 10.8206 21.1209 10.6413 22.3931C10.6413 22.3931 10.8362 22.5427 11.2244 22.5427H11.2449C11.633 22.5427 11.8288 22.3931 11.8288 22.3931C11.6478 21.1201 11.9973 20.4639 11.9973 20.4639Z" fill="white"/>
<path d="M10.5193 20.5749L10.539 20.6316C10.7165 20.5912 10.8873 20.5258 11.0464 20.4375L11.016 20.3857C10.86 20.4715 10.6928 20.5352 10.5193 20.5749Z" fill="#6265E8"/>
<path d="M11.4527 20.3857L11.4231 20.4375C11.5822 20.526 11.753 20.5913 11.9305 20.6316C11.937 20.6111 11.9436 20.5913 11.9502 20.5749C11.7764 20.5352 11.609 20.4715 11.4527 20.3857Z" fill="#6265E8"/>
<g opacity="0.2">
<path d="M10.5193 20.5749L10.539 20.6316C10.7165 20.5912 10.8873 20.5258 11.0464 20.4375L11.016 20.3857C10.86 20.4715 10.6928 20.5352 10.5193 20.5749Z" fill="#1A0F1C"/>
<path d="M11.4532 20.3857L11.4236 20.4375C11.5827 20.526 11.7535 20.5913 11.931 20.6316C11.9375 20.6111 11.9441 20.5913 11.9507 20.5749C11.7769 20.5352 11.6095 20.4715 11.4532 20.3857Z" fill="#1A0F1C"/>
</g>
<path d="M10.9777 20.2246H11.4966V20.3381L11.4069 20.4269L11.2334 20.4697C11.2334 20.4697 11.2063 20.5519 11.0944 20.4384L10.9826 20.3208L10.9719 20.2624L10.9777 20.2246Z" fill="#6265E8"/>
<path opacity="0.7" d="M10.9777 20.2246H11.4966V20.3381L11.4069 20.4269L11.2334 20.4697C11.2334 20.4697 11.2063 20.5519 11.0944 20.4384L10.9826 20.3208L10.9719 20.2624L10.9777 20.2246Z" fill="white"/>
<path opacity="0.4" d="M10.9777 20.2246H11.4966V20.3381L11.4069 20.4269L11.2334 20.4697C11.2334 20.4697 11.2063 20.5519 11.0944 20.4384L10.9826 20.3208L10.9719 20.2624L10.9777 20.2246Z" fill="#1A0F1C"/>
<path d="M11.2637 20.5264C11.3212 20.5205 11.3767 20.5021 11.4263 20.4724C11.4759 20.4427 11.5184 20.4025 11.5507 20.3545L11.4956 20.2246C11.4729 20.2719 11.4405 20.3138 11.4005 20.3478C11.3606 20.3818 11.314 20.4071 11.2637 20.422H11.2086C11.1583 20.4071 11.1117 20.3818 11.0718 20.3478C11.0319 20.3138 10.9995 20.2719 10.9767 20.2246L10.9216 20.3545C10.954 20.4025 10.9964 20.4427 11.046 20.4724C11.0956 20.5021 11.1511 20.5205 11.2086 20.5264H11.2637Z" fill="#6265E8"/>
<path d="M11.2016 20.873L11.0602 21.5819H10.8957L11.0116 21.0063H10.8694L10.8957 20.8747L11.2016 20.873Z" fill="#6265E8"/>
<path d="M11.5991 20.873L11.4576 21.5819H11.2932L11.4091 21.0063H11.2668L11.2932 20.8747L11.5991 20.873Z" fill="#6265E8"/>
<path d="M12.0399 22.6791H10.3648C10.3441 22.6776 10.3232 22.6804 10.3036 22.6872C10.284 22.6941 10.266 22.705 10.2507 22.7192C10.2355 22.7333 10.2233 22.7505 10.215 22.7696C10.2067 22.7886 10.2024 22.8092 10.2024 22.83C10.2024 22.8508 10.2067 22.8714 10.215 22.8905C10.2233 22.9096 10.2355 22.9267 10.2507 22.9409C10.266 22.955 10.284 22.9659 10.3036 22.9728C10.3232 22.9797 10.3441 22.9824 10.3648 22.9809H12.0399C12.078 22.9781 12.1136 22.961 12.1396 22.933C12.1656 22.905 12.1801 22.8682 12.1801 22.83C12.1801 22.7918 12.1656 22.755 12.1396 22.727C12.1136 22.6991 12.078 22.6819 12.0399 22.6791Z" fill="#6265E8"/>
<path opacity="0.9" d="M12.0399 22.6791H10.3648C10.3441 22.6776 10.3232 22.6804 10.3036 22.6872C10.284 22.6941 10.266 22.705 10.2507 22.7192C10.2355 22.7333 10.2233 22.7505 10.215 22.7696C10.2067 22.7886 10.2024 22.8092 10.2024 22.83C10.2024 22.8508 10.2067 22.8714 10.215 22.8905C10.2233 22.9096 10.2355 22.9267 10.2507 22.9409C10.266 22.955 10.284 22.9659 10.3036 22.9728C10.3232 22.9797 10.3441 22.9824 10.3648 22.9809H12.0399C12.078 22.9781 12.1136 22.961 12.1396 22.933C12.1656 22.905 12.1801 22.8682 12.1801 22.83C12.1801 22.7918 12.1656 22.755 12.1396 22.727C12.1136 22.6991 12.078 22.6819 12.0399 22.6791Z" fill="white"/>
<path opacity="0.2" d="M12.051 23.3461C12.051 23.4423 11.6711 23.5204 11.2024 23.5204C10.7337 23.5204 10.3538 23.4423 10.3538 23.3461C10.3538 23.2498 10.7337 23.1709 11.2024 23.1709C11.6711 23.1709 12.051 23.2482 12.051 23.3461Z" fill="#1A0F1C"/>
<path d="M16.0222 21.2343C15.9441 21.3084 15.94 21.5041 15.94 21.5041H15.6366C15.6316 20.7484 15.861 20.7031 15.861 20.7031L15.9531 20.8462L16.0206 21.1036L16.0222 21.2343Z" fill="#6265E8"/>
<path opacity="0.9" d="M16.0222 21.2343C15.9441 21.3084 15.94 21.5041 15.94 21.5041H15.6366C15.6316 20.7484 15.861 20.7031 15.861 20.7031L15.9531 20.8462L16.0206 21.1036L16.0222 21.2343Z" fill="white"/>
<path d="M15.9468 21.4435L15.6409 21.4287C15.6409 21.4534 15.6409 21.4772 15.6409 21.5035H15.9443C15.9443 21.5035 15.9435 21.4789 15.9468 21.4435Z" fill="#6265E8"/>
<path opacity="0.7" d="M15.9468 21.4435L15.6409 21.4287C15.6409 21.4534 15.6409 21.4772 15.6409 21.5035H15.9443C15.9443 21.5035 15.9435 21.4789 15.9468 21.4435Z" fill="white"/>
<path d="M17.2166 21.2343C17.2988 21.3084 17.2988 21.5041 17.2988 21.5041H17.6022C17.6072 20.7484 17.3785 20.7031 17.3785 20.7031L17.2182 20.9868L17.2166 21.2343Z" fill="#6265E8"/>
<path opacity="0.9" d="M17.2166 21.2343C17.2988 21.3084 17.2988 21.5041 17.2988 21.5041H17.6022C17.6072 20.7484 17.3785 20.7031 17.3785 20.7031L17.2182 20.9868L17.2166 21.2343Z" fill="white"/>
<path d="M17.2927 21.4435L17.5995 21.4287C17.5995 21.4534 17.5995 21.4772 17.5995 21.5035H17.296C17.296 21.4835 17.2949 21.4635 17.2927 21.4435Z" fill="#6265E8"/>
<path opacity="0.7" d="M17.2927 21.4435L17.5995 21.4287C17.5995 21.4534 17.5995 21.4772 17.5995 21.5035H17.296C17.296 21.4835 17.2949 21.4635 17.2927 21.4435Z" fill="white"/>
<path d="M17.3811 20.7023L16.6287 20.5264H16.6081L15.8557 20.7023C15.8557 20.7023 16.2036 21.3602 16.0251 22.6323C16.0251 22.6323 16.22 22.782 16.6081 22.782H16.6287C17.0168 22.782 17.2117 22.6323 17.2117 22.6323C17.0333 21.3561 17.3811 20.7023 17.3811 20.7023Z" fill="#6265E8"/>
<path opacity="0.8" d="M17.3811 20.7023L16.6287 20.5264H16.6081L15.8557 20.7023C15.8557 20.7023 16.2036 21.3602 16.0251 22.6323C16.0251 22.6323 16.22 22.782 16.6081 22.782H16.6287C17.0168 22.782 17.2117 22.6323 17.2117 22.6323C17.0333 21.3561 17.3811 20.7023 17.3811 20.7023Z" fill="white"/>
<path d="M15.9026 20.8141C15.9092 20.8314 15.9157 20.8503 15.9231 20.8709C16.1005 20.8303 16.2713 20.765 16.4305 20.6768L16.4001 20.625C16.2441 20.7113 16.0765 20.775 15.9026 20.8141Z" fill="#6265E8"/>
<path d="M16.8368 20.625L16.8064 20.6768C16.9656 20.765 17.1364 20.8303 17.3138 20.8709C17.3212 20.8503 17.3277 20.8314 17.3343 20.8141C17.1604 20.7749 16.9929 20.7112 16.8368 20.625Z" fill="#6265E8"/>
<g opacity="0.2">
<path d="M15.9026 20.8141C15.9092 20.8314 15.9157 20.8503 15.9231 20.8709C16.1005 20.8303 16.2713 20.765 16.4305 20.6768L16.4001 20.625C16.2441 20.7113 16.0765 20.775 15.9026 20.8141Z" fill="#1A0F1C"/>
<path d="M16.8368 20.625L16.8064 20.6768C16.9656 20.765 17.1364 20.8303 17.3138 20.8709C17.3212 20.8503 17.3277 20.8314 17.3343 20.8141C17.1604 20.7749 16.9929 20.7112 16.8368 20.625Z" fill="#1A0F1C"/>
</g>
<path d="M16.3613 20.4639H16.8794V20.5765L16.7897 20.6653L16.6162 20.7081C16.6162 20.7081 16.5891 20.7944 16.4773 20.6768L16.3654 20.5601L16.3547 20.5009L16.3613 20.4639Z" fill="#6265E8"/>
<path opacity="0.7" d="M16.3613 20.4639H16.8794V20.5765L16.7897 20.6653L16.6162 20.7081C16.6162 20.7081 16.5891 20.7944 16.4773 20.6768L16.3654 20.5601L16.3547 20.5009L16.3613 20.4639Z" fill="white"/>
<path opacity="0.4" d="M16.3613 20.4639H16.8794V20.5765L16.7897 20.6653L16.6162 20.7081C16.6162 20.7081 16.5891 20.7944 16.4773 20.6768L16.3654 20.5601L16.3547 20.5009L16.3613 20.4639Z" fill="#1A0F1C"/>
<path d="M16.6462 20.7657C16.8189 20.7657 16.934 20.5938 16.934 20.5938L16.8781 20.4639C16.8553 20.5111 16.8229 20.553 16.7829 20.587C16.743 20.6209 16.6964 20.6462 16.6462 20.6612H16.5919C16.5417 20.6461 16.4952 20.6208 16.4553 20.5869C16.4154 20.5529 16.3829 20.511 16.36 20.4639L16.3049 20.5938C16.3373 20.6417 16.3797 20.6819 16.4293 20.7116C16.4789 20.7413 16.5344 20.7598 16.5919 20.7657H16.6462Z" fill="#6265E8"/>
<path d="M16.6176 21.2369L16.579 21.3717H16.6218C16.6915 21.367 16.7609 21.3846 16.8199 21.4219C16.8421 21.4386 16.8598 21.4604 16.8716 21.4855C16.8833 21.5106 16.8888 21.5381 16.8874 21.5658C16.8884 21.6149 16.8737 21.663 16.8454 21.7031C16.8164 21.7441 16.7761 21.7758 16.7295 21.7944C16.6756 21.8167 16.6176 21.8276 16.5593 21.8265C16.5097 21.8268 16.4603 21.8196 16.4129 21.8051C16.3711 21.7927 16.3322 21.772 16.2986 21.7443L16.3808 21.6242C16.4053 21.6444 16.4331 21.6603 16.463 21.6711C16.4972 21.6826 16.5331 21.6884 16.5691 21.6883C16.6085 21.6909 16.6477 21.6818 16.6818 21.662C16.6944 21.6538 16.7047 21.6424 16.7116 21.629C16.7185 21.6156 16.7219 21.6006 16.7213 21.5856C16.7213 21.5307 16.6752 21.5033 16.5831 21.5033H16.3907L16.5066 21.1045H16.94L16.9129 21.2361L16.6176 21.2369Z" fill="#6265E8"/>
<path d="M17.4562 22.9189H15.7811C15.7412 22.9189 15.7029 22.9348 15.6747 22.963C15.6465 22.9912 15.6306 23.0295 15.6306 23.0694C15.6306 23.1093 15.6465 23.1476 15.6747 23.1758C15.7029 23.2041 15.7412 23.2199 15.7811 23.2199H17.4562C17.4961 23.2199 17.5344 23.2041 17.5626 23.1758C17.5908 23.1476 17.6067 23.1093 17.6067 23.0694C17.6067 23.0295 17.5908 22.9912 17.5626 22.963C17.5344 22.9348 17.4961 22.9189 17.4562 22.9189Z" fill="#6265E8"/>
<path opacity="0.9" d="M17.4562 22.9189H15.7811C15.7412 22.9189 15.7029 22.9348 15.6747 22.963C15.6465 22.9912 15.6306 23.0295 15.6306 23.0694C15.6306 23.1093 15.6465 23.1476 15.6747 23.1758C15.7029 23.2041 15.7412 23.2199 15.7811 23.2199H17.4562C17.4961 23.2199 17.5344 23.2041 17.5626 23.1758C17.5908 23.1476 17.6067 23.1093 17.6067 23.0694C17.6067 23.0295 17.5908 22.9912 17.5626 22.963C17.5344 22.9348 17.4961 22.9189 17.4562 22.9189Z" fill="white"/>
<path opacity="0.2" d="M17.4672 23.5843C17.4672 23.6814 17.0873 23.7595 16.6194 23.7595C16.1515 23.7595 15.7708 23.6773 15.7708 23.5843C15.7708 23.4914 16.1507 23.4092 16.6194 23.4092C17.0881 23.4092 17.4672 23.4881 17.4672 23.5843Z" fill="#1A0F1C"/>
<path d="M22.643 21.2744C22.5608 21.3484 22.5608 21.5441 22.5608 21.5441H22.2557C22.2508 20.7884 22.4802 20.7432 22.4802 20.7432L22.5723 20.8862L22.6397 21.1436L22.643 21.2744Z" fill="#6265E8"/>
<path opacity="0.9" d="M22.643 21.2744C22.5608 21.3484 22.5608 21.5441 22.5608 21.5441H22.2557C22.2508 20.7884 22.4802 20.7432 22.4802 20.7432L22.5723 20.8862L22.6397 21.1436L22.643 21.2744Z" fill="white"/>
<path d="M22.5662 21.4805L22.2595 21.4648C22.2595 21.4895 22.2595 21.5134 22.2595 21.5397H22.563C22.563 21.5397 22.563 21.515 22.5662 21.4805Z" fill="#6265E8"/>
<path opacity="0.7" d="M22.5662 21.4805L22.2595 21.4648C22.2595 21.4895 22.2595 21.5134 22.2595 21.5397H22.563C22.563 21.5397 22.563 21.515 22.5662 21.4805Z" fill="white"/>
<path d="M23.8372 21.2744C23.9194 21.3484 23.9194 21.5441 23.9194 21.5441H24.2228C24.2278 20.7884 23.9992 20.7432 23.9992 20.7432L23.8388 21.0269L23.8372 21.2744Z" fill="#6265E8"/>
<path opacity="0.9" d="M23.8372 21.2744C23.9194 21.3484 23.9194 21.5441 23.9194 21.5441H24.2228C24.2278 20.7884 23.9992 20.7432 23.9992 20.7432L23.8388 21.0269L23.8372 21.2744Z" fill="white"/>
<path d="M23.9124 21.4805L24.2191 21.4648C24.2191 21.4895 24.2191 21.5134 24.2191 21.5397H23.9165C23.9162 21.5199 23.9148 21.5001 23.9124 21.4805Z" fill="#6265E8"/>
<path opacity="0.7" d="M23.9124 21.4805L24.2191 21.4648C24.2191 21.4895 24.2191 21.5134 24.2191 21.5397H23.9165C23.9162 21.5199 23.9148 21.5001 23.9124 21.4805Z" fill="white"/>
<path d="M24.0022 20.7386L23.2498 20.5635H23.2292L22.4768 20.7386C22.4768 20.7386 22.8247 21.3965 22.6454 22.6694C22.6454 22.6694 22.8411 22.8183 23.2292 22.8183H23.2498C23.6379 22.8183 23.8328 22.6694 23.8328 22.6694C23.6544 21.3957 24.0022 20.7386 24.0022 20.7386Z" fill="#6265E8"/>
<path opacity="0.8" d="M24.0022 20.7386L23.2498 20.5635H23.2292L22.4768 20.7386C22.4768 20.7386 22.8247 21.3965 22.6454 22.6694C22.6454 22.6694 22.8411 22.8183 23.2292 22.8183H23.2498C23.6379 22.8183 23.8328 22.6694 23.8328 22.6694C23.6544 21.3957 24.0022 20.7386 24.0022 20.7386Z" fill="white"/>
<path d="M22.5227 20.8503C22.5293 20.8667 22.5359 20.8856 22.5433 20.907C22.7207 20.8661 22.8914 20.8005 23.0506 20.7121L23.0202 20.6611C22.8638 20.7467 22.6964 20.8104 22.5227 20.8503Z" fill="#6265E8"/>
<path d="M23.4579 20.6611L23.4275 20.7121C23.5867 20.8005 23.7575 20.8661 23.9349 20.907C23.9423 20.8856 23.9488 20.8667 23.9554 20.8503C23.7816 20.8107 23.6141 20.7471 23.4579 20.6611Z" fill="#6265E8"/>
<g opacity="0.2">
<path d="M22.5227 20.8503C22.5293 20.8667 22.5359 20.8856 22.5433 20.907C22.7207 20.8661 22.8914 20.8005 23.0506 20.7121L23.0202 20.6611C22.8638 20.7467 22.6964 20.8104 22.5227 20.8503Z" fill="#1A0F1C"/>
<path d="M23.4579 20.6611L23.4275 20.7121C23.5867 20.8005 23.7575 20.8661 23.9349 20.907C23.9423 20.8856 23.9488 20.8667 23.9554 20.8503C23.7816 20.8107 23.6141 20.7471 23.4579 20.6611Z" fill="#1A0F1C"/>
</g>
<path d="M22.9814 20.5H23.4995V20.6127L23.409 20.7015L23.2355 20.7451C23.2355 20.7451 23.2092 20.8273 23.0974 20.7138L22.9855 20.5962L22.9749 20.5378L22.9814 20.5Z" fill="#6265E8"/>
<path opacity="0.7" d="M22.9814 20.5H23.4995V20.6127L23.409 20.7015L23.2355 20.7451C23.2355 20.7451 23.2092 20.8273 23.0974 20.7138L22.9855 20.5962L22.9749 20.5378L22.9814 20.5Z" fill="white"/>
<path opacity="0.4" d="M22.9814 20.5H23.4995V20.6127L23.409 20.7015L23.2355 20.7451C23.2355 20.7451 23.2092 20.8273 23.0974 20.7138L22.9855 20.5962L22.9749 20.5378L22.9814 20.5Z" fill="#1A0F1C"/>
<path d="M23.2673 20.8018C23.3248 20.7959 23.3803 20.7775 23.4299 20.7478C23.4795 20.7181 23.5219 20.6778 23.5543 20.6299L23.4992 20.5C23.4764 20.5473 23.4441 20.5892 23.4041 20.6232C23.3642 20.6572 23.3176 20.6825 23.2673 20.6974H23.213C23.1627 20.6825 23.1161 20.6572 23.0762 20.6232C23.0362 20.5892 23.0039 20.5473 22.9811 20.5L22.926 20.6299C22.9584 20.6778 23.0008 20.7181 23.0504 20.7478C23.1 20.7775 23.1555 20.7959 23.213 20.8018H23.2673Z" fill="#6265E8"/>
<path d="M23.1965 21.7297H23.4942L23.4679 21.8629H22.9309L22.9523 21.7568L23.2755 21.5035C23.3064 21.4799 23.3341 21.4522 23.3577 21.4213C23.3724 21.4016 23.3805 21.3777 23.3807 21.3531C23.3811 21.3421 23.3788 21.3312 23.3741 21.3214C23.3694 21.3115 23.3623 21.3029 23.3536 21.2963C23.331 21.2807 23.3037 21.2731 23.2763 21.2749C23.2477 21.275 23.2195 21.2818 23.194 21.2947C23.1674 21.3072 23.144 21.3258 23.1258 21.3489L23.0148 21.2667C23.0458 21.2252 23.0872 21.1926 23.1348 21.1721C23.1864 21.1483 23.2425 21.1362 23.2993 21.1368C23.3439 21.1359 23.3881 21.1443 23.4292 21.1615C23.4641 21.1752 23.4944 21.1986 23.5164 21.2289C23.5372 21.2576 23.5481 21.2922 23.5477 21.3276C23.5476 21.3714 23.5347 21.4143 23.5106 21.4509C23.4761 21.5004 23.4333 21.5435 23.384 21.5784L23.1965 21.7297Z" fill="#6265E8"/>
<path d="M24.0761 22.9535H22.401C22.3802 22.952 22.3594 22.9548 22.3397 22.9617C22.3201 22.9685 22.3021 22.9794 22.2869 22.9936C22.2716 23.0077 22.2595 23.0249 22.2511 23.044C22.2428 23.063 22.2385 23.0836 22.2385 23.1044C22.2385 23.1252 22.2428 23.1458 22.2511 23.1649C22.2595 23.184 22.2716 23.2011 22.2869 23.2153C22.3021 23.2295 22.3201 23.2403 22.3397 23.2472C22.3594 23.2541 22.3802 23.2569 22.401 23.2553H24.0761C24.0968 23.2569 24.1177 23.2541 24.1373 23.2472C24.1569 23.2403 24.1749 23.2295 24.1902 23.2153C24.2054 23.2011 24.2176 23.184 24.2259 23.1649C24.2342 23.1458 24.2385 23.1252 24.2385 23.1044C24.2385 23.0836 24.2342 23.063 24.2259 23.044C24.2176 23.0249 24.2054 23.0077 24.1902 22.9936C24.1749 22.9794 24.1569 22.9685 24.1373 22.9617C24.1177 22.9548 24.0968 22.952 24.0761 22.9535Z" fill="#6265E8"/>
<path opacity="0.9" d="M24.0761 22.9535H22.401C22.3802 22.952 22.3594 22.9548 22.3397 22.9617C22.3201 22.9685 22.3021 22.9794 22.2869 22.9936C22.2716 23.0077 22.2595 23.0249 22.2511 23.044C22.2428 23.063 22.2385 23.0836 22.2385 23.1044C22.2385 23.1252 22.2428 23.1458 22.2511 23.1649C22.2595 23.184 22.2716 23.2011 22.2869 23.2153C22.3021 23.2295 22.3201 23.2403 22.3397 23.2472C22.3594 23.2541 22.3802 23.2569 22.401 23.2553H24.0761C24.0968 23.2569 24.1177 23.2541 24.1373 23.2472C24.1569 23.2403 24.1749 23.2295 24.1902 23.2153C24.2054 23.2011 24.2176 23.184 24.2259 23.1649C24.2342 23.1458 24.2385 23.1252 24.2385 23.1044C24.2385 23.0836 24.2342 23.063 24.2259 23.044C24.2176 23.0249 24.2054 23.0077 24.1902 22.9936C24.1749 22.9794 24.1569 22.9685 24.1373 22.9617C24.1177 22.9548 24.0968 22.952 24.0761 22.9535Z" fill="white"/>
<path opacity="0.2" d="M24.0872 23.6206C24.0872 23.7177 23.7073 23.7958 23.2385 23.7958C22.7698 23.7958 22.3899 23.7135 22.3899 23.6206C22.3899 23.5277 22.7698 23.4463 23.2385 23.4463C23.7073 23.4463 24.0872 23.5244 24.0872 23.6206Z" fill="#1A0F1C"/>
<path d="M28.0999 20.9853C28.0176 21.0593 28.0176 21.255 28.0176 21.255H27.7142C27.7093 20.4993 27.9379 20.4541 27.9379 20.4541L28.03 20.5972L28.0982 20.8546L28.0999 20.9853Z" fill="#6265E8"/>
<path opacity="0.9" d="M28.0999 20.9853C28.0176 21.0593 28.0176 21.255 28.0176 21.255H27.7142C27.7093 20.4993 27.9379 20.4541 27.9379 20.4541L28.03 20.5972L28.0982 20.8546L28.0999 20.9853Z" fill="white"/>
<path d="M28.0233 21.1963L27.7166 21.1807C27.7166 21.2053 27.7166 21.2292 27.7166 21.2555H28.02C28.02 21.2357 28.0211 21.216 28.0233 21.1963Z" fill="#6265E8"/>
<path opacity="0.7" d="M28.0233 21.1963L27.7166 21.1807C27.7166 21.2053 27.7166 21.2292 27.7166 21.2555H28.02C28.02 21.2357 28.0211 21.216 28.0233 21.1963Z" fill="white"/>
<path d="M29.2927 20.9853C29.3708 21.0593 29.375 21.255 29.375 21.255H29.6784C29.6833 20.4993 29.4539 20.4541 29.4539 20.4541L29.2944 20.7378L29.2927 20.9853Z" fill="#6265E8"/>
<path opacity="0.9" d="M29.2927 20.9853C29.3708 21.0593 29.375 21.255 29.375 21.255H29.6784C29.6833 20.4993 29.4539 20.4541 29.4539 20.4541L29.2944 20.7378L29.2927 20.9853Z" fill="white"/>
<path d="M29.3689 21.1963L29.6748 21.1807C29.6748 21.2053 29.6748 21.2292 29.6748 21.2555H29.3714C29.3714 21.2555 29.3722 21.2308 29.3689 21.1963Z" fill="#6265E8"/>
<path opacity="0.7" d="M29.3689 21.1963L29.6748 21.1807C29.6748 21.2053 29.6748 21.2292 29.6748 21.2555H29.3714C29.3714 21.2555 29.3722 21.2308 29.3689 21.1963Z" fill="white"/>
<path d="M29.4578 20.4523L28.7046 20.2764H28.6848L27.9299 20.4523C27.9299 20.4523 28.2786 21.1102 28.0993 22.3832C28.0993 22.3832 28.2942 22.532 28.6832 22.532H28.7029C29.0911 22.532 29.2868 22.3832 29.2868 22.3832C29.1091 21.1102 29.4578 20.4523 29.4578 20.4523Z" fill="#6265E8"/>
<path opacity="0.8" d="M29.4578 20.4523L28.7046 20.2764H28.6848L27.9299 20.4523C27.9299 20.4523 28.2786 21.1102 28.0993 22.3832C28.0993 22.3832 28.2942 22.532 28.6832 22.532H28.7029C29.0911 22.532 29.2868 22.3832 29.2868 22.3832C29.1091 21.1102 29.4578 20.4523 29.4578 20.4523Z" fill="white"/>
<path d="M27.9788 20.5651C27.9845 20.5824 27.9919 20.6013 27.9985 20.6219C28.1759 20.5814 28.3467 20.5161 28.5059 20.4278L28.4763 20.376C28.3202 20.4622 28.1527 20.5258 27.9788 20.5651Z" fill="#6265E8"/>
<path d="M28.9166 20.376L28.887 20.4278C29.0461 20.5161 29.2169 20.5814 29.3943 20.6219C29.4009 20.6016 29.4075 20.5827 29.4141 20.5651C29.2401 20.5258 29.0727 20.4622 28.9166 20.376Z" fill="#6265E8"/>
<g opacity="0.2">
<path d="M27.9788 20.5651C27.9845 20.5824 27.9919 20.6013 27.9985 20.6219C28.1759 20.5814 28.3467 20.5161 28.5059 20.4278L28.4763 20.376C28.3202 20.4622 28.1527 20.5258 27.9788 20.5651Z" fill="#1A0F1C"/>
<path d="M28.9168 20.376L28.8872 20.4278C29.0463 20.5161 29.2172 20.5814 29.3946 20.6219C29.4012 20.6016 29.4077 20.5827 29.4143 20.5651C29.2404 20.5258 29.0729 20.4622 28.9168 20.376Z" fill="#1A0F1C"/>
</g>
<path d="M28.4363 20.2158H28.9552V20.3285L28.8656 20.4173L28.6921 20.4601C28.6921 20.4601 28.6649 20.5423 28.5531 20.4288L28.4413 20.312L28.4314 20.2528L28.4363 20.2158Z" fill="#6265E8"/>
<path opacity="0.7" d="M28.4363 20.2158H28.9552V20.3285L28.8656 20.4173L28.6921 20.4601C28.6921 20.4601 28.6649 20.5423 28.5531 20.4288L28.4413 20.312L28.4314 20.2528L28.4363 20.2158Z" fill="white"/>
<path opacity="0.4" d="M28.4363 20.2158H28.9552V20.3285L28.8656 20.4173L28.6921 20.4601C28.6921 20.4601 28.6649 20.5423 28.5531 20.4288L28.4413 20.312L28.4314 20.2528L28.4363 20.2158Z" fill="#1A0F1C"/>
<path d="M28.723 20.5176C28.7805 20.5117 28.836 20.4933 28.8856 20.4636C28.9352 20.4339 28.9777 20.3937 29.01 20.3457L28.9549 20.2158C28.932 20.263 28.8996 20.3048 28.8596 20.3388C28.8197 20.3728 28.7732 20.3981 28.723 20.4132H28.6696C28.6194 20.3981 28.5728 20.3728 28.5329 20.3388C28.493 20.3048 28.4606 20.263 28.4377 20.2158L28.3826 20.3457C28.4149 20.3937 28.4574 20.4339 28.507 20.4636C28.5565 20.4933 28.6121 20.5117 28.6696 20.5176H28.723Z" fill="#6265E8"/>
<path d="M28.8189 21.1513C28.8522 21.1671 28.8806 21.1915 28.9011 21.222C28.9224 21.2547 28.9333 21.2932 28.9324 21.3322C28.933 21.3792 28.9201 21.4255 28.8954 21.4654C28.8709 21.5039 28.8358 21.5345 28.7942 21.5534C28.7486 21.5743 28.6988 21.5847 28.6487 21.5838C28.5966 21.5849 28.545 21.5737 28.4982 21.5509C28.4555 21.529 28.4205 21.4946 28.3979 21.4523C28.3727 21.4032 28.3603 21.3487 28.3617 21.2936C28.3617 21.2212 28.3771 21.1498 28.4069 21.0839C28.4381 21.0169 28.4874 20.9599 28.5492 20.9194C28.6202 20.8731 28.7037 20.8498 28.7885 20.8528C28.8259 20.8529 28.8631 20.8573 28.8995 20.866C28.9301 20.8722 28.9593 20.8839 28.9858 20.9005L28.9118 21.0214C28.8717 20.9965 28.8249 20.9845 28.7778 20.9868C28.7201 20.9843 28.6638 21.0043 28.6207 21.0428C28.5792 21.0808 28.5505 21.1308 28.5385 21.1858C28.5841 21.1468 28.643 21.1268 28.7029 21.1299C28.7427 21.1285 28.7823 21.1358 28.8189 21.1513ZM28.7367 21.4301C28.748 21.4197 28.757 21.4069 28.7629 21.3927C28.7689 21.3785 28.7717 21.3632 28.7712 21.3478C28.7719 21.3345 28.7695 21.3212 28.7642 21.3089C28.7589 21.2967 28.7509 21.2858 28.7408 21.2771C28.7173 21.259 28.6881 21.2499 28.6585 21.2516C28.625 21.2501 28.5921 21.2613 28.5664 21.2829C28.5545 21.2929 28.5451 21.3055 28.5388 21.3198C28.5325 21.334 28.5296 21.3495 28.5303 21.3651C28.53 21.3786 28.5327 21.3919 28.5381 21.4043C28.5435 21.4166 28.5515 21.4277 28.5615 21.4366C28.5843 21.4563 28.6137 21.4666 28.6437 21.4654C28.6607 21.4661 28.6776 21.4633 28.6934 21.4572C28.7093 21.4511 28.7237 21.4419 28.7358 21.4301H28.7367Z" fill="#6265E8"/>
<path d="M29.5328 22.6719H27.8578C27.8179 22.6719 27.7796 22.6877 27.7514 22.7159C27.7231 22.7442 27.7073 22.7824 27.7073 22.8224C27.7073 22.8623 27.7231 22.9005 27.7514 22.9288C27.7796 22.957 27.8179 22.9728 27.8578 22.9728H29.5328C29.5727 22.9728 29.611 22.957 29.6392 22.9288C29.6675 22.9005 29.6833 22.8623 29.6833 22.8224C29.6833 22.7824 29.6675 22.7442 29.6392 22.7159C29.611 22.6877 29.5727 22.6719 29.5328 22.6719Z" fill="#6265E8"/>
<path opacity="0.9" d="M29.5328 22.6719H27.8578C27.8179 22.6719 27.7796 22.6877 27.7514 22.7159C27.7231 22.7442 27.7073 22.7824 27.7073 22.8224C27.7073 22.8623 27.7231 22.9005 27.7514 22.9288C27.7796 22.957 27.8179 22.9728 27.8578 22.9728H29.5328C29.5727 22.9728 29.611 22.957 29.6392 22.9288C29.6675 22.9005 29.6833 22.8623 29.6833 22.8224C29.6833 22.7824 29.6675 22.7442 29.6392 22.7159C29.611 22.6877 29.5727 22.6719 29.5328 22.6719Z" fill="white"/>
<path opacity="0.2" d="M29.5444 23.3353C29.5444 23.4323 29.1644 23.5105 28.6965 23.5105C28.2286 23.5105 27.8479 23.4323 27.8479 23.3353C27.8479 23.2383 28.2278 23.1602 28.6965 23.1602C29.1653 23.1602 29.5444 23.2391 29.5444 23.3353Z" fill="#1A0F1C"/>
<path d="M13.7156 16.9863C13.6333 17.0603 13.6333 17.256 13.6333 17.256H13.3299C13.325 16.5003 13.5536 16.4551 13.5536 16.4551L13.6457 16.5982L13.7139 16.8556L13.7156 16.9863Z" fill="#6265E8"/>
<path opacity="0.9" d="M13.7156 16.9863C13.6333 17.0603 13.6333 17.256 13.6333 17.256H13.3299C13.325 16.5003 13.5536 16.4551 13.5536 16.4551L13.6457 16.5982L13.7139 16.8556L13.7156 16.9863Z" fill="white"/>
<path d="M13.639 17.1964L13.3323 17.1816C13.3323 17.2063 13.3323 17.2302 13.3323 17.2565H13.6357C13.6358 17.2364 13.6369 17.2164 13.639 17.1964Z" fill="#6265E8"/>
<path opacity="0.7" d="M13.639 17.1964L13.3323 17.1816C13.3323 17.2063 13.3323 17.2302 13.3323 17.2565H13.6357C13.6358 17.2364 13.6369 17.2164 13.639 17.1964Z" fill="white"/>
<path d="M14.9094 16.9863C14.9917 17.0603 14.9917 17.256 14.9917 17.256H15.2951C15.3 16.5003 15.0706 16.4551 15.0706 16.4551L14.9111 16.7388L14.9094 16.9863Z" fill="#6265E8"/>
<path opacity="0.9" d="M14.9094 16.9863C14.9917 17.0603 14.9917 17.256 14.9917 17.256H15.2951C15.3 16.5003 15.0706 16.4551 15.0706 16.4551L14.9111 16.7388L14.9094 16.9863Z" fill="white"/>
<path d="M14.9856 17.1964L15.2915 17.1816C15.2915 17.2063 15.2915 17.2302 15.2915 17.2565H14.9881C14.9881 17.2565 14.9889 17.2318 14.9856 17.1964Z" fill="#6265E8"/>
<path opacity="0.7" d="M14.9856 17.1964L15.2915 17.1816C15.2915 17.2063 15.2915 17.2302 15.2915 17.2565H14.9881C14.9881 17.2565 14.9889 17.2318 14.9856 17.1964Z" fill="white"/>
<path d="M15.0743 16.4553L14.3211 16.2793H14.3013L13.5481 16.4553C13.5481 16.4553 13.8968 17.1131 13.7175 18.3853C13.7175 18.3853 13.9124 18.5349 14.3013 18.5349H14.3211C14.7092 18.5349 14.9049 18.3853 14.9049 18.3853C14.7257 17.1123 15.0743 16.4553 15.0743 16.4553Z" fill="#6265E8"/>
<path opacity="0.8" d="M15.0743 16.4553L14.3211 16.2793H14.3013L13.5481 16.4553C13.5481 16.4553 13.8968 17.1131 13.7175 18.3853C13.7175 18.3853 13.9124 18.5349 14.3013 18.5349H14.3211C14.7092 18.5349 14.9049 18.3853 14.9049 18.3853C14.7257 17.1123 15.0743 16.4553 15.0743 16.4553Z" fill="white"/>
<path d="M13.5969 16.5661C13.6027 16.5834 13.6101 16.6023 13.6167 16.6228C13.7941 16.5824 13.9649 16.517 14.124 16.4288L14.0944 16.377C13.9383 16.4631 13.7708 16.5268 13.5969 16.5661Z" fill="#6265E8"/>
<path d="M14.5259 16.377L14.4963 16.4288C14.6555 16.517 14.8263 16.5824 15.0037 16.6228C15.0103 16.6023 15.0177 16.5834 15.0234 16.5661C14.8495 16.5268 14.682 16.4631 14.5259 16.377Z" fill="#6265E8"/>
<g opacity="0.2">
<path d="M13.5969 16.5661C13.6027 16.5834 13.6101 16.6023 13.6167 16.6228C13.7941 16.5824 13.9649 16.517 14.124 16.4288L14.0944 16.377C13.9383 16.4631 13.7708 16.5268 13.5969 16.5661Z" fill="#1A0F1C"/>
<path d="M14.5262 16.377L14.4966 16.4288C14.6557 16.517 14.8265 16.5824 15.004 16.6228C15.0105 16.6023 15.0179 16.5834 15.0237 16.5661C14.8498 16.5268 14.6823 16.4631 14.5262 16.377Z" fill="#1A0F1C"/>
</g>
<path d="M14.0535 16.2168H14.5724V16.3295L14.4852 16.4224L14.3117 16.4651C14.3117 16.4651 14.2846 16.5515 14.1727 16.4339L14.0617 16.3171L14.051 16.2579L14.0535 16.2168Z" fill="#6265E8"/>
<path opacity="0.7" d="M14.0535 16.2168H14.5724V16.3295L14.4852 16.4224L14.3117 16.4651C14.3117 16.4651 14.2846 16.5515 14.1727 16.4339L14.0617 16.3171L14.051 16.2579L14.0535 16.2168Z" fill="white"/>
<path opacity="0.4" d="M14.0535 16.2168H14.5724V16.3295L14.4852 16.4224L14.3117 16.4651C14.3117 16.4651 14.2846 16.5515 14.1727 16.4339L14.0617 16.3171L14.051 16.2579L14.0535 16.2168Z" fill="#1A0F1C"/>
<path d="M14.3404 16.5186C14.3979 16.5127 14.4534 16.4943 14.503 16.4646C14.5526 16.4349 14.595 16.3946 14.6274 16.3467L14.5723 16.2168C14.5494 16.2639 14.5169 16.3058 14.477 16.3398C14.4371 16.3738 14.3906 16.3991 14.3404 16.4142H14.2853C14.2351 16.3991 14.1886 16.3738 14.1486 16.3398C14.1087 16.3058 14.0763 16.2639 14.0534 16.2168L13.9983 16.3467C14.0306 16.3946 14.0731 16.4349 14.1227 16.4646C14.1723 16.4943 14.2278 16.5127 14.2853 16.5186H14.3404Z" fill="#6265E8"/>
<path d="M14.626 17.3745H14.5093L14.4805 17.5233H14.3201L14.3506 17.3745H13.969L13.9896 17.2643L14.4073 16.8145H14.5866L14.1968 17.2445H14.3834L14.4098 17.1121H14.5627L14.5364 17.2445H14.6523L14.626 17.3745Z" fill="#6265E8"/>
<path d="M15.1499 18.6758H13.474C13.4341 18.6758 13.3958 18.6916 13.3676 18.7199C13.3393 18.7481 13.3235 18.7864 13.3235 18.8263C13.3235 18.8662 13.3393 18.9045 13.3676 18.9327C13.3958 18.9609 13.4341 18.9768 13.474 18.9768H15.1499C15.1898 18.9768 15.2281 18.9609 15.2563 18.9327C15.2845 18.9045 15.3003 18.8662 15.3003 18.8263C15.3003 18.7864 15.2845 18.7481 15.2563 18.7199C15.2281 18.6916 15.1898 18.6758 15.1499 18.6758Z" fill="#6265E8"/>
<path opacity="0.9" d="M15.1499 18.6758H13.474C13.4341 18.6758 13.3958 18.6916 13.3676 18.7199C13.3393 18.7481 13.3235 18.7864 13.3235 18.8263C13.3235 18.8662 13.3393 18.9045 13.3676 18.9327C13.3958 18.9609 13.4341 18.9768 13.474 18.9768H15.1499C15.1898 18.9768 15.2281 18.9609 15.2563 18.9327C15.2845 18.9045 15.3003 18.8662 15.3003 18.8263C15.3003 18.7864 15.2845 18.7481 15.2563 18.7199C15.2281 18.6916 15.1898 18.6758 15.1499 18.6758Z" fill="white"/>
<path opacity="0.2" d="M15.1614 19.3421C15.1614 19.4392 14.7815 19.5173 14.3127 19.5173C13.844 19.5173 13.4641 19.4392 13.4641 19.3421C13.4641 19.2451 13.844 19.167 14.3127 19.167C14.7815 19.167 15.1614 19.2459 15.1614 19.3421Z" fill="#1A0F1C"/>
<path d="M19.3601 17.1474C19.2779 17.2206 19.2779 17.4172 19.2779 17.4172H18.9744C18.9695 16.6606 19.1981 16.6162 19.1981 16.6162L19.2902 16.7585L19.3585 17.0167L19.3601 17.1474Z" fill="#6265E8"/>
<path opacity="0.9" d="M19.3601 17.1474C19.2779 17.2206 19.2779 17.4172 19.2779 17.4172H18.9744C18.9695 16.6606 19.1981 16.6162 19.1981 16.6162L19.2902 16.7585L19.3585 17.0167L19.3601 17.1474Z" fill="white"/>
<path d="M19.2835 17.3574L18.9768 17.3418C18.9768 17.3665 18.9768 17.3903 18.9768 17.4175H19.2802C19.2803 17.3974 19.2814 17.3774 19.2835 17.3574Z" fill="#6265E8"/>
<path opacity="0.7" d="M19.2835 17.3574L18.9768 17.3418C18.9768 17.3665 18.9768 17.3903 18.9768 17.4175H19.2802C19.2803 17.3974 19.2814 17.3774 19.2835 17.3574Z" fill="white"/>
<path d="M20.553 17.1474C20.6311 17.2206 20.6352 17.4172 20.6352 17.4172H20.9403C20.946 16.6606 20.7166 16.6162 20.7166 16.6162L20.5571 16.8991L20.553 17.1474Z" fill="#6265E8"/>
<path opacity="0.9" d="M20.553 17.1474C20.6311 17.2206 20.6352 17.4172 20.6352 17.4172H20.9403C20.946 16.6606 20.7166 16.6162 20.7166 16.6162L20.5571 16.8991L20.553 17.1474Z" fill="white"/>
<path d="M20.6282 17.3574L20.9349 17.3418C20.9349 17.3665 20.9349 17.3903 20.9349 17.4175H20.6315C20.6314 17.3974 20.6303 17.3774 20.6282 17.3574Z" fill="#6265E8"/>
<path opacity="0.7" d="M20.6282 17.3574L20.9349 17.3418C20.9349 17.3665 20.9349 17.3903 20.9349 17.4175H20.6315C20.6314 17.3974 20.6303 17.3774 20.6282 17.3574Z" fill="white"/>
<path d="M20.7171 16.6164L19.9646 16.4404H19.9441L19.1917 16.6164C19.1917 16.6164 19.5403 17.2743 19.361 18.5464C19.361 18.5464 19.5559 18.6952 19.9441 18.6952H19.9646C20.3528 18.6952 20.5485 18.5464 20.5485 18.5464C20.3692 17.2726 20.7171 16.6164 20.7171 16.6164Z" fill="#6265E8"/>
<path opacity="0.8" d="M20.7171 16.6164L19.9646 16.4404H19.9441L19.1917 16.6164C19.1917 16.6164 19.5403 17.2743 19.361 18.5464C19.361 18.5464 19.5559 18.6952 19.9441 18.6952H19.9646C20.3528 18.6952 20.5485 18.5464 20.5485 18.5464C20.3692 17.2726 20.7171 16.6164 20.7171 16.6164Z" fill="white"/>
<path d="M19.24 16.7272L19.2597 16.784C19.4372 16.7431 19.608 16.6775 19.7671 16.5891L19.7367 16.5381C19.5807 16.6239 19.4135 16.6875 19.24 16.7272Z" fill="#6265E8"/>
<path d="M20.1734 16.5381L20.1438 16.5891C20.3029 16.6777 20.4737 16.7433 20.6512 16.784C20.6578 16.7634 20.6643 16.7437 20.6709 16.7272C20.4971 16.6875 20.3297 16.6239 20.1734 16.5381Z" fill="#6265E8"/>
<g opacity="0.2">
<path d="M19.24 16.7272L19.2597 16.784C19.4372 16.7431 19.608 16.6775 19.7671 16.5891L19.7367 16.5381C19.5807 16.6239 19.4135 16.6875 19.24 16.7272Z" fill="#1A0F1C"/>
<path d="M20.1732 16.5381L20.1436 16.5891C20.3026 16.6777 20.4734 16.7433 20.6509 16.784C20.6575 16.7634 20.6641 16.7437 20.6707 16.7272C20.4969 16.6875 20.3294 16.6239 20.1732 16.5381Z" fill="#1A0F1C"/>
</g>
<path d="M19.6974 16.377H20.2162V16.4904L20.1266 16.5784L19.9531 16.622C19.9531 16.622 19.926 16.7042 19.8141 16.5908L19.7072 16.4732L19.6965 16.4148L19.6974 16.377Z" fill="#6265E8"/>
<path opacity="0.7" d="M19.6974 16.377H20.2162V16.4904L20.1266 16.5784L19.9531 16.622C19.9531 16.622 19.926 16.7042 19.8141 16.5908L19.7072 16.4732L19.6965 16.4148L19.6974 16.377Z" fill="white"/>
<path opacity="0.4" d="M19.6974 16.377H20.2162V16.4904L20.1266 16.5784L19.9531 16.622C19.9531 16.622 19.926 16.7042 19.8141 16.5908L19.7072 16.4732L19.6965 16.4148L19.6974 16.377Z" fill="#1A0F1C"/>
<path d="M19.9839 16.6787C20.0414 16.6729 20.0969 16.6544 20.1465 16.6247C20.1961 16.595 20.2386 16.5548 20.2709 16.5069L20.2158 16.377C20.1931 16.4242 20.1607 16.4662 20.1208 16.5002C20.0808 16.5342 20.0342 16.5594 19.9839 16.5743H19.9288C19.8786 16.5594 19.8319 16.5342 19.792 16.5002C19.7521 16.4662 19.7197 16.4242 19.6969 16.377L19.6418 16.5069C19.6742 16.5548 19.7166 16.595 19.7662 16.6247C19.8158 16.6544 19.8713 16.6729 19.9288 16.6787H19.9839Z" fill="#6265E8"/>
<path d="M20.2653 16.9756L20.2439 17.0817L19.8656 17.6844H19.6831L20.0465 17.1088H19.8163L19.7933 17.2239H19.6477L19.697 16.9772L20.2653 16.9756Z" fill="#6265E8"/>
<path d="M20.7938 18.8369H19.1179C19.0798 18.8397 19.0442 18.8569 19.0182 18.8848C18.9922 18.9128 18.9778 18.9496 18.9778 18.9878C18.9778 19.026 18.9922 19.0628 19.0182 19.0908C19.0442 19.1188 19.0798 19.1359 19.1179 19.1387H20.7938C20.8319 19.1359 20.8676 19.1188 20.8936 19.0908C20.9195 19.0628 20.934 19.026 20.934 18.9878C20.934 18.9496 20.9195 18.9128 20.8936 18.8848C20.8676 18.8569 20.8319 18.8397 20.7938 18.8369Z" fill="#6265E8"/>
<path opacity="0.9" d="M20.7938 18.8369H19.1179C19.0798 18.8397 19.0442 18.8569 19.0182 18.8848C18.9922 18.9128 18.9778 18.9496 18.9778 18.9878C18.9778 19.026 18.9922 19.0628 19.0182 19.0908C19.0442 19.1188 19.0798 19.1359 19.1179 19.1387H20.7938C20.8319 19.1359 20.8676 19.1188 20.8936 19.0908C20.9195 19.0628 20.934 19.026 20.934 18.9878C20.934 18.9496 20.9195 18.9128 20.8936 18.8848C20.8676 18.8569 20.8319 18.8397 20.7938 18.8369Z" fill="white"/>
<path opacity="0.2" d="M20.8049 19.5033C20.8049 19.5995 20.425 19.6776 19.9563 19.6776C19.4876 19.6776 19.1077 19.5995 19.1077 19.5033C19.1077 19.4071 19.4876 19.3281 19.9563 19.3281C20.425 19.3281 20.8049 19.4062 20.8049 19.5033Z" fill="#1A0F1C"/>
<path d="M25.0022 16.9775C24.92 17.0507 24.92 17.2472 24.92 17.2472H24.6165C24.6116 16.4907 24.8402 16.4463 24.8402 16.4463L24.9323 16.5886L25.0006 16.8468L25.0022 16.9775Z" fill="#6265E8"/>
<path opacity="0.9" d="M25.0022 16.9775C24.92 17.0507 24.92 17.2472 24.92 17.2472H24.6165C24.6116 16.4907 24.8402 16.4463 24.8402 16.4463L24.9323 16.5886L25.0006 16.8468L25.0022 16.9775Z" fill="white"/>
<path d="M24.9256 17.1875L24.6189 17.1719C24.6189 17.1965 24.6189 17.2204 24.6189 17.2475H24.9223C24.9224 17.2275 24.9235 17.2074 24.9256 17.1875Z" fill="#6265E8"/>
<path opacity="0.7" d="M24.9256 17.1875L24.6189 17.1719C24.6189 17.1965 24.6189 17.2204 24.6189 17.2475H24.9223C24.9224 17.2275 24.9235 17.2074 24.9256 17.1875Z" fill="white"/>
<path d="M26.1951 16.9775C26.2732 17.0507 26.2773 17.2472 26.2773 17.2472H26.5807C26.5857 16.4907 26.3562 16.4463 26.3562 16.4463L26.1967 16.73L26.1951 16.9775Z" fill="#6265E8"/>
<path opacity="0.9" d="M26.1951 16.9775C26.2732 17.0507 26.2773 17.2472 26.2773 17.2472H26.5807C26.5857 16.4907 26.3562 16.4463 26.3562 16.4463L26.1967 16.73L26.1951 16.9775Z" fill="white"/>
<path d="M26.2727 17.1875L26.5786 17.1719C26.5786 17.1965 26.5786 17.2204 26.5786 17.2475H26.2752C26.2752 17.2475 26.276 17.2229 26.2727 17.1875Z" fill="#6265E8"/>
<path opacity="0.7" d="M26.2727 17.1875L26.5786 17.1719C26.5786 17.1965 26.5786 17.2204 26.5786 17.2475H26.2752C26.2752 17.2475 26.276 17.2229 26.2727 17.1875Z" fill="white"/>
<path d="M26.3605 16.4465L25.6072 16.2705H25.5875L24.8342 16.4465C24.8342 16.4465 25.1829 17.1043 25.0036 18.3765C25.0036 18.3765 25.1985 18.5261 25.5875 18.5261H25.6072C25.9954 18.5261 26.1911 18.3765 26.1911 18.3765C26.0118 17.1027 26.3605 16.4465 26.3605 16.4465Z" fill="#6265E8"/>
<path opacity="0.8" d="M26.3605 16.4465L25.6072 16.2705H25.5875L24.8342 16.4465C24.8342 16.4465 25.1829 17.1043 25.0036 18.3765C25.0036 18.3765 25.1985 18.5261 25.5875 18.5261H25.6072C25.9954 18.5261 26.1911 18.3765 26.1911 18.3765C26.0118 17.1027 26.3605 16.4465 26.3605 16.4465Z" fill="white"/>
<path d="M24.8821 16.5573C24.8878 16.5737 24.8952 16.5935 24.9018 16.614C25.0792 16.5736 25.2501 16.5083 25.4092 16.42L25.3796 16.3682C25.2233 16.454 25.0559 16.5176 24.8821 16.5573Z" fill="#6265E8"/>
<path d="M25.816 16.3682L25.7864 16.42C25.9455 16.5083 26.1163 16.5736 26.2938 16.614C26.3003 16.5935 26.3077 16.5737 26.3135 16.5573C26.1397 16.5176 25.9722 16.454 25.816 16.3682Z" fill="#6265E8"/>
<g opacity="0.2">
<path d="M24.8821 16.5573C24.8878 16.5737 24.8952 16.5935 24.9018 16.614C25.0792 16.5736 25.2501 16.5083 25.4092 16.42L25.3796 16.3682C25.2233 16.454 25.0559 16.5176 24.8821 16.5573Z" fill="#1A0F1C"/>
<path d="M25.8157 16.3682L25.7861 16.42C25.9453 16.5083 26.1161 16.5736 26.2935 16.614C26.3001 16.5935 26.3075 16.5737 26.3132 16.5573C26.1394 16.5176 25.972 16.454 25.8157 16.3682Z" fill="#1A0F1C"/>
</g>
<path d="M25.3401 16.207H25.859V16.3205L25.7694 16.4093L25.5959 16.4521C25.5959 16.4521 25.5687 16.5343 25.4569 16.4208L25.3459 16.3032L25.3352 16.2449L25.3401 16.207Z" fill="#6265E8"/>
<path opacity="0.7" d="M25.3401 16.207H25.859V16.3205L25.7694 16.4093L25.5959 16.4521C25.5959 16.4521 25.5687 16.5343 25.4569 16.4208L25.3459 16.3032L25.3352 16.2449L25.3401 16.207Z" fill="white"/>
<path opacity="0.4" d="M25.3401 16.207H25.859V16.3205L25.7694 16.4093L25.5959 16.4521C25.5959 16.4521 25.5687 16.5343 25.4569 16.4208L25.3459 16.3032L25.3352 16.2449L25.3401 16.207Z" fill="#1A0F1C"/>
<path d="M25.627 16.5088C25.6844 16.503 25.7399 16.4847 25.7895 16.4552C25.8391 16.4256 25.8816 16.3855 25.914 16.3378L25.8589 16.207C25.8362 16.2543 25.8038 16.2963 25.7638 16.3302C25.7239 16.3642 25.6773 16.3895 25.627 16.4044H25.5719C25.5216 16.3895 25.475 16.3642 25.4351 16.3302C25.3951 16.2963 25.3628 16.2543 25.34 16.207L25.2849 16.3378C25.3173 16.3855 25.3598 16.4256 25.4094 16.4552C25.459 16.4847 25.5145 16.503 25.5719 16.5088H25.627Z" fill="#6265E8"/>
<path d="M25.8794 17.3057C25.8803 17.3501 25.8664 17.3934 25.8399 17.4291C25.8122 17.4661 25.7746 17.4946 25.7314 17.5113C25.6789 17.5313 25.6231 17.5408 25.5669 17.5393C25.5152 17.5402 25.4638 17.5321 25.4148 17.5154C25.3755 17.5019 25.3408 17.4777 25.3145 17.4455C25.2907 17.4154 25.2782 17.3778 25.2791 17.3394C25.278 17.2963 25.2913 17.2541 25.3169 17.2194C25.3442 17.1835 25.3814 17.1564 25.4238 17.1413C25.4055 17.1276 25.3907 17.1097 25.3806 17.0891C25.3706 17.0685 25.3657 17.0458 25.3663 17.0228C25.3651 16.9815 25.3779 16.941 25.4025 16.9077C25.4281 16.8735 25.4629 16.8473 25.5028 16.8321C25.5494 16.8139 25.5991 16.805 25.6492 16.8058C25.696 16.8047 25.7426 16.8125 25.7865 16.8288C25.823 16.8412 25.8554 16.8634 25.8802 16.8929C25.9022 16.9204 25.9139 16.9548 25.9131 16.99C25.9141 17.0275 25.9037 17.0644 25.8835 17.096C25.8628 17.1264 25.8344 17.1508 25.8013 17.1668C25.825 17.1814 25.8447 17.2018 25.8583 17.2261C25.872 17.2505 25.8792 17.2778 25.8794 17.3057ZM25.6747 17.388C25.6873 17.3784 25.6974 17.3659 25.7041 17.3516C25.7108 17.3373 25.714 17.3215 25.7133 17.3057C25.7135 17.2926 25.7105 17.2796 25.7046 17.2679C25.6988 17.2562 25.6902 17.246 25.6796 17.2383C25.6523 17.2205 25.62 17.2118 25.5875 17.2136C25.5512 17.2119 25.5153 17.2224 25.4855 17.2432C25.4728 17.2527 25.4627 17.2652 25.4561 17.2795C25.4495 17.2939 25.4466 17.3097 25.4477 17.3255C25.4474 17.3389 25.4503 17.3523 25.4564 17.3643C25.4624 17.3763 25.4713 17.3867 25.4822 17.3945C25.5092 17.4124 25.5412 17.4214 25.5735 17.42C25.6099 17.4212 25.6456 17.4099 25.6747 17.388ZM25.5645 16.9513C25.5539 16.9599 25.5455 16.9708 25.5399 16.9833C25.5344 16.9957 25.5318 17.0092 25.5324 17.0228C25.5321 17.034 25.5344 17.045 25.5393 17.0551C25.5442 17.0651 25.5514 17.0738 25.5604 17.0804C25.5827 17.0959 25.6097 17.1035 25.6368 17.1018C25.6663 17.1029 25.6953 17.0939 25.7191 17.0763C25.7297 17.0681 25.7382 17.0575 25.7438 17.0453C25.7494 17.0331 25.7519 17.0198 25.7511 17.0064C25.7514 16.9949 25.749 16.9836 25.744 16.9733C25.739 16.963 25.7315 16.954 25.7224 16.9472C25.7001 16.932 25.6736 16.9245 25.6467 16.9258C25.6172 16.9247 25.5882 16.9337 25.5645 16.9513Z" fill="#6265E8"/>
<path d="M26.4364 18.667H24.7605C24.7224 18.6698 24.6868 18.6869 24.6608 18.7149C24.6348 18.7429 24.6204 18.7797 24.6204 18.8179C24.6204 18.8561 24.6348 18.8929 24.6608 18.9209C24.6868 18.9488 24.7224 18.966 24.7605 18.9688H26.4364C26.4745 18.966 26.5101 18.9488 26.5361 18.9209C26.5621 18.8929 26.5766 18.8561 26.5766 18.8179C26.5766 18.7797 26.5621 18.7429 26.5361 18.7149C26.5101 18.6869 26.4745 18.6698 26.4364 18.667Z" fill="#6265E8"/>
<path opacity="0.9" d="M26.4364 18.667H24.7605C24.7224 18.6698 24.6868 18.6869 24.6608 18.7149C24.6348 18.7429 24.6204 18.7797 24.6204 18.8179C24.6204 18.8561 24.6348 18.8929 24.6608 18.9209C24.6868 18.9488 24.7224 18.966 24.7605 18.9688H26.4364C26.4745 18.966 26.5101 18.9488 26.5361 18.9209C26.5621 18.8929 26.5766 18.8561 26.5766 18.8179C26.5766 18.7797 26.5621 18.7429 26.5361 18.7149C26.5101 18.6869 26.4745 18.6698 26.4364 18.667Z" fill="white"/>
<path opacity="0.2" d="M26.4504 19.3334C26.4504 19.4296 26.0705 19.5077 25.6018 19.5077C25.1331 19.5077 24.7532 19.4296 24.7532 19.3334C24.7532 19.2371 25.1331 19.1582 25.6018 19.1582C26.0705 19.1582 26.4504 19.2363 26.4504 19.3334Z" fill="#1A0F1C"/>
<path d="M14.7042 13.4394C14.6219 13.5126 14.6219 13.7091 14.6219 13.7091H14.3201C14.3152 12.9526 14.5438 12.9082 14.5438 12.9082L14.6359 13.0505L14.7042 13.3087V13.4394Z" fill="#6265E8"/>
<path opacity="0.9" d="M14.7042 13.4394C14.6219 13.5126 14.6219 13.7091 14.6219 13.7091H14.3201C14.3152 12.9526 14.5438 12.9082 14.5438 12.9082L14.6359 13.0505L14.7042 13.3087V13.4394Z" fill="white"/>
<path d="M14.6283 13.6484L14.3215 13.6328C14.3215 13.6583 14.3215 13.6822 14.3215 13.7085H14.625C14.625 13.6884 14.6261 13.6684 14.6283 13.6484Z" fill="#6265E8"/>
<path opacity="0.7" d="M14.6283 13.6484L14.3215 13.6328C14.3215 13.6583 14.3215 13.6822 14.3215 13.7085H14.625C14.625 13.6884 14.6261 13.6684 14.6283 13.6484Z" fill="white"/>
<path d="M15.8977 13.4394C15.9799 13.5126 15.9799 13.7091 15.9799 13.7091H16.2834C16.2883 12.9526 16.0589 12.9082 16.0589 12.9082L15.8994 13.1919L15.8977 13.4394Z" fill="#6265E8"/>
<path opacity="0.9" d="M15.8977 13.4394C15.9799 13.5126 15.9799 13.7091 15.9799 13.7091H16.2834C16.2883 12.9526 16.0589 12.9082 16.0589 12.9082L15.8994 13.1919L15.8977 13.4394Z" fill="white"/>
<path d="M15.9739 13.6484L16.2806 13.6328C16.2806 13.6583 16.2806 13.6822 16.2806 13.7085H15.9772C15.9772 13.7085 15.9772 13.6838 15.9739 13.6484Z" fill="#6265E8"/>
<path opacity="0.7" d="M15.9739 13.6484L16.2806 13.6328C16.2806 13.6583 16.2806 13.6822 16.2806 13.7085H15.9772C15.9772 13.7085 15.9772 13.6838 15.9739 13.6484Z" fill="white"/>
<path d="M16.0631 12.9084L15.3098 12.7324H15.2901L14.5369 12.9084C14.5369 12.9084 14.8855 13.5663 14.7063 14.8384C14.7063 14.8384 14.902 14.9881 15.2901 14.9881H15.3098C15.6988 14.9881 15.8937 14.8384 15.8937 14.8384C15.7144 13.5646 16.0631 12.9084 16.0631 12.9084Z" fill="#6265E8"/>
<path opacity="0.8" d="M16.0631 12.9084L15.3098 12.7324H15.2901L14.5369 12.9084C14.5369 12.9084 14.8855 13.5663 14.7063 14.8384C14.7063 14.8384 14.902 14.9881 15.2901 14.9881H15.3098C15.6988 14.9881 15.8937 14.8384 15.8937 14.8384C15.7144 13.5646 16.0631 12.9084 16.0631 12.9084Z" fill="white"/>
<path d="M14.5852 13.0192C14.591 13.0357 14.5984 13.0554 14.6049 13.076C14.7824 13.0355 14.9532 12.9702 15.1123 12.8819L15.0827 12.8301C14.9266 12.9163 14.7591 12.9799 14.5852 13.0192Z" fill="#6265E8"/>
<path d="M15.5176 12.8301L15.488 12.8819C15.6472 12.9702 15.818 13.0355 15.9954 13.076C16.002 13.0554 16.0094 13.0357 16.0151 13.0192C15.8412 12.9799 15.6737 12.9163 15.5176 12.8301Z" fill="#6265E8"/>
<g opacity="0.2">
<path d="M14.5852 13.0192C14.591 13.0357 14.5984 13.0554 14.6049 13.076C14.7824 13.0355 14.9532 12.9702 15.1123 12.8819L15.0827 12.8301C14.9266 12.9163 14.7591 12.9799 14.5852 13.0192Z" fill="#1A0F1C"/>
<path d="M15.5176 12.8301L15.488 12.8819C15.6472 12.9702 15.818 13.0355 15.9954 13.076C16.002 13.0554 16.0094 13.0357 16.0151 13.0192C15.8412 12.9799 15.6737 12.9163 15.5176 12.8301Z" fill="#1A0F1C"/>
</g>
<path d="M15.0413 12.6689H15.5602V12.7824L15.4706 12.8712L15.2971 12.914C15.2971 12.914 15.2699 12.9962 15.1589 12.8827L15.0471 12.7652L15.0364 12.7068L15.0413 12.6689Z" fill="#6265E8"/>
<path opacity="0.7" d="M15.0413 12.6689H15.5602V12.7824L15.4706 12.8712L15.2971 12.914C15.2971 12.914 15.2699 12.9962 15.1589 12.8827L15.0471 12.7652L15.0364 12.7068L15.0413 12.6689Z" fill="white"/>
<path opacity="0.4" d="M15.0413 12.6689H15.5602V12.7824L15.4706 12.8712L15.2971 12.914C15.2971 12.914 15.2699 12.9962 15.1589 12.8827L15.0471 12.7652L15.0364 12.7068L15.0413 12.6689Z" fill="#1A0F1C"/>
<path d="M15.3282 12.9688C15.3856 12.963 15.4411 12.9447 15.4907 12.9151C15.5402 12.8856 15.5827 12.8455 15.6152 12.7977L15.5601 12.667C15.5373 12.7142 15.5049 12.7562 15.465 12.7902C15.4251 12.8242 15.3785 12.8495 15.3282 12.8643H15.2731C15.2228 12.8495 15.1762 12.8242 15.1362 12.7902C15.0963 12.7562 15.0639 12.7142 15.0412 12.667L14.9861 12.7977C15.0185 12.8455 15.061 12.8856 15.1106 12.9151C15.1602 12.9447 15.2156 12.963 15.2731 12.9688H15.3282Z" fill="#6265E8"/>
<path d="M15.1311 13.2793L14.9889 13.989H14.8244L14.9395 13.4133H14.7981L14.8244 13.2818L15.1311 13.2793Z" fill="#6265E8"/>
<path d="M15.2446 13.928C15.2206 13.9014 15.2021 13.8704 15.1903 13.8367C15.1784 13.8029 15.1734 13.7671 15.1755 13.7314C15.1746 13.6509 15.1906 13.571 15.2224 13.4971C15.2509 13.4304 15.2962 13.3723 15.354 13.3285C15.4093 13.2873 15.4766 13.2654 15.5456 13.266C15.5801 13.2641 15.6146 13.2695 15.6469 13.2818C15.6792 13.2942 15.7086 13.3131 15.7331 13.3375C15.7808 13.3918 15.8053 13.4627 15.8013 13.5349C15.8021 13.6152 15.7862 13.6947 15.7544 13.7684C15.7267 13.8355 15.6812 13.8938 15.6229 13.937C15.568 13.9785 15.5009 14.0005 15.4321 13.9995C15.3976 14.0014 15.363 13.996 15.3307 13.9837C15.2984 13.9713 15.2691 13.9524 15.2446 13.928ZM15.5489 13.8104C15.5793 13.7733 15.6015 13.7301 15.6138 13.6837C15.6281 13.6368 15.6356 13.5881 15.636 13.539C15.6388 13.5032 15.6292 13.4675 15.6089 13.4379C15.5987 13.4263 15.586 13.4173 15.5717 13.4116C15.5574 13.4059 15.542 13.4036 15.5267 13.405C15.5069 13.4052 15.4875 13.4099 15.4698 13.4188C15.4522 13.4276 15.4367 13.4403 15.4247 13.4559C15.3944 13.4928 15.3723 13.5357 15.3597 13.5818C15.3454 13.629 15.3379 13.678 15.3375 13.7273C15.3345 13.763 15.3444 13.7987 15.3655 13.8276C15.375 13.8389 15.387 13.8478 15.4006 13.8537C15.4141 13.8595 15.4289 13.8622 15.4436 13.8614C15.4639 13.8616 15.484 13.8571 15.5023 13.8483C15.5205 13.8394 15.5365 13.8265 15.5489 13.8104Z" fill="#6265E8"/>
<path d="M16.1383 15.1475H14.4632C14.4233 15.1475 14.385 15.1633 14.3568 15.1915C14.3286 15.2198 14.3127 15.258 14.3127 15.2979C14.3127 15.3379 14.3286 15.3761 14.3568 15.4044C14.385 15.4326 14.4233 15.4484 14.4632 15.4484H16.1383C16.1782 15.4484 16.2165 15.4326 16.2447 15.4044C16.2729 15.3761 16.2888 15.3379 16.2888 15.2979C16.2888 15.258 16.2729 15.2198 16.2447 15.1915C16.2165 15.1633 16.1782 15.1475 16.1383 15.1475Z" fill="#6265E8"/>
<path opacity="0.9" d="M16.1383 15.1475H14.4632C14.4233 15.1475 14.385 15.1633 14.3568 15.1915C14.3286 15.2198 14.3127 15.258 14.3127 15.2979C14.3127 15.3379 14.3286 15.3761 14.3568 15.4044C14.385 15.4326 14.4233 15.4484 14.4632 15.4484H16.1383C16.1782 15.4484 16.2165 15.4326 16.2447 15.4044C16.2729 15.3761 16.2888 15.3379 16.2888 15.2979C16.2888 15.258 16.2729 15.2198 16.2447 15.1915C16.2165 15.1633 16.1782 15.1475 16.1383 15.1475Z" fill="white"/>
<path opacity="0.2" d="M15.3001 15.988C15.7687 15.988 16.1487 15.9096 16.1487 15.8128C16.1487 15.7161 15.7687 15.6377 15.3001 15.6377C14.8314 15.6377 14.4514 15.7161 14.4514 15.8128C14.4514 15.9096 14.8314 15.988 15.3001 15.988Z" fill="#1A0F1C"/>
<path d="M19.3582 13.4394C19.2759 13.5126 19.2759 13.7091 19.2759 13.7091H18.9725C18.9676 12.9526 19.1962 12.9082 19.1962 12.9082L19.2891 13.0505L19.3565 13.3087L19.3582 13.4394Z" fill="#6265E8"/>
<path opacity="0.9" d="M19.3582 13.4394C19.2759 13.5126 19.2759 13.7091 19.2759 13.7091H18.9725C18.9676 12.9526 19.1962 12.9082 19.1962 12.9082L19.2891 13.0505L19.3565 13.3087L19.3582 13.4394Z" fill="white"/>
<path d="M19.2811 13.6484L18.9744 13.6328C18.9744 13.6583 18.9744 13.6822 18.9744 13.7085H19.2778C19.2779 13.6884 19.2789 13.6684 19.2811 13.6484Z" fill="#6265E8"/>
<path opacity="0.7" d="M19.2811 13.6484L18.9744 13.6328C18.9744 13.6583 18.9744 13.6822 18.9744 13.7085H19.2778C19.2779 13.6884 19.2789 13.6684 19.2811 13.6484Z" fill="white"/>
<path d="M20.5515 13.4394C20.6338 13.5126 20.6338 13.7091 20.6338 13.7091H20.9372C20.9421 12.9526 20.7135 12.9082 20.7135 12.9082L20.5491 13.1919L20.5515 13.4394Z" fill="#6265E8"/>
<path opacity="0.9" d="M20.5515 13.4394C20.6338 13.5126 20.6338 13.7091 20.6338 13.7091H20.9372C20.9421 12.9526 20.7135 12.9082 20.7135 12.9082L20.5491 13.1919L20.5515 13.4394Z" fill="white"/>
<path d="M20.6282 13.6484L20.9349 13.6328C20.9349 13.6583 20.9349 13.6822 20.9349 13.7085H20.6315C20.6315 13.7085 20.6315 13.6838 20.6282 13.6484Z" fill="#6265E8"/>
<path opacity="0.7" d="M20.6282 13.6484L20.9349 13.6328C20.9349 13.6583 20.9349 13.6822 20.9349 13.7085H20.6315C20.6315 13.7085 20.6315 13.6838 20.6282 13.6484Z" fill="white"/>
<path d="M20.7166 12.9084L19.9641 12.7324H19.9436L19.1912 12.9084C19.1912 12.9084 19.539 13.5663 19.3597 14.8384C19.3597 14.8384 19.5555 14.9881 19.9436 14.9881H19.9641C20.3523 14.9881 20.5472 14.8384 20.5472 14.8384C20.3646 13.5646 20.7166 12.9084 20.7166 12.9084Z" fill="#6265E8"/>
<path opacity="0.8" d="M20.7166 12.9084L19.9641 12.7324H19.9436L19.1912 12.9084C19.1912 12.9084 19.539 13.5663 19.3597 14.8384C19.3597 14.8384 19.5555 14.9881 19.9436 14.9881H19.9641C20.3523 14.9881 20.5472 14.8384 20.5472 14.8384C20.3646 13.5646 20.7166 12.9084 20.7166 12.9084Z" fill="white"/>
<path d="M19.238 13.0192C19.2446 13.0357 19.2512 13.0554 19.2578 13.076C19.4352 13.0356 19.6061 12.9703 19.7651 12.8819L19.7355 12.8301C19.5795 12.9163 19.412 12.9799 19.238 13.0192Z" fill="#6265E8"/>
<path d="M20.1713 12.8301L20.1409 12.8819C20.3 12.9702 20.4708 13.0355 20.6482 13.076L20.668 13.0192C20.4943 12.9799 20.3271 12.9162 20.1713 12.8301Z" fill="#6265E8"/>
<g opacity="0.2">
<path d="M19.238 13.0192C19.2446 13.0357 19.2512 13.0554 19.2578 13.076C19.4352 13.0356 19.6061 12.9703 19.7651 12.8819L19.7355 12.8301C19.5795 12.9163 19.412 12.9799 19.238 13.0192Z" fill="#1A0F1C"/>
<path d="M20.172 12.8301L20.1416 12.8819C20.3007 12.9702 20.4715 13.0355 20.649 13.076L20.6687 13.0192C20.4951 12.9799 20.3279 12.9162 20.172 12.8301Z" fill="#1A0F1C"/>
</g>
<path d="M19.6965 12.6689H20.2146V12.7824L20.1241 12.8712L19.9506 12.914C19.9506 12.914 19.9243 12.9962 19.8125 12.8827L19.7072 12.7652L19.6965 12.7068V12.6689Z" fill="#6265E8"/>
<path opacity="0.7" d="M19.6965 12.6689H20.2146V12.7824L20.1241 12.8712L19.9506 12.914C19.9506 12.914 19.9243 12.9962 19.8125 12.8827L19.7072 12.7652L19.6965 12.7068V12.6689Z" fill="white"/>
<path opacity="0.4" d="M19.6965 12.6689H20.2146V12.7824L20.1241 12.8712L19.9506 12.914C19.9506 12.914 19.9243 12.9962 19.8125 12.8827L19.7072 12.7652L19.6965 12.7068V12.6689Z" fill="#1A0F1C"/>
<path d="M19.9817 12.9688C20.0392 12.963 20.0946 12.9447 20.1442 12.9151C20.1938 12.8856 20.2363 12.8455 20.2687 12.7977L20.2136 12.667C20.1909 12.7142 20.1585 12.7562 20.1186 12.7902C20.0786 12.8242 20.032 12.8495 19.9817 12.8643H19.9275C19.8771 12.8495 19.8305 12.8243 19.7905 12.7903C19.7506 12.7563 19.7182 12.7143 19.6956 12.667L19.6396 12.7977C19.6723 12.8455 19.7149 12.8855 19.7647 12.9151C19.8144 12.9446 19.8699 12.9629 19.9275 12.9688H19.9817Z" fill="#6265E8"/>
<path d="M20.1308 13.2978C20.1733 13.32 20.2082 13.3543 20.2311 13.3965C20.256 13.4456 20.2682 13.5001 20.2665 13.5552C20.2665 13.6272 20.2511 13.6984 20.2212 13.764C20.1902 13.8311 20.1409 13.8881 20.079 13.9285C20.0085 13.9745 19.9255 13.9975 19.8413 13.9943C19.8037 13.9944 19.7662 13.9903 19.7295 13.9819C19.6984 13.9759 19.6689 13.9639 19.6423 13.9466L19.718 13.8265C19.7576 13.8512 19.8038 13.8633 19.8504 13.8611C19.9085 13.8638 19.9655 13.8437 20.0091 13.8051C20.0495 13.7665 20.0768 13.7162 20.0872 13.6612C20.0437 13.7001 19.9868 13.7205 19.9285 13.718C19.8882 13.7185 19.8484 13.7101 19.8117 13.6933C19.7783 13.6782 19.7498 13.654 19.7295 13.6234C19.7079 13.5908 19.697 13.5523 19.6983 13.5132C19.6973 13.4661 19.7101 13.4198 19.7353 13.38C19.7602 13.3419 19.7952 13.3114 19.8364 13.292C19.8822 13.2708 19.9323 13.2601 19.9828 13.2608C20.0344 13.2611 20.0851 13.2738 20.1308 13.2978ZM20.0642 13.5675C20.0759 13.5573 20.0852 13.5447 20.0913 13.5304C20.0974 13.5162 20.1002 13.5008 20.0995 13.4853C20.0997 13.4719 20.097 13.4587 20.0916 13.4465C20.0862 13.4343 20.0783 13.4234 20.0683 13.4145C20.0456 13.3947 20.0162 13.3841 19.9861 13.3849C19.9534 13.3836 19.9215 13.3951 19.8973 13.417C19.8859 13.4274 19.877 13.4402 19.871 13.4544C19.865 13.4685 19.8622 13.4839 19.8627 13.4992C19.8618 13.5125 19.864 13.5258 19.8693 13.5379C19.8746 13.5501 19.8828 13.5608 19.8931 13.5691C19.9164 13.5877 19.9457 13.5971 19.9754 13.5955C20.007 13.5974 20.0384 13.5884 20.0642 13.57V13.5675Z" fill="#6265E8"/>
<path d="M20.7926 15.1475H19.1175C19.0776 15.1475 19.0393 15.1633 19.0111 15.1915C18.9829 15.2198 18.967 15.258 18.967 15.2979C18.967 15.3379 18.9829 15.3761 19.0111 15.4044C19.0393 15.4326 19.0776 15.4484 19.1175 15.4484H20.7926C20.8325 15.4484 20.8708 15.4326 20.899 15.4044C20.9272 15.3761 20.9431 15.3379 20.9431 15.2979C20.9431 15.258 20.9272 15.2198 20.899 15.1915C20.8708 15.1633 20.8325 15.1475 20.7926 15.1475Z" fill="#6265E8"/>
<path opacity="0.9" d="M20.7926 15.1475H19.1175C19.0776 15.1475 19.0393 15.1633 19.0111 15.1915C18.9829 15.2198 18.967 15.258 18.967 15.2979C18.967 15.3379 18.9829 15.3761 19.0111 15.4044C19.0393 15.4326 19.0776 15.4484 19.1175 15.4484H20.7926C20.8325 15.4484 20.8708 15.4326 20.899 15.4044C20.9272 15.3761 20.9431 15.3379 20.9431 15.2979C20.9431 15.258 20.9272 15.2198 20.899 15.1915C20.8708 15.1633 20.8325 15.1475 20.7926 15.1475Z" fill="white"/>
<path opacity="0.2" d="M19.9539 15.988C20.4226 15.988 20.8025 15.9096 20.8025 15.8128C20.8025 15.7161 20.4226 15.6377 19.9539 15.6377C19.4852 15.6377 19.1052 15.7161 19.1052 15.8128C19.1052 15.9096 19.4852 15.988 19.9539 15.988Z" fill="#1A0F1C"/>
<path d="M24.2851 13.4394C24.207 13.5126 24.2028 13.7091 24.2028 13.7091H23.9002C23.8953 12.9526 24.1247 12.9082 24.1247 12.9082L24.2168 13.0505L24.2843 13.3087L24.2851 13.4394Z" fill="#6265E8"/>
<path opacity="0.9" d="M24.2851 13.4394C24.207 13.5126 24.2028 13.7091 24.2028 13.7091H23.9002C23.8953 12.9526 24.1247 12.9082 24.1247 12.9082L24.2168 13.0505L24.2843 13.3087L24.2851 13.4394Z" fill="white"/>
<path d="M24.2093 13.6484L23.9026 13.6328C23.9026 13.6583 23.9026 13.6822 23.9026 13.7085H24.206C24.206 13.7085 24.206 13.6838 24.2093 13.6484Z" fill="#6265E8"/>
<path opacity="0.7" d="M24.2093 13.6484L23.9026 13.6328C23.9026 13.6583 23.9026 13.6822 23.9026 13.7085H24.206C24.206 13.7085 24.206 13.6838 24.2093 13.6484Z" fill="white"/>
<path d="M25.4783 13.4394C25.5605 13.5126 25.5605 13.7091 25.5605 13.7091H25.8639C25.8689 12.9526 25.6403 12.9082 25.6403 12.9082L25.4799 13.1919L25.4783 13.4394Z" fill="#6265E8"/>
<path opacity="0.9" d="M25.4783 13.4394C25.5605 13.5126 25.5605 13.7091 25.5605 13.7091H25.8639C25.8689 12.9526 25.6403 12.9082 25.6403 12.9082L25.4799 13.1919L25.4783 13.4394Z" fill="white"/>
<path d="M25.5549 13.6484L25.8617 13.6328C25.8617 13.6583 25.8617 13.6822 25.8617 13.7085H25.5582C25.5582 13.6884 25.5571 13.6684 25.5549 13.6484Z" fill="#6265E8"/>
<path opacity="0.7" d="M25.5549 13.6484L25.8617 13.6328C25.8617 13.6583 25.8617 13.6822 25.8617 13.7085H25.5582C25.5582 13.6884 25.5571 13.6684 25.5549 13.6484Z" fill="white"/>
<path d="M25.6438 12.9084L24.8914 12.7324H24.8708L24.1184 12.9084C24.1184 12.9084 24.4663 13.5663 24.287 14.8384C24.287 14.8384 24.4827 14.9881 24.8708 14.9881H24.8914C25.2795 14.9881 25.4744 14.8384 25.4744 14.8384C25.2984 13.5646 25.6438 12.9084 25.6438 12.9084Z" fill="#6265E8"/>
<path opacity="0.8" d="M25.6438 12.9084L24.8914 12.7324H24.8708L24.1184 12.9084C24.1184 12.9084 24.4663 13.5663 24.287 14.8384C24.287 14.8384 24.4827 14.9881 24.8708 14.9881H24.8914C25.2795 14.9881 25.4744 14.8384 25.4744 14.8384C25.2984 13.5646 25.6438 12.9084 25.6438 12.9084Z" fill="white"/>
<path d="M24.1653 13.0192C24.1719 13.0357 24.1784 13.0554 24.1858 13.076C24.3632 13.0354 24.534 12.97 24.6932 12.8819L24.6628 12.8301C24.5068 12.9164 24.3392 12.9801 24.1653 13.0192Z" fill="#6265E8"/>
<path d="M25.099 12.8301L25.0686 12.8819C25.2278 12.97 25.3986 13.0354 25.576 13.076C25.5834 13.0554 25.59 13.0357 25.5965 13.0192C25.4226 12.9801 25.2551 12.9164 25.099 12.8301Z" fill="#6265E8"/>
<g opacity="0.2">
<path d="M24.1653 13.0192C24.1719 13.0357 24.1784 13.0554 24.1858 13.076C24.3632 13.0354 24.534 12.97 24.6932 12.8819L24.6628 12.8301C24.5068 12.9164 24.3392 12.9801 24.1653 13.0192Z" fill="#1A0F1C"/>
<path d="M25.0993 12.8301L25.0688 12.8819C25.228 12.97 25.3988 13.0354 25.5762 13.076C25.5836 13.0554 25.5902 13.0357 25.5968 13.0192C25.4228 12.9801 25.2553 12.9164 25.0993 12.8301Z" fill="#1A0F1C"/>
</g>
<path d="M24.623 12.6689H25.1411V12.7824L25.0506 12.8712L24.8771 12.914C24.8771 12.914 24.8508 12.9962 24.739 12.8827L24.6271 12.7652L24.6165 12.7068L24.623 12.6689Z" fill="#6265E8"/>
<path opacity="0.7" d="M24.623 12.6689H25.1411V12.7824L25.0506 12.8712L24.8771 12.914C24.8771 12.914 24.8508 12.9962 24.739 12.8827L24.6271 12.7652L24.6165 12.7068L24.623 12.6689Z" fill="white"/>
<path opacity="0.4" d="M24.623 12.6689H25.1411V12.7824L25.0506 12.8712L24.8771 12.914C24.8771 12.914 24.8508 12.9962 24.739 12.8827L24.6271 12.7652L24.6165 12.7068L24.623 12.6689Z" fill="#1A0F1C"/>
<path d="M24.9094 12.9688C24.9668 12.963 25.0223 12.9447 25.0719 12.9151C25.1214 12.8856 25.164 12.8455 25.1964 12.7977L25.1413 12.667C25.1186 12.7143 25.0863 12.7563 25.0463 12.7903C25.0064 12.8243 24.9597 12.8495 24.9094 12.8643H24.8551C24.8048 12.8495 24.7582 12.8242 24.7183 12.7902C24.6783 12.7562 24.646 12.7142 24.6232 12.667L24.5681 12.7977C24.6005 12.8455 24.643 12.8856 24.6926 12.9151C24.7422 12.9447 24.7977 12.963 24.8551 12.9688H24.9094Z" fill="#6265E8"/>
<path d="M24.8496 13.2666L24.7081 13.9763H24.5436L24.6596 13.4006H24.5173L24.5436 13.2691L24.8496 13.2666Z" fill="#6265E8"/>
<path d="M25.2465 13.2666L25.1051 13.9763H24.9406L25.0566 13.4006H24.9143L24.9406 13.2691L25.2465 13.2666Z" fill="#6265E8"/>
<path d="M25.7198 15.1475H24.0448C24.0049 15.1475 23.9666 15.1633 23.9384 15.1915C23.9101 15.2198 23.8943 15.258 23.8943 15.2979C23.8943 15.3379 23.9101 15.3761 23.9384 15.4044C23.9666 15.4326 24.0049 15.4484 24.0448 15.4484H25.7198C25.7598 15.4484 25.798 15.4326 25.8263 15.4044C25.8545 15.3761 25.8703 15.3379 25.8703 15.2979C25.8703 15.258 25.8545 15.2198 25.8263 15.1915C25.798 15.1633 25.7598 15.1475 25.7198 15.1475Z" fill="#6265E8"/>
<path opacity="0.9" d="M25.7198 15.1475H24.0448C24.0049 15.1475 23.9666 15.1633 23.9384 15.1915C23.9101 15.2198 23.8943 15.258 23.8943 15.2979C23.8943 15.3379 23.9101 15.3761 23.9384 15.4044C23.9666 15.4326 24.0049 15.4484 24.0448 15.4484H25.7198C25.7598 15.4484 25.798 15.4326 25.8263 15.4044C25.8545 15.3761 25.8703 15.3379 25.8703 15.2979C25.8703 15.258 25.8545 15.2198 25.8263 15.1915C25.798 15.1633 25.7598 15.1475 25.7198 15.1475Z" fill="white"/>
<path opacity="0.2" d="M24.8821 15.988C25.3508 15.988 25.7307 15.9096 25.7307 15.8128C25.7307 15.7161 25.3508 15.6377 24.8821 15.6377C24.4134 15.6377 24.0334 15.7161 24.0334 15.8128C24.0334 15.9096 24.4134 15.988 24.8821 15.988Z" fill="#1A0F1C"/>
</svg>
