<svg width="22" height="17" viewBox="0 0 22 17" fill="none" xmlns="http://www.w3.org/2000/svg">
<path d="M4.26813 7.82804C3.83836 8.25781 3.83836 8.95723 4.26813 9.39122C4.6979 9.82098 5.39732 9.82098 5.83131 9.39122C8.80598 6.41654 13.6472 6.41654 16.6219 9.39122C16.8368 9.6061 17.1191 9.71565 17.4014 9.71565C17.6837 9.71565 17.966 9.6061 18.1808 9.39122C18.6106 8.96145 18.6106 8.26202 18.1808 7.82804C14.3466 3.98961 8.10234 3.98961 4.26813 7.82804Z" fill="#6265E8"/>
<path d="M7.25153 10.8107C6.82176 11.2404 6.82176 11.9399 7.25153 12.3739C7.68129 12.8036 8.38072 12.8036 8.8147 12.3739C10.1419 11.0424 12.3076 11.0424 13.6349 12.3739C13.8497 12.5887 14.132 12.6983 14.4143 12.6983C14.6966 12.6983 14.9789 12.5887 15.1938 12.3739C15.6236 11.9441 15.6236 11.2447 15.1938 10.8149C13.0071 8.6197 9.4425 8.6197 7.25153 10.8107Z" fill="#6265E8"/>
<path d="M11.2249 16.2505C12.037 16.2505 12.6954 15.5922 12.6954 14.7801C12.6954 13.9679 12.037 13.3096 11.2249 13.3096C10.4128 13.3096 9.75439 13.9679 9.75439 14.7801C9.75439 15.5922 10.4128 16.2505 11.2249 16.2505Z" fill="#6265E8"/>
<path d="M21.2104 4.79404C15.7035 -0.708689 6.74577 -0.708689 1.23883 4.79404C0.809062 5.22381 0.809062 5.92323 1.23883 6.35722C1.6686 6.78698 2.36803 6.78698 2.80201 6.35722C7.4452 1.70981 15.0041 1.70981 19.6515 6.35722C19.8664 6.5721 20.1487 6.68165 20.431 6.68165C20.7133 6.68165 20.9956 6.5721 21.2104 6.35722C21.6402 5.92745 21.6402 5.22802 21.2104 4.79404Z" fill="#6265E8"/>
</svg>
