<svg width="71" height="71" viewBox="0 0 71 71" fill="none" xmlns="http://www.w3.org/2000/svg">
<rect x="0.549805" y="0.5" width="70" height="70" rx="35" fill="#E5E7EB"/>
<path d="M28.987 29.666C30.1473 29.666 31.2601 29.2051 32.0806 28.3846C32.901 27.5641 33.362 26.4513 33.362 25.291C33.362 24.1307 32.901 23.0179 32.0806 22.1974C31.2601 21.377 30.1473 20.916 28.987 20.916C27.8266 20.916 26.7138 21.377 25.8934 22.1974C25.0729 23.0179 24.612 24.1307 24.612 25.291C24.612 26.4513 25.0729 27.5641 25.8934 28.3846C26.7138 29.2051 27.8266 29.666 28.987 29.666ZM20.9661 33.7027C20.9661 32.2764 22.1197 31.1243 23.5445 31.1243H30.4963C29.9836 32.0107 29.7144 33.017 29.7161 34.041C29.7151 34.8687 29.8908 35.6872 30.2313 36.4416C30.5718 37.1961 31.0693 37.8692 31.6907 38.416H30.107C29.285 38.416 28.4827 38.6668 27.807 39.1348C27.1313 39.6028 26.6145 40.2657 26.3255 41.0352C24.1409 40.5014 22.7861 39.31 21.9884 37.9829C20.9661 36.281 20.9661 34.531 20.9661 34.2262V33.7027ZM41.3828 34.041C41.3846 33.017 41.1154 32.0107 40.6026 31.1243H47.5545C48.9807 31.1243 50.1328 32.2779 50.1328 33.7027V34.2277C50.1328 34.5296 50.1328 36.281 49.112 37.9829C48.3128 39.31 46.958 40.5014 44.7734 41.0352C44.4846 40.2656 43.9678 39.6026 43.2921 39.1345C42.6164 38.6665 41.8139 38.4158 40.992 38.416H39.4082C40.0296 37.8692 40.5271 37.1961 40.8676 36.4416C41.2081 35.6872 41.3838 34.8687 41.3828 34.041ZM46.487 25.291C46.487 26.4513 46.026 27.5641 45.2056 28.3846C44.3851 29.2051 43.2723 29.666 42.112 29.666C40.9516 29.666 39.8388 29.2051 39.0184 28.3846C38.1979 27.5641 37.737 26.4513 37.737 25.291C37.737 24.1307 38.1979 23.0179 39.0184 22.1974C39.8388 21.377 40.9516 20.916 42.112 20.916C43.2723 20.916 44.3851 21.377 45.2056 22.1974C46.026 23.0179 46.487 24.1307 46.487 25.291ZM27.5286 42.4527C27.5286 41.0264 28.6822 39.8743 30.107 39.8743H40.992C42.4167 39.8743 43.5703 41.0279 43.5703 42.4527V42.9777C43.5703 43.2796 43.5703 45.031 42.5495 46.7329C41.4659 48.5325 39.3601 50.0827 35.5495 50.0827C31.7388 50.0827 29.6315 48.5325 28.5495 46.7329C27.5286 45.031 27.5286 43.281 27.5286 42.9762V42.4527ZM35.5495 38.416C36.124 38.416 36.6929 38.3029 37.2237 38.083C37.7545 37.8631 38.2368 37.5409 38.6431 37.1346C39.0493 36.7284 39.3716 36.2461 39.5914 35.7153C39.8113 35.1845 39.9245 34.6155 39.9245 34.041C39.9245 33.4665 39.8113 32.8976 39.5914 32.3668C39.3716 31.836 39.0493 31.3537 38.6431 30.9474C38.2368 30.5412 37.7545 30.2189 37.2237 29.999C36.6929 29.7792 36.124 29.666 35.5495 29.666C34.3891 29.666 33.2763 30.127 32.4559 30.9474C31.6354 31.7679 31.1745 32.8807 31.1745 34.041C31.1745 35.2013 31.6354 36.3141 32.4559 37.1346C33.2763 37.9551 34.3891 38.416 35.5495 38.416Z" fill="#1A89F8"/>
</svg>
