<svg width="58" height="58" viewBox="0 0 58 58" fill="none" xmlns="http://www.w3.org/2000/svg">
<path d="M29.0001 20.6666C24.4084 20.6666 20.6667 24.4083 20.6667 29C20.6667 33.5916 24.4084 37.3333 29.0001 37.3333C33.5917 37.3333 37.3334 33.5916 37.3334 29C37.3334 24.4083 33.5917 20.6666 29.0001 20.6666ZM31.8001 30.9166C32.0417 31.1583 32.0417 31.5583 31.8001 31.8C31.6751 31.925 31.5167 31.9833 31.3584 31.9833C31.2001 31.9833 31.0417 31.925 30.9167 31.8L29.0001 29.8833L27.0834 31.8C26.9584 31.925 26.8001 31.9833 26.6417 31.9833C26.4834 31.9833 26.3251 31.925 26.2001 31.8C25.9584 31.5583 25.9584 31.1583 26.2001 30.9166L28.1167 29L26.2001 27.0833C25.9584 26.8416 25.9584 26.4416 26.2001 26.2C26.4417 25.9583 26.8417 25.9583 27.0834 26.2L29.0001 28.1166L30.9167 26.2C31.1584 25.9583 31.5584 25.9583 31.8001 26.2C32.0417 26.4416 32.0417 26.8416 31.8001 27.0833L29.8834 29L31.8001 30.9166Z" fill="#A39FA4"/>
</svg>
