<svg width="20" height="17" viewBox="0 0 20 17" fill="none" xmlns="http://www.w3.org/2000/svg">
<path d="M15.4283 8.28343C17.3787 6.53003 17.5384 3.52752 15.785 1.57711C14.1769 -0.211726 11.4851 -0.515621 9.51864 0.869686C7.37493 -0.643216 4.41069 -0.13184 2.89779 2.01183C1.50957 3.97884 1.81223 6.67335 3.60223 8.28339C1.37811 9.4558 -0.0100209 11.7672 5.44782e-05 14.2814V16.3203C5.44782e-05 16.6957 0.304347 17 0.679726 17H18.3508C18.7262 17 19.0305 16.6957 19.0305 16.3203V14.2814C19.0405 11.7672 17.6524 9.4558 15.4283 8.28343ZM12.2339 1.36788C14.108 1.36581 15.6291 2.88345 15.6312 4.75764C15.6327 6.09428 14.8494 7.30727 13.6306 7.85588C13.5782 7.87965 13.5259 7.9014 13.4729 7.92386C13.3052 7.99152 13.1322 8.04536 12.9557 8.08495C12.9217 8.09243 12.8877 8.09649 12.853 8.1033C12.6558 8.1411 12.4557 8.16133 12.2549 8.1638C12.1645 8.1638 12.0734 8.15699 11.983 8.14886C11.9491 8.14886 11.9151 8.14886 11.8811 8.14205C11.4948 8.09657 11.119 7.98582 10.7699 7.81446C10.757 7.80833 10.742 7.80901 10.7291 7.80359C10.6611 7.77098 10.5932 7.74242 10.5327 7.7057C10.5381 7.69889 10.5415 7.69145 10.5469 7.68464C10.8586 7.28417 11.1043 6.83655 11.2748 6.35863L11.2959 6.30152C11.3734 6.07325 11.4336 5.83949 11.476 5.60214C11.4821 5.56749 11.4869 5.53416 11.4923 5.4968C11.5316 5.25519 11.5523 5.01095 11.5542 4.76616C11.5522 4.52184 11.5316 4.27804 11.4923 4.03687C11.4869 4.00154 11.4821 3.96889 11.476 3.93153C11.4336 3.69422 11.3734 3.46042 11.2959 3.23215L11.2748 3.17504C11.1043 2.69712 10.8585 2.2495 10.5469 1.84903C10.5415 1.84222 10.5381 1.83477 10.5327 1.82796C11.049 1.52674 11.6361 1.36792 12.2339 1.36788ZM3.39833 4.7662C3.39351 2.89424 4.90709 1.37282 6.77905 1.368C7.65652 1.36573 8.5007 1.70387 9.13398 2.31126C9.17341 2.34934 9.21215 2.38737 9.25019 2.42679C9.36691 2.54909 9.47455 2.67971 9.57236 2.81758C9.60227 2.85972 9.62947 2.9046 9.6573 2.94809C9.75228 3.09428 9.83567 3.24768 9.90672 3.40685C9.92372 3.4456 9.93663 3.48503 9.95156 3.52374C10.0232 3.6998 10.0796 3.88171 10.1201 4.06745C10.1249 4.08784 10.1263 4.10823 10.1303 4.1293C10.2164 4.55131 10.2164 4.98638 10.1303 5.40839C10.1263 5.42946 10.1249 5.44985 10.1201 5.47024C10.0796 5.65598 10.0232 5.83789 9.95156 6.01395C9.93663 6.0527 9.92368 6.09213 9.90672 6.13084C9.83559 6.28977 9.7522 6.44293 9.6573 6.58893C9.62943 6.63242 9.60227 6.6773 9.57236 6.71943C9.47459 6.85734 9.36691 6.98792 9.25019 7.11022C9.21211 7.14965 9.17337 7.18772 9.13398 7.22575C8.8588 7.48799 8.54152 7.70212 8.19538 7.85919C8.14034 7.88431 8.08459 7.90745 8.0282 7.92716C7.86436 7.9922 7.69579 8.04445 7.52391 8.08347C7.4811 8.09299 7.43689 8.09841 7.39341 8.10589C7.20886 8.14026 7.02173 8.1591 6.83404 8.16232H6.75929C6.5716 8.15914 6.38447 8.14026 6.19993 8.10589C6.15644 8.09841 6.11224 8.09299 6.06943 8.08347C5.89755 8.04445 5.72893 7.9922 5.56514 7.92716C5.50871 7.90474 5.453 7.88165 5.39796 7.85919C4.18198 7.31018 3.39988 6.10033 3.39833 4.7662ZM12.2339 15.6407H1.35936V14.2814C1.3494 11.9783 2.8005 9.92197 4.97376 9.15951C6.14043 9.64524 7.45274 9.64524 8.61946 9.15951C8.84637 9.24242 9.06751 9.34027 9.28145 9.45245C9.42282 9.52517 9.55332 9.60808 9.68924 9.69167C9.77761 9.74671 9.86729 9.80043 9.95228 9.86092C10.0835 9.95403 10.2071 10.0553 10.3288 10.1593C10.407 10.2273 10.4844 10.2952 10.5578 10.3632C10.67 10.4692 10.7753 10.5813 10.8766 10.6962C10.9493 10.7791 11.02 10.8634 11.0873 10.9504C11.1763 11.0646 11.2613 11.1815 11.3401 11.3018C11.4081 11.4037 11.4686 11.5097 11.5284 11.6158C11.5964 11.7327 11.6589 11.8496 11.716 11.9713C11.7731 12.0929 11.8234 12.2261 11.8723 12.356C11.9151 12.4688 11.9606 12.5809 11.9959 12.6958C12.0435 12.8534 12.0768 13.0166 12.1101 13.1797C12.1305 13.2762 12.157 13.3707 12.172 13.4685C12.2122 13.7376 12.2329 14.0093 12.2338 14.2814L12.2339 15.6407ZM17.6711 15.6407H13.5932V14.2814C13.5932 14.0687 13.581 13.8579 13.5619 13.6493C13.5565 13.5881 13.547 13.5277 13.5402 13.4665C13.5218 13.3163 13.5008 13.1674 13.4722 13.0199C13.46 12.957 13.4471 12.8937 13.4335 12.8303C13.4009 12.679 13.363 12.529 13.32 12.3804C13.3057 12.3314 13.2928 12.2818 13.2778 12.2336C13.0875 11.6252 12.8117 11.047 12.4589 10.5161L12.4323 10.4774C12.3155 10.3038 12.1906 10.1359 12.0578 9.97374L12.0531 9.96761C11.9172 9.79908 11.7697 9.63524 11.6147 9.48029C11.6236 9.48029 11.6331 9.48029 11.6426 9.48029C11.8344 9.5055 12.0275 9.51912 12.221 9.52107H12.2584C12.4374 9.51952 12.6162 9.50793 12.794 9.48642C12.8497 9.47961 12.9048 9.46942 12.9605 9.46058C13.105 9.43839 13.2478 9.4096 13.3887 9.37428C13.4288 9.36408 13.4695 9.35457 13.5103 9.34302C13.6952 9.29272 13.8768 9.23095 14.054 9.15815C16.2289 9.91986 17.6813 11.9771 17.6712 14.2814V15.6407H17.6711Z" fill="#A39FA4"/>
</svg>
