<svg width="32" height="33" viewBox="0 0 32 33" fill="none" xmlns="http://www.w3.org/2000/svg">
<g clip-path="url(#clip0_1898_37271)">
<path d="M15.691 32.1837C24.3568 32.1837 31.3819 25.1586 31.3819 16.4927C31.3819 7.82684 24.3568 0.801758 15.691 0.801758C7.02508 0.801758 0 7.82684 0 16.4927C0 25.1586 7.02508 32.1837 15.691 32.1837Z" fill="#F0F0F0"/>
<path d="M15.0088 16.4927H31.3819C31.3819 15.0765 31.1932 13.7045 30.8414 12.3994H15.0088V16.4927Z" fill="#D80027"/>
<path d="M15.0088 8.30621H29.0789C28.1184 6.73883 26.8903 5.35343 25.4584 4.21289H15.0088V8.30621Z" fill="#D80027"/>
<path d="M15.691 32.1835C19.3838 32.1835 22.778 30.9072 25.4583 28.7725H5.92358C8.60392 30.9072 11.9981 32.1835 15.691 32.1835Z" fill="#D80027"/>
<path d="M2.303 24.6793H29.0789C29.85 23.421 30.448 22.0456 30.8414 20.5859H0.540527C0.933843 22.0456 1.53188 23.421 2.303 24.6793Z" fill="#D80027"/>
<path d="M7.26835 3.25212H8.69825L7.36819 4.2184L7.87625 5.78192L6.54626 4.81564L5.21626 5.78192L5.65512 4.43121C4.48406 5.40669 3.45765 6.54955 2.61181 7.82297H3.06997L2.22334 8.43805C2.09143 8.65809 1.96493 8.88162 1.84369 9.10847L2.24798 10.3528L1.49371 9.80475C1.30621 10.202 1.13471 10.6082 0.980563 11.0228L1.42598 12.3938H3.06997L1.73992 13.3601L2.24798 14.9236L0.917983 13.9573L0.121298 14.5362C0.0415565 15.1772 0 15.8301 0 16.4927H15.691C15.691 7.8269 15.691 6.80527 15.691 0.801758C12.5913 0.801758 9.70173 1.70092 7.26835 3.25212ZM7.87625 14.9236L6.54626 13.9573L5.21626 14.9236L5.72432 13.3601L4.39427 12.3938H6.03826L6.54626 10.8303L7.05425 12.3938H8.69825L7.36819 13.3601L7.87625 14.9236ZM7.36819 8.78925L7.87625 10.3528L6.54626 9.38649L5.21626 10.3528L5.72432 8.78925L4.39427 7.82297H6.03826L6.54626 6.25945L7.05425 7.82297H8.69825L7.36819 8.78925ZM13.5045 14.9236L12.1745 13.9573L10.8445 14.9236L11.3526 13.3601L10.0225 12.3938H11.6665L12.1745 10.8303L12.6825 12.3938H14.3265L12.9965 13.3601L13.5045 14.9236ZM12.9965 8.78925L13.5045 10.3528L12.1745 9.38649L10.8445 10.3528L11.3526 8.78925L10.0225 7.82297H11.6665L12.1745 6.25945L12.6825 7.82297H14.3265L12.9965 8.78925ZM12.9965 4.2184L13.5045 5.78192L12.1745 4.81564L10.8445 5.78192L11.3526 4.2184L10.0225 3.25212H11.6665L12.1745 1.6886L12.6825 3.25212H14.3265L12.9965 4.2184Z" fill="#0052B4"/>
</g>
<defs>
<clipPath id="clip0_1898_37271">
<rect width="31.3819" height="31.3819" fill="white" transform="translate(0 0.801758)"/>
</clipPath>
</defs>
</svg>
