<svg width="48" height="48" viewBox="0 0 48 48" fill="none" xmlns="http://www.w3.org/2000/svg">
<circle cx="24" cy="24" r="23" stroke="#6265E8" stroke-width="2"/>
<path fill-rule="evenodd" clip-rule="evenodd" d="M14 28C13.4477 28 13 28.4477 13 29C13 29.5523 13.4477 30 14 30H25C25.5523 30 26 29.5523 26 29C26 28.4477 25.5523 28 25 28H14ZM31 28C30.4477 28 30 28.4477 30 29C30 29.5523 30.4477 30 31 30H34C34.5523 30 35 29.5523 35 29C35 28.4477 34.5523 28 34 28H31Z" fill="#6265E8"/>
<path fill-rule="evenodd" clip-rule="evenodd" d="M28 31C29.1046 31 30 30.1046 30 29C30 27.8954 29.1046 27 28 27C26.8954 27 26 27.8954 26 29C26 30.1046 26.8954 31 28 31ZM28 33C30.2091 33 32 31.2091 32 29C32 26.7909 30.2091 25 28 25C25.7909 25 24 26.7909 24 29C24 31.2091 25.7909 33 28 33Z" fill="#6265E8"/>
<path fill-rule="evenodd" clip-rule="evenodd" d="M14 18C13.4477 18 13 18.4477 13 19C13 19.5523 13.4477 20 14 20H17C17.5523 20 18 19.5523 18 19C18 18.4477 17.5523 18 17 18H14ZM23 18C22.4477 18 22 18.4477 22 19C22 19.5523 22.4477 20 23 20H34C34.5523 20 35 19.5523 35 19C35 18.4477 34.5523 18 34 18H23Z" fill="#6265E8"/>
<path fill-rule="evenodd" clip-rule="evenodd" d="M20 21C21.1046 21 22 20.1046 22 19C22 17.8954 21.1046 17 20 17C18.8954 17 18 17.8954 18 19C18 20.1046 18.8954 21 20 21ZM20 23C22.2091 23 24 21.2091 24 19C24 16.7909 22.2091 15 20 15C17.7909 15 16 16.7909 16 19C16 21.2091 17.7909 23 20 23Z" fill="#6265E8"/>
</svg>
