<svg width="32" height="32" viewBox="0 0 32 32" fill="none" xmlns="http://www.w3.org/2000/svg">
<path fill-rule="evenodd" clip-rule="evenodd" d="M5.75684 28.4199H25.6258C22.8204 30.7035 19.3113 31.9506 15.6913 31.9506C12.0713 31.9506 8.56224 30.7035 5.75684 28.4199Z" fill="#0033A0"/>
<path fill-rule="evenodd" clip-rule="evenodd" d="M25.6257 4.09882H15.6912V6.00084H11.0798V1.25485C13.5519 0.500558 16.1721 0.365448 18.709 0.861449C21.2459 1.35745 23.6214 2.4693 25.6257 4.09882ZM7.36998 6.00084V2.94431C6.03226 3.77933 4.82738 4.8096 3.79541 6.00084H7.36998Z" fill="#0033A0"/>
<path fill-rule="evenodd" clip-rule="evenodd" d="M1.40503 22.8145H29.9767C29.3581 24.1546 28.5535 25.4012 27.5864 26.5173H3.79528C2.82824 25.4012 2.02358 24.1546 1.40503 22.8145Z" fill="#0033A0"/>
<path fill-rule="evenodd" clip-rule="evenodd" d="M29.9767 9.70378H15.6909V6.00098H27.5865C28.5535 7.11706 29.3582 8.36358 29.9767 9.70378Z" fill="#0033A0"/>
<path fill-rule="evenodd" clip-rule="evenodd" d="M0 17.21H31.3819C31.3075 18.4668 31.0813 19.71 30.7083 20.9127H0.673586C0.300605 19.71 0.0744403 18.4668 0 17.21Z" fill="#0033A0"/>
<path fill-rule="evenodd" clip-rule="evenodd" d="M7.36972 11.605V15.3079H0C0.113884 13.3686 0.59008 11.4677 1.40404 9.70312H7.36972V11.605ZM11.0795 9.70312V15.3079H31.3819C31.3075 14.051 31.0813 12.8077 30.7083 11.605H15.691V9.70312H11.0795Z" fill="#0033A0"/>
</svg>
