<svg width="28" height="28" viewBox="0 0 28 28" fill="none" xmlns="http://www.w3.org/2000/svg">
<path fill-rule="evenodd" clip-rule="evenodd" d="M23.1119 24.8624C23.1119 24.8624 22.5994 25.375 21.8745 25.375H6.12451C6.12451 25.375 5.39964 25.375 4.88708 24.8624C4.88708 24.8624 4.37451 24.3499 4.37451 23.625V4.375C4.37451 4.375 4.37451 3.65013 4.88708 3.13756C4.88708 3.13756 5.39964 2.625 6.12451 2.625H16.6245C16.8566 2.625 17.0791 2.71719 17.2432 2.88128L23.3682 9.00628C23.5323 9.17038 23.6245 9.39294 23.6245 9.625V23.625C23.6245 23.625 23.6245 24.3499 23.1119 24.8624ZM21.8745 23.625V9.98744L16.2621 4.375H6.12451V23.625H21.8745Z" fill="white"/>
<path d="M16.6245 10.5H22.7495C23.2328 10.5 23.6245 10.1082 23.6245 9.625C23.6245 9.14175 23.2328 8.75 22.7495 8.75H17.4995V3.5C17.4995 3.01675 17.1078 2.625 16.6245 2.625C16.1413 2.625 15.7495 3.01675 15.7495 3.5V9.625C15.7495 10.1082 16.1413 10.5 16.6245 10.5Z" fill="white"/>
<path d="M17.6804 17.6815C17.8445 17.5175 17.937 17.2946 17.937 17.0625C17.937 16.8304 17.8448 16.6079 17.6807 16.4438C17.5166 16.2797 17.2941 16.1875 17.062 16.1875C16.8299 16.1875 16.6074 16.2797 16.4433 16.4438L13.9995 18.8876L11.5557 16.4438C11.3916 16.2797 11.1691 16.1875 10.937 16.1875C10.7049 16.1875 10.4824 16.2797 10.3183 16.4438C10.1542 16.6079 10.062 16.8304 10.062 17.0625C10.062 17.2946 10.1542 17.5171 10.3183 17.6812L13.3808 20.7437C13.5449 20.9078 13.7674 21 13.9995 21C14.2316 21 14.4541 20.9078 14.6182 20.7437L17.6804 17.6815Z" fill="white"/>
<path d="M13.1245 13.125V20.125C13.1245 20.6082 13.5163 21 13.9995 21C14.4828 21 14.8745 20.6082 14.8745 20.125V13.125C14.8745 12.6418 14.4828 12.25 13.9995 12.25C13.5163 12.25 13.1245 12.6418 13.1245 13.125Z" fill="white"/>
</svg>
