<svg width="24" height="24" viewBox="0 0 24 24" fill="none" xmlns="http://www.w3.org/2000/svg">
<mask id="mask0_1898_29941" style="mask-type:alpha" maskUnits="userSpaceOnUse" x="0" y="0" width="24" height="24">
<rect width="24" height="24" fill="#D9D9D9"/>
</mask>
<g mask="url(#mask0_1898_29941)">
<path d="M11 22V19H13V22H11ZM2 13V11H5V13H2ZM19 13V11H22V13H19ZM18 19.9L15.9 17.8L17.3 16.4L19.4 18.5L18 19.9ZM6 19.9L4.6 18.5L6.7 16.4L8.1 17.8L6 19.9ZM12 17C10.6167 17 9.4375 16.5125 8.4625 15.5375C7.4875 14.5625 7 13.3833 7 12C7 11.2 7.17917 10.4542 7.5375 9.7625C7.89583 9.07083 8.38333 8.48333 9 8V3H15V8C15.6167 8.48333 16.1042 9.07083 16.4625 9.7625C16.8208 10.4542 17 11.2 17 12C17 13.3833 16.5125 14.5625 15.5375 15.5375C14.5625 16.5125 13.3833 17 12 17ZM11 7.1C11.1667 7.06667 11.3333 7.04167 11.5 7.025C11.6667 7.00833 11.8333 7 12 7C12.1667 7 12.3333 7.00833 12.5 7.025C12.6667 7.04167 12.8333 7.06667 13 7.1V5H11V7.1ZM12 15C12.8333 15 13.5417 14.7083 14.125 14.125C14.7083 13.5417 15 12.8333 15 12C15 11.1667 14.7083 10.4583 14.125 9.875C13.5417 9.29167 12.8333 9 12 9C11.1667 9 10.4583 9.29167 9.875 9.875C9.29167 10.4583 9 11.1667 9 12C9 12.8333 9.29167 13.5417 9.875 14.125C10.4583 14.7083 11.1667 15 12 15Z" fill="#1A0F1C"/>
</g>
</svg>
