<svg width="70" height="56" viewBox="0 0 70 56" fill="none" xmlns="http://www.w3.org/2000/svg">
<rect x="1" y="1" width="68" height="54" rx="15" fill="#F7F7F8"/>
<rect x="1" y="1" width="68" height="54" rx="15" stroke="url(#paint0_linear_1970_31030)" stroke-width="2"/>
<path d="M34.9988 30.8588L32.392 35.4524C33.199 35.7781 34.079 35.9573 35 35.9573C35.9203 35.9573 36.7995 35.7785 37.606 35.4532L34.9988 30.8588ZM31.3488 37.2907L28.3943 42.4971L27.5041 41.9742C25.1842 40.6116 23.3094 38.6711 22.0143 36.3902L22.0125 36.3913C20.7157 34.1064 20 31.4837 20 28.7608C20 24.5469 21.6791 20.7315 24.3935 17.9699C27.1079 15.2082 30.8581 13.5 35 13.5C39.1419 13.5 42.8921 15.2082 45.6065 17.9699C48.321 20.7315 50 24.5469 50 28.7608C50 31.4808 49.2842 34.1022 47.9876 36.3871V36.3913C46.6935 38.6718 44.8193 40.6119 42.5 41.9742L41.605 42.5L38.6493 37.2915C37.5313 37.7872 36.2972 38.0623 35 38.0623C33.7021 38.0623 32.4673 37.7871 31.3488 37.2907ZM35 19.4593C37.5244 19.4593 39.8102 20.5006 41.4647 22.1838C43.119 23.867 44.1425 26.1925 44.1425 28.7608C44.1425 31.3291 43.119 33.6547 41.4647 35.3379C41.1444 35.6636 40.8005 35.9652 40.4359 36.2399L42.3398 39.5949C43.941 38.4723 45.2522 37.0116 46.2015 35.3388L46.2032 35.3398C47.3165 33.3768 47.931 31.1157 47.931 28.7608C47.931 25.1278 46.4836 21.8388 44.1437 19.4582C41.8037 17.0775 38.5709 15.605 35 15.605C31.4292 15.605 28.1962 17.0775 25.8563 19.4582C23.5165 21.8387 22.069 25.1278 22.069 28.7608C22.069 31.1142 22.6842 33.3751 23.7986 35.3388V35.343C24.7479 37.0158 26.0592 38.4762 27.6607 39.5982L29.5657 36.2412C29.2005 35.9662 28.856 35.6641 28.5353 35.3379C26.881 33.6547 25.8575 31.3291 25.8575 28.7608C25.8575 26.1925 26.881 23.867 28.5353 22.1838C30.1898 20.5006 32.4756 19.4593 35 19.4593ZM40.0019 23.672C38.7219 22.3699 36.9534 21.5643 35 21.5643C33.0466 21.5643 31.2781 22.3699 29.9981 23.672C28.7183 24.9742 27.9265 26.7735 27.9265 28.7608C27.9265 30.7482 28.7183 32.5475 29.9981 33.8497C30.191 34.0458 30.395 34.2305 30.6088 34.403L34.1034 28.245H35.8989L39.3928 34.4018C39.6061 34.2296 39.8096 34.0453 40.0019 33.8497C41.2817 32.5475 42.0735 30.7482 42.0735 28.7608C42.0735 26.7735 41.2817 24.9742 40.0019 23.672Z" fill="url(#paint1_linear_1970_31030)"/>
<defs>
<linearGradient id="paint0_linear_1970_31030" x1="-2.73852" y1="40.9418" x2="74.466" y2="19.8061" gradientUnits="userSpaceOnUse">
<stop stop-color="#FA93BF"/>
<stop offset="0.54" stop-color="#6265E8"/>
<stop offset="1" stop-color="#10D6E3"/>
</linearGradient>
<linearGradient id="paint1_linear_1970_31030" x1="18.8263" y1="34.702" x2="52.6572" y2="27.0372" gradientUnits="userSpaceOnUse">
<stop stop-color="#FA93BF"/>
<stop offset="0.54" stop-color="#6265E8"/>
<stop offset="1" stop-color="#10D6E3"/>
</linearGradient>
</defs>
</svg>
