<svg width="60" height="60" viewBox="0 0 60 60" fill="none" xmlns="http://www.w3.org/2000/svg">
<path opacity="0.21" fill-rule="evenodd" clip-rule="evenodd" d="M0 30V44C0 52.8366 7.16344 60 16 60H30H44C52.8366 60 60 52.8366 60 44V30V16C60 7.16344 52.8366 0 44 0H30H16C7.16344 0 0 7.16344 0 16V30Z" fill="#6265E8"/>
<path d="M29.2032 33.5037C30.4611 32.6682 31.4165 31.4498 31.928 30.0291C32.4396 28.6083 32.4802 27.0606 32.0438 25.615C31.6074 24.1693 30.7172 22.9026 29.5049 22.0022C28.2926 21.1019 26.8227 20.6157 25.3126 20.6157C23.8025 20.6157 22.3326 21.1019 21.1203 22.0022C19.908 22.9026 19.0178 24.1693 18.5814 25.615C18.145 27.0606 18.1856 28.6083 18.6972 30.0291C19.2088 31.4498 20.1642 32.6682 21.422 33.5037C19.2762 34.2928 17.4236 35.7201 16.1134 37.5936C16.011 37.7325 15.9501 37.8976 15.9377 38.0697C15.9252 38.2419 15.9618 38.414 16.0431 38.5662C16.1234 38.7175 16.2432 38.8441 16.3896 38.9329C16.5361 39.0216 16.7039 39.069 16.8751 39.0701H33.7501C33.9213 39.069 34.0891 39.0216 34.2356 38.9329C34.382 38.8441 34.5018 38.7175 34.5821 38.5662C34.6634 38.414 34.7 38.2419 34.6875 38.0697C34.6751 37.8976 34.6142 37.7325 34.5118 37.5936C33.2016 35.7201 31.349 34.2928 29.2032 33.5037Z" fill="#6265E8"/>
<path d="M44.0743 37.5936C42.7566 35.7223 40.9011 34.296 38.754 33.5037C40.0158 32.6713 40.9752 31.4538 41.4894 30.0324C42.0037 28.6109 42.0454 27.0614 41.6082 25.6143C41.1711 24.1673 40.2785 22.9 39.0632 22.001C37.848 21.102 36.375 20.6194 34.8634 20.6248C34.2182 20.6282 33.5762 20.7149 32.9532 20.8826C32.8069 20.9266 32.6731 21.0048 32.5631 21.1108C32.453 21.2167 32.3698 21.3474 32.3204 21.492C32.2732 21.6354 32.2614 21.788 32.2859 21.937C32.3104 22.0859 32.3704 22.2267 32.461 22.3475C33.5209 23.7715 34.1298 25.4804 34.2091 27.2538C34.2885 29.0272 33.8347 30.7837 32.9063 32.2967C32.7873 32.4977 32.7466 32.7356 32.792 32.9648C32.8374 33.194 32.9657 33.3984 33.1524 33.5389C33.504 33.8123 33.8438 34.0936 34.172 34.3826L34.2305 34.4412C35.4814 35.5987 36.4962 36.9876 37.2188 38.5311C37.293 38.6924 37.4119 38.8289 37.5615 38.9245C37.7111 39.0201 37.8851 39.0706 38.0626 39.0701H43.3009C43.4721 39.069 43.6398 39.0216 43.7863 38.9328C43.9328 38.8441 44.0526 38.7174 44.1329 38.5662C44.2132 38.4143 44.2502 38.2432 44.2399 38.0717C44.2296 37.9001 44.1723 37.7347 44.0743 37.5936Z" fill="#6265E8"/>
</svg>
