<svg width="18" height="18" viewBox="0 0 18 18" fill="none" xmlns="http://www.w3.org/2000/svg">
<path d="M14.5385 9.69212H8.30769V3.46135C8.30769 3.27774 8.23475 3.10165 8.10492 2.97182C7.97509 2.84198 7.799 2.76904 7.61539 2.76904C6.10921 2.76904 4.63685 3.21568 3.38451 4.05247C2.13216 4.88926 1.15608 6.07862 0.57969 7.47015C0.00329965 8.86167 -0.14751 10.3929 0.146331 11.8701C0.440172 13.3474 1.16547 14.7043 2.2305 15.7693C3.29553 16.8343 4.65246 17.5596 6.1297 17.8535C7.60694 18.1473 9.13814 17.9965 10.5297 17.4201C11.9212 16.8437 13.1106 15.8676 13.9473 14.6153C14.7841 13.363 15.2308 11.8906 15.2308 10.3844C15.2308 10.2008 15.1578 10.0247 15.028 9.89489C14.8982 9.76506 14.7221 9.69212 14.5385 9.69212ZM7.61539 16.6152C6.02233 16.616 4.48946 16.0067 3.3318 14.9123C2.17414 13.8179 1.47962 12.3217 1.39098 10.7311C1.30235 9.14052 1.82632 7.5764 2.85522 6.36018C3.88412 5.14396 5.33979 4.36804 6.92308 4.19187V10.3844C6.92308 10.568 6.99602 10.7441 7.12585 10.874C7.25568 11.0038 7.43177 11.0767 7.61539 11.0767H13.8079C13.6357 12.5991 12.9094 14.005 11.7674 15.0263C10.6254 16.0477 9.1475 16.6133 7.61539 16.6152Z" fill="#A39FA4"/>
<path d="M10.3844 0C10.2008 0 10.0247 0.0729393 9.89491 0.202772C9.76508 0.332605 9.69214 0.508696 9.69214 0.692308V7.61538C9.69214 7.79899 9.76508 7.97509 9.89491 8.10492C10.0247 8.23475 10.2008 8.30769 10.3844 8.30769H17.3075C17.4911 8.30769 17.6672 8.23475 17.7971 8.10492C17.9269 7.97509 17.9998 7.79899 17.9998 7.61538C17.9975 5.59636 17.1945 3.66069 15.7668 2.23302C14.3391 0.805359 12.4035 0.00229044 10.3844 0ZM11.0768 6.92308V1.42283C12.4807 1.58198 13.7891 2.21263 14.7881 3.2117C15.7872 4.21076 16.4178 5.51917 16.577 6.92308H11.0768Z" fill="#A39FA4"/>
</svg>
