<svg width="60" height="60" viewBox="0 0 60 60" fill="none" xmlns="http://www.w3.org/2000/svg">
<path opacity="0.21" fill-rule="evenodd" clip-rule="evenodd" d="M0 30V44C0 52.8366 7.16344 60 16 60H30H44C52.8366 60 60 52.8366 60 44V30V16C60 7.16344 52.8366 0 44 0H30H16C7.16344 0 0 7.16344 0 16V30Z" fill="#4AD991"/>
<path d="M19.1111 30.8889C19.1111 36.4117 23.5883 40.8889 29.1111 40.8889H42.4444C43.3036 40.8889 44 41.5853 44 42.4444C44 43.3036 43.3036 44 42.4444 44H17.5556C16.6964 44 16 43.3036 16 42.4444V17.5556C16 16.6964 16.6964 16 17.5556 16C18.4147 16 19.1111 16.6964 19.1111 17.5556V30.8889Z" fill="#4AD991"/>
<path opacity="0.5" d="M24.9126 34.175C24.325 34.8017 23.3406 34.8335 22.7138 34.2459C22.0871 33.6583 22.0553 32.6739 22.6429 32.0472L28.4762 25.8249C29.0445 25.2188 29.9888 25.1662 30.6208 25.7056C33.1346 27.8507 36.9275 27.4776 38.9752 24.8838L41.2235 22.0361C41.7558 21.3618 42.734 21.2467 43.4083 21.779C44.0826 22.3114 44.1977 23.2895 43.6653 23.9638L36.6653 32.8305C36.1186 33.5231 35.1059 33.6227 34.4347 33.0499C31.8019 30.8033 27.8683 31.0222 25.5011 33.5472L24.9126 34.175Z" fill="#4AD991"/>
</svg>
