<svg width="20" height="20" viewBox="0 0 20 20" fill="none" xmlns="http://www.w3.org/2000/svg">
<path fill-rule="evenodd" clip-rule="evenodd" d="M8.30747 19.6037C8.30747 19.6037 6.71621 19.3246 5.30785 18.551L2.49803 19.3466C2.49803 19.3466 2.11217 19.4594 1.7164 19.3582C1.7164 19.3582 1.32063 19.257 1.03178 18.9681C1.03178 18.9681 0.742918 18.6793 0.641681 18.2835C0.641681 18.2835 0.540444 17.8877 0.655119 17.4956L1.44888 14.692C1.44888 14.692 0.675327 13.2837 0.396207 11.6924C0.396207 11.6924 0.088752 9.93961 0.420931 8.19132C0.420931 8.19132 0.753111 6.44303 1.68201 4.92513C1.68201 4.92513 2.6109 3.40724 4.01651 2.31584C4.01651 2.31584 5.42211 1.22445 7.12282 0.70056C7.12282 0.70056 8.82352 0.176674 10.5996 0.287981C10.5996 0.287981 12.3757 0.399288 13.9977 1.13141C13.9977 1.13141 15.6197 1.86353 16.878 3.12187C16.878 3.12187 18.1364 4.38021 18.8685 6.00221C18.8685 6.00221 19.6006 7.6242 19.7119 9.40028C19.7119 9.40028 19.8232 11.1764 19.2993 12.8771C19.2993 12.8771 18.7754 14.5778 17.684 15.9834C17.684 15.9834 16.5926 17.389 15.0748 18.3179C15.0748 18.3179 13.5569 19.2468 11.8086 19.579C11.8086 19.579 10.0603 19.9111 8.30747 19.6037ZM11.5286 18.1053C11.5286 18.1053 8.4686 18.6867 5.78915 17.0988C5.61231 16.994 5.39968 16.966 5.20189 17.022L2.09941 17.9005L2.97784 14.798C3.03385 14.6002 3.00621 14.3881 2.9014 14.2113C2.9014 14.2113 1.31311 11.5316 1.89457 8.47132C1.89457 8.47132 2.47603 5.41104 4.93644 3.50062C4.93644 3.50062 7.39686 1.59021 10.5058 1.78504C10.5058 1.78504 13.6147 1.97988 15.8174 4.18253C15.8174 4.18253 18.02 6.38518 18.2148 9.49411C18.2148 9.49411 18.4097 12.603 16.4993 15.0634C16.4993 15.0634 14.5888 17.5239 11.5286 18.1053Z" fill="#A39FA4"/>
<path d="M11.125 9.99994C11.125 10.6213 10.6213 11.1249 9.99998 11.1249C9.37866 11.1249 8.87498 10.6213 8.87498 9.99994C8.87498 9.37862 9.37866 8.87494 9.99998 8.87494C10.6213 8.87494 11.125 9.37862 11.125 9.99994Z" fill="#A39FA4"/>
<path d="M6.62498 9.99994C6.62498 10.6213 6.12131 11.1249 5.49998 11.1249C4.87866 11.1249 4.37498 10.6213 4.37498 9.99994C4.37498 9.37862 4.87866 8.87494 5.49998 8.87494C6.12131 8.87494 6.62498 9.37862 6.62498 9.99994Z" fill="#A39FA4"/>
<path d="M15.625 9.99994C15.625 10.6213 15.1213 11.1249 14.5 11.1249C13.8787 11.1249 13.375 10.6213 13.375 9.99994C13.375 9.37862 13.8787 8.87494 14.5 8.87494C15.1213 8.87494 15.625 9.37862 15.625 9.99994Z" fill="#A39FA4"/>
</svg>
