<svg width="71" height="71" viewBox="0 0 71 71" fill="none" xmlns="http://www.w3.org/2000/svg">
<rect x="0.650879" y="0.34668" width="70" height="70" rx="35" fill="#E5E7EB"/>
<g clip-path="url(#clip0_1898_37218)">
<path fill-rule="evenodd" clip-rule="evenodd" d="M33.1956 18.8636L30.5589 21.4979C30.346 21.7109 30.0574 21.8309 29.7562 21.8316H25.6076C23.6896 21.8316 22.1356 23.3856 22.1356 25.3036V29.4522C22.135 29.7541 22.015 30.0435 21.8019 30.2572L19.1652 32.8916C18.5144 33.5427 18.1487 34.4256 18.1487 35.3462C18.1487 36.2669 18.5144 37.1498 19.1652 37.8009L21.8019 40.4376C22.0149 40.6505 22.1349 40.9391 22.1356 41.2402V45.3889C22.1356 47.3069 23.6896 48.8609 25.6076 48.8609H29.7562C30.0581 48.8615 30.3475 48.9815 30.5612 49.1946L33.1956 51.8312C33.8467 52.4821 34.7296 52.8478 35.6502 52.8478C36.5709 52.8478 37.4538 52.4821 38.1049 51.8312L40.7416 49.1946C40.9545 48.9816 41.2431 48.8616 41.5442 48.8609H45.6929C47.6109 48.8609 49.1649 47.3069 49.1649 45.3889V41.2402C49.1655 40.9384 49.2854 40.649 49.4986 40.4352L52.1352 37.8009C52.7861 37.1498 53.1517 36.2669 53.1517 35.3462C53.1517 34.4256 52.7861 33.5427 52.1352 32.8916L49.4986 30.2549C49.2856 30.042 49.1656 29.7534 49.1649 29.4522V25.3036C49.1649 23.3856 47.6109 21.8316 45.6929 21.8316H41.5442C41.2423 21.8315 40.9527 21.7115 40.7392 21.4979L38.1049 18.8612C37.4538 18.2104 36.5709 17.8447 35.6502 17.8447C34.7296 17.8447 33.8467 18.2127 33.1956 18.8636ZM28.9909 40.3536L40.6576 28.6869L42.3096 30.3389L30.6429 42.0056L28.9909 40.3536ZM29.8169 29.5129V31.8462H32.1502V29.5129H29.8169ZM39.1502 41.1796H41.4836V38.8462H39.1502V41.1796Z" fill="#FA93BF"/>
</g>
<defs>
<clipPath id="clip0_1898_37218">
<rect width="35" height="35" fill="white" transform="translate(18.1509 17.8467)"/>
</clipPath>
</defs>
</svg>
