<svg width="24" height="24" viewBox="0 0 24 24" fill="none" xmlns="http://www.w3.org/2000/svg">
<path d="M4.34469 16.3474C4.26984 16.75 4.23104 17.1582 4.22875 17.5673C4.22875 18.3931 4.67456 19.5378 6.80037 20.2993C8.315 20.7892 9.90412 21.0254 11.5 20.9978C14.8543 20.9978 18.7712 20.0997 18.7712 17.569C18.769 17.2184 18.7398 16.8683 18.6838 16.5219C20.8039 16.0979 22 15.1627 22 13.8891C21.9983 12.8198 21.6889 11.7723 21.1069 10.8653C20.5249 9.95823 19.6936 9.22783 18.7069 8.75676C19.0285 8.41727 19.2764 8.01814 19.4356 7.58325C19.5949 7.14837 19.6624 6.68668 19.634 6.22583C19.6056 5.76498 19.4818 5.31446 19.2703 4.90122C19.0587 4.48799 18.7635 4.12055 18.4025 3.82091C18.0416 3.52127 17.6221 3.29558 17.1694 3.15737C16.7167 3.01916 16.2399 2.97126 15.7677 3.01655C15.2955 3.06183 14.8375 3.19937 14.4212 3.42092C14.0049 3.64247 13.6389 3.94348 13.3449 4.30593C12.7229 4.01168 12.0361 3.87053 11.345 3.89488C10.6538 3.91922 9.97928 4.10831 9.38075 4.44555C9.09208 4.09844 8.73485 3.81113 8.33016 3.60057C7.92548 3.39002 7.48153 3.26049 7.02454 3.21964C6.56755 3.17879 6.10678 3.22744 5.66943 3.36273C5.23209 3.49801 4.82703 3.71719 4.47819 4.00731C4.12935 4.29743 3.84378 4.65261 3.63837 5.05189C3.43295 5.45117 3.31183 5.88645 3.28218 6.33203C3.25253 6.77761 3.31493 7.22445 3.46571 7.64617C3.61649 8.06789 3.85259 8.45594 4.16006 8.78741C3.21185 9.24851 2.41413 9.9571 1.85607 10.834C1.29802 11.7109 1.00161 12.7215 1 13.7529C1 15.0308 2.20488 15.9519 4.34469 16.3474ZM11.5 19.2951C8.24631 19.2951 5.97875 18.3855 5.97875 17.569C5.97875 16.8636 6.12156 16.165 6.39903 15.5133C6.6765 14.8615 7.08319 14.2693 7.59589 13.7705C8.10858 13.2716 8.71724 12.8759 9.38711 12.606C10.057 12.336 10.7749 12.1971 11.5 12.1971C12.2251 12.1971 12.943 12.336 13.6129 12.606C14.2828 12.8759 14.8914 13.2716 15.4041 13.7705C15.9168 14.2693 16.3235 14.8615 16.601 15.5133C16.8784 16.165 17.0212 16.8636 17.0212 17.569C17.0212 18.3838 14.7541 19.2951 11.5 19.2951ZM20.25 13.8891C20.25 14.159 19.599 14.6153 18.2204 14.8724C17.4964 13.1768 16.1266 11.8194 14.3976 11.0839C14.7564 10.7609 15.0557 10.3806 15.2826 9.95929C15.5559 9.90216 15.8344 9.87164 16.1139 9.8682C17.21 9.86887 18.2611 10.2926 19.0366 11.0464C19.812 11.8003 20.2484 12.8226 20.25 13.8891ZM16.1156 4.69883C16.3658 4.69651 16.6138 4.74554 16.8432 4.84272C17.0726 4.93989 17.2785 5.08303 17.4472 5.26279C17.616 5.44256 17.7439 5.65491 17.8227 5.88601C17.9014 6.11711 17.9292 6.36177 17.9043 6.60403C17.8793 6.84628 17.8022 7.0807 17.6778 7.292C17.5535 7.50329 17.3848 7.68672 17.1827 7.83032C16.9806 7.97391 16.7497 8.07446 16.505 8.12539C16.2603 8.17632 16.0073 8.1765 15.7626 8.12592C15.7626 8.09825 15.7669 8.07143 15.7669 8.04334C15.767 7.0511 15.3999 6.09201 14.7327 5.34159C14.8987 5.14017 15.1092 4.97777 15.3487 4.86648C15.5881 4.7552 15.8503 4.69789 16.1156 4.69883ZM14.0156 8.04334C14.0157 8.52775 13.8681 9.00132 13.5916 9.40412C13.315 9.80692 12.9219 10.1209 12.4619 10.3062C12.0019 10.4916 11.4957 10.5401 11.0074 10.4456C10.5191 10.351 10.0706 10.1177 9.71863 9.77509C9.36664 9.4325 9.12699 8.99603 9.02998 8.52089C8.93298 8.04576 8.98299 7.5533 9.17368 7.10582C9.36437 6.65834 9.68717 6.27594 10.1013 6.00699C10.5154 5.73803 11.0021 5.59461 11.5 5.59487C12.1672 5.59554 12.807 5.85371 13.2788 6.31273C13.7507 6.77175 14.0161 7.39413 14.0169 8.04334H14.0156ZM5.02063 6.5505C5.01935 6.20324 5.13127 5.86453 5.3403 5.58306C5.54933 5.30159 5.8447 5.09185 6.18396 4.984C6.52322 4.87615 6.88889 4.87573 7.22841 4.98282C7.56792 5.0899 7.8638 5.29897 8.0735 5.57997C7.52815 6.29167 7.2334 7.1556 7.23306 8.04334C7.23306 8.06632 7.23612 8.08846 7.23656 8.11102C7.06723 8.1657 6.88998 8.19358 6.71156 8.1936C6.26362 8.19315 5.83412 8.01996 5.51717 7.71198C5.20022 7.404 5.02167 6.98633 5.02063 6.5505ZM6.71375 9.89629C7.06576 9.89656 7.41619 9.94222 7.75587 10.0321C7.97826 10.4241 8.26411 10.7787 8.60244 11.0822C6.93288 11.7934 5.59662 13.0858 4.85569 14.706C3.37737 14.4629 2.75 13.987 2.75 13.7529C2.75116 12.7304 3.16914 11.7501 3.91223 11.0271C4.65533 10.3041 5.66285 9.89742 6.71375 9.89629Z" fill="#A39FA4"/>
</svg>
