<svg width="20" height="19" viewBox="0 0 20 19" fill="none" xmlns="http://www.w3.org/2000/svg">
<path d="M0.833496 11.75H15.9585C17.7277 11.75 19.1668 13.1892 19.1668 14.9583C19.1668 16.7275 17.7277 18.1667 15.9585 18.1667C14.1893 18.1667 12.7502 16.7275 12.7502 14.9583V14.5" stroke="#6265E8" stroke-width="1.5" stroke-miterlimit="10" stroke-linecap="round" stroke-linejoin="round"/>
<path d="M0.833496 9.00065H15.9585C17.7185 9.00065 19.1668 7.56148 19.1668 5.79232C19.1668 4.03232 17.7185 2.58398 15.9585 2.58398C15.1083 2.5864 14.2937 2.9252 13.6925 3.52636C13.0914 4.12751 12.7526 4.94216 12.7502 5.79232V6.25065" stroke="#6265E8" stroke-width="1.5" stroke-miterlimit="10" stroke-linecap="round" stroke-linejoin="round"/>
<path d="M0.833496 6.25003H7.53433C8.02203 6.25003 8.49877 6.10541 8.90427 5.83446C9.30978 5.56351 9.62583 5.1784 9.81246 4.72783C9.99909 4.27726 10.0479 3.78146 9.95278 3.30313C9.85764 2.82481 9.62279 2.38544 9.27794 2.04059C8.93308 1.69573 8.49371 1.46089 8.01539 1.36574C7.53706 1.2706 7.04127 1.31943 6.5907 1.50606C6.14012 1.69269 5.75501 2.00875 5.48406 2.41425C5.21311 2.81975 5.0685 3.2965 5.0685 3.78419V4.13253" stroke="#6265E8" stroke-width="1.5" stroke-miterlimit="10" stroke-linecap="round" stroke-linejoin="round"/>
</svg>
