<svg width="262" height="231" viewBox="0 0 262 231" fill="none" xmlns="http://www.w3.org/2000/svg">
<path fill-rule="evenodd" clip-rule="evenodd" d="M236.897 126.39C236.897 183.612 190.748 230 133.821 230C76.8945 230 30.7461 183.612 30.7461 126.39C30.7461 69.1688 76.8945 22.7805 133.821 22.7805C190.748 22.7805 236.897 69.1688 236.897 126.39Z" stroke="#E9EAEC" stroke-dasharray="5.02 5.02"/>
<path fill-rule="evenodd" clip-rule="evenodd" d="M210.367 126.39C210.367 168.883 176.096 203.332 133.822 203.332C91.5465 203.332 57.2778 168.883 57.2778 126.39C57.2778 83.8973 91.5465 49.4492 133.822 49.4492C176.096 49.4492 210.367 83.8973 210.367 126.39Z" stroke="#E9EAEC" stroke-dasharray="5.05 5.05"/>
<path d="M11.2736 140.34L9.35986 140.281" stroke="#D2D8DF" stroke-linecap="round"/>
<path d="M9.90082 136.693L8.52832 137.981" stroke="#D2D8DF" stroke-linecap="round"/>
<path d="M6.32372 135.027L6.29492 136.908" stroke="#D2D8DF" stroke-linecap="round"/>
<path d="M2.63672 136.318L3.96949 137.69" stroke="#D2D8DF" stroke-linecap="round"/>
<path d="M1 139.811L2.91275 139.87" stroke="#D2D8DF" stroke-linecap="round"/>
<path d="M2.37256 143.458L3.74605 142.169" stroke="#D2D8DF" stroke-linecap="round"/>
<path d="M5.9502 145.124L5.979 143.243" stroke="#D2D8DF" stroke-linecap="round"/>
<path d="M9.63697 143.833L8.3042 142.461" stroke="#D2D8DF" stroke-linecap="round"/>
<path d="M260.848 113.526L260.007 114.442" stroke="#D2D8DF" stroke-linecap="round"/>
<path d="M256.899 114.322L257.534 114.91" stroke="#D2D8DF" stroke-linecap="round"/>
<path d="M256.259 118.379L257.1 117.464" stroke="#D2D8DF" stroke-linecap="round"/>
<path d="M260.207 117.584L259.574 116.996" stroke="#D2D8DF" stroke-linecap="round"/>
<path d="M183.804 5.93821L181.77 5.8833" stroke="#D2D8DF" stroke-linecap="round"/>
<path d="M178.54 1L178.509 2.74796" stroke="#D2D8DF" stroke-linecap="round"/>
<path d="M172.876 5.44629L174.911 5.5002" stroke="#D2D8DF" stroke-linecap="round"/>
<path d="M178.142 10.3847L178.172 8.63672" stroke="#D2D8DF" stroke-linecap="round"/>
<path fill-rule="evenodd" clip-rule="evenodd" d="M33.115 194.669C31.6511 195.11 29.213 197.272 28.3788 199.835C28.2387 197.454 26.7341 194.46 25.0786 194.029C27.0986 193.311 29.2865 190.672 29.8684 188.449C29.7632 190.779 31.8676 194.162 33.115 194.669Z" fill="#EBECEF"/>
<path fill-rule="evenodd" clip-rule="evenodd" d="M67.3992 15.3007C66.27 15.5014 64.2689 16.8989 63.4267 18.7357C63.527 16.9499 62.664 14.589 61.4683 14.1238C63.0344 13.7644 64.8916 11.9895 65.5162 10.3843C65.2372 12.1113 66.5133 14.8146 67.3992 15.3007Z" fill="#EBECEF"/>
<path fill-rule="evenodd" clip-rule="evenodd" d="M217.064 28.2696C215.555 28.2367 214.36 26.9818 214.393 25.4665C214.426 23.9511 215.674 22.7492 217.181 22.7822C218.69 22.8151 219.885 24.0699 219.852 25.5853C219.819 27.1006 218.571 28.3026 217.064 28.2696Z" fill="#D1D9E0"/>
<path fill-rule="evenodd" clip-rule="evenodd" d="M217.071 208.109C215.759 208.081 214.718 206.988 214.746 205.669C214.773 204.35 215.861 203.303 217.174 203.331C218.487 203.36 219.528 204.452 219.499 205.772C219.47 207.091 218.383 208.138 217.071 208.109Z" fill="#EBECEF"/>
<path fill-rule="evenodd" clip-rule="evenodd" d="M19.6928 64.6926C18.8804 64.6746 18.2359 63.9988 18.2538 63.1812C18.2707 62.3646 18.944 61.7177 19.7564 61.7347C20.5687 61.7527 21.2133 62.4285 21.1964 63.2451C21.1785 64.0627 20.5052 64.7105 19.6928 64.6926Z" stroke="#D2D8DF" stroke-linecap="round"/>
<path fill-rule="evenodd" clip-rule="evenodd" d="M178.173 58.9667C178.173 64.2225 173.933 68.4831 168.705 68.4831C163.475 68.4831 159.238 64.2225 159.238 58.9667C159.238 53.7108 163.475 49.4492 168.705 49.4492C173.933 49.4492 178.173 53.7108 178.173 58.9667Z" fill="#E9EAEC"/>
<path d="M53.7419 206C53.6375 206 53.5334 205.978 53.4354 205.932C52.1053 205.309 52.84 200.753 53.2175 198.822C53.26 198.604 53.4696 198.46 53.6922 198.503C53.9112 198.546 54.0538 198.759 54.0113 198.978C53.4177 202.013 53.3068 204.979 53.7783 205.199C54.2206 205.019 55.2074 202.157 55.877 198.946C55.922 198.727 56.1327 198.585 56.3549 198.633C56.5735 198.678 56.7136 198.892 56.6679 199.111C56.3671 200.555 55.2917 205.313 54.0884 205.915C53.9756 205.972 53.8579 206 53.7419 206Z" fill="#1A0F1C"/>
<path d="M69.451 202.413C69.4236 202.413 69.3963 202.412 69.3682 202.409C68.0291 202.277 65.3232 198.218 64.5261 196.977C64.4055 196.789 64.4598 196.539 64.6475 196.418C64.8362 196.298 65.0862 196.352 65.2061 196.54C66.9745 199.291 68.9129 201.605 69.4481 201.605C69.4496 201.605 69.4514 201.605 69.4528 201.605C69.7636 201.255 68.5996 198.525 66.9601 195.903C66.8416 195.713 66.8992 195.464 67.0883 195.346C67.2774 195.226 67.5277 195.284 67.6455 195.474C68.6882 197.141 71.0037 201.134 69.9841 202.19C69.8436 202.336 69.6567 202.413 69.451 202.413Z" fill="#1A0F1C"/>
<path d="M52.1146 197.897C52.031 197.897 51.9489 197.871 51.8794 197.822C51.7861 197.755 51.726 197.652 51.7134 197.538C51.664 197.105 50.5461 186.883 53.7677 183.275C54.523 182.429 55.4605 182 56.554 182C63.0751 182.095 65.8001 193.957 65.9129 194.462C65.9366 194.566 65.9172 194.676 65.8596 194.767C65.8016 194.858 65.7105 194.922 65.6053 194.944L52.2017 197.887C52.1726 197.894 52.1434 197.897 52.1146 197.897ZM56.6015 182.809C55.6878 182.809 54.9743 183.137 54.371 183.813C51.7472 186.752 52.295 194.988 52.4733 197L65.0269 194.244C64.4996 192.197 61.8138 182.885 56.6033 182.809C56.6026 182.809 56.6015 182.809 56.6015 182.809Z" fill="#1A0F1C"/>
<path d="M51.3112 193.147L64.7421 190.354L72.8995 192.565C72.8995 192.565 60.3085 207.445 45 197.568L51.3112 193.147Z" fill="#E17B8D"/>
<path d="M60.0514 187.183C59.8602 187.183 59.6902 187.047 59.6542 186.852C59.2443 184.637 56.7404 184.795 56.6317 184.799C56.4148 184.816 56.2153 184.648 56.1998 184.425C56.1836 184.202 56.3511 184.009 56.574 183.993C57.7201 183.906 60.0176 184.371 60.4494 186.706C60.4901 186.925 60.345 187.136 60.1253 187.177C60.1004 187.181 60.0759 187.183 60.0514 187.183Z" fill="#1A0F1C"/>
<path d="M51.4119 190.339L63.9716 187.862L64.742 190.354L51.311 193.147L51.4119 190.339Z" fill="#E5B200"/>
<path d="M52.3713 198.505C51.4234 198.505 50.6105 197.827 50.4383 196.894C50.2409 195.827 50.9483 194.799 52.0155 194.601C53.0963 194.399 54.1142 195.128 54.3086 196.179C54.4041 196.695 54.2928 197.218 53.9949 197.652C53.6967 198.085 53.248 198.376 52.7311 198.471C52.6101 198.494 52.4898 198.505 52.3713 198.505ZM52.3753 195.377C52.305 195.377 52.2341 195.383 52.1624 195.396C51.5339 195.513 51.1169 196.119 51.2336 196.747C51.3477 197.366 51.9424 197.794 52.5842 197.676C52.8885 197.62 53.1532 197.449 53.3286 197.193C53.504 196.938 53.5699 196.63 53.5134 196.326C53.4118 195.776 52.9332 195.377 52.3753 195.377Z" fill="#1A0F1C"/>
<path d="M59.2937 198.474C58.3461 198.474 57.5328 197.797 57.3607 196.864C57.1633 195.797 57.8707 194.769 58.9378 194.571C60.0219 194.367 61.0365 195.098 61.231 196.148C61.3265 196.665 61.2152 197.188 60.9173 197.621C60.6191 198.054 60.1707 198.345 59.6535 198.441C59.5332 198.463 59.4125 198.474 59.2937 198.474ZM59.2976 195.346C59.2274 195.346 59.1565 195.353 59.0848 195.366C58.4563 195.482 58.0392 196.089 58.1559 196.717C58.2705 197.336 58.8687 197.767 59.5065 197.646C59.8109 197.589 60.0756 197.418 60.251 197.163C60.4264 196.908 60.4923 196.6 60.4358 196.295C60.3342 195.745 59.8555 195.346 59.2976 195.346Z" fill="#1A0F1C"/>
<path d="M65.6185 196.434C64.6709 196.434 63.8576 195.757 63.6851 194.824C63.5897 194.307 63.7013 193.784 63.9988 193.351C64.297 192.918 64.7458 192.627 65.2626 192.531C66.3503 192.329 67.3617 193.058 67.5558 194.108C67.7528 195.175 67.0451 196.203 65.9783 196.401C65.8573 196.423 65.7373 196.434 65.6185 196.434ZM65.6224 193.306C65.5522 193.306 65.4813 193.313 65.4096 193.326C65.1052 193.382 64.8405 193.554 64.6655 193.809C64.4897 194.064 64.4242 194.372 64.4804 194.677C64.5952 195.296 65.196 195.728 65.8313 195.606C66.4598 195.49 66.8769 194.883 66.7606 194.255C66.6586 193.705 66.1803 193.306 65.6224 193.306Z" fill="#1A0F1C"/>
<path d="M98 89.0127L145.644 83L148.166 163L99.9538 159.291L98 89.0127Z" fill="#E8E8E8"/>
<path d="M124.854 109.49L155.053 110.549C155.053 110.549 154.16 94.1639 156.809 95.7534C159.458 97.3428 186.311 121.145 186.311 121.145C186.311 121.145 155.583 152.933 153.993 150.285C152.404 147.636 152.934 136.51 152.934 136.51L124.854 135.98V109.49H124.854Z" fill="#D8DBEA"/>
<path d="M98 89.0127L136.539 93.9112L136.473 153.783L99.9538 159.291L98 89.0127Z" fill="#6265E8"/>
<path d="M125.506 95.505C125.491 95.505 125.477 95.5038 125.462 95.501C122.686 95.0111 105.608 93.0386 105.436 93.0186C105.3 93.0029 105.202 92.8796 105.217 92.7435C105.233 92.6072 105.356 92.5109 105.493 92.5251C105.665 92.545 122.758 94.5191 125.549 95.0118C125.684 95.0355 125.774 95.1643 125.75 95.2996C125.729 95.4202 125.624 95.505 125.506 95.505Z" fill="#FBFCFF"/>
<path d="M174.533 114.718C174.461 114.718 174.391 114.688 174.341 114.629C173.7 113.859 165.851 107.598 161.79 104.396C161.683 104.311 161.664 104.154 161.749 104.047C161.834 103.939 161.99 103.921 162.098 104.006C162.579 104.385 173.888 113.309 174.723 114.311C174.811 114.416 174.797 114.573 174.691 114.661C174.645 114.7 174.589 114.718 174.533 114.718Z" fill="#FBFCFF"/>
<path d="M180.826 120.516C180.771 120.516 180.717 120.498 180.671 120.461L176.53 117.149C176.423 117.063 176.406 116.906 176.491 116.799C176.578 116.693 176.733 116.675 176.841 116.761L180.981 120.073C181.088 120.159 181.106 120.315 181.02 120.422C180.971 120.483 180.899 120.516 180.826 120.516Z" fill="#FBFCFF"/>
<path d="M103.743 154.257C103.677 154.257 103.611 154.231 103.563 154.18C103.468 154.08 103.472 153.923 103.571 153.828C103.949 153.469 104.951 152.933 106.036 153.481C106.159 153.543 106.208 153.692 106.146 153.815C106.085 153.938 105.935 153.987 105.812 153.925C104.765 153.397 103.923 154.18 103.914 154.188C103.866 154.234 103.804 154.257 103.743 154.257Z" fill="#1A0F1C"/>
<path d="M106.101 155.576C106.035 155.576 105.97 155.55 105.921 155.498C105.826 155.399 105.83 155.242 105.929 155.147C106.307 154.788 107.308 154.252 108.394 154.8C108.516 154.861 108.566 155.011 108.504 155.133C108.442 155.255 108.293 155.305 108.17 155.243C107.123 154.716 106.281 155.499 106.272 155.507C106.224 155.553 106.162 155.576 106.101 155.576Z" fill="#1A0F1C"/>
<path d="M107.65 153.473C107.585 153.473 107.519 153.447 107.47 153.396C107.376 153.296 107.38 153.139 107.479 153.044C107.857 152.685 108.858 152.149 109.944 152.697C110.066 152.759 110.115 152.909 110.054 153.031C109.992 153.154 109.843 153.203 109.72 153.141C108.673 152.613 107.83 153.396 107.822 153.404C107.774 153.45 107.712 153.473 107.65 153.473Z" fill="#1A0F1C"/>
<path d="M109.859 154.884C109.793 154.884 109.728 154.858 109.679 154.807C109.584 154.708 109.588 154.55 109.688 154.456C110.066 154.097 111.066 153.56 112.152 154.109C112.275 154.171 112.324 154.32 112.262 154.442C112.201 154.565 112.051 154.615 111.929 154.552C110.881 154.024 110.039 154.808 110.03 154.816C109.982 154.861 109.921 154.884 109.859 154.884Z" fill="#1A0F1C"/>
<path d="M112.009 152.591C111.943 152.591 111.878 152.565 111.829 152.514C111.734 152.415 111.738 152.257 111.837 152.163C112.215 151.803 113.217 151.268 114.302 151.816C114.425 151.878 114.474 152.027 114.412 152.149C114.351 152.272 114.202 152.322 114.079 152.259C113.031 151.732 112.189 152.515 112.18 152.523C112.132 152.568 112.071 152.591 112.009 152.591Z" fill="#1A0F1C"/>
<path d="M113.471 154.466C113.406 154.466 113.34 154.44 113.291 154.389C113.196 154.29 113.2 154.132 113.3 154.038C113.678 153.678 114.679 153.143 115.764 153.691C115.887 153.753 115.936 153.902 115.874 154.024C115.813 154.147 115.664 154.197 115.541 154.134C114.494 153.607 113.651 154.389 113.643 154.398C113.594 154.443 113.533 154.466 113.471 154.466Z" fill="#1A0F1C"/>
<path d="M115.631 152.805C115.565 152.805 115.5 152.78 115.451 152.728C115.356 152.629 115.36 152.471 115.46 152.377C115.837 152.018 116.838 151.482 117.924 152.03C118.047 152.092 118.096 152.241 118.034 152.363C117.973 152.486 117.824 152.536 117.701 152.473C116.653 151.946 115.811 152.729 115.802 152.737C115.754 152.783 115.692 152.805 115.631 152.805Z" fill="#1A0F1C"/>
<path d="M159.453 140.946C159.441 140.946 159.429 140.945 159.416 140.943C159.281 140.923 159.187 140.797 159.207 140.662C159.283 140.145 159.742 139.107 160.935 138.87C161.07 138.842 161.2 138.93 161.227 139.065C161.254 139.199 161.166 139.33 161.032 139.357C159.891 139.584 159.706 140.688 159.699 140.735C159.68 140.858 159.574 140.946 159.453 140.946Z" fill="#1A0F1C"/>
<path d="M162.123 140.532C162.11 140.532 162.098 140.531 162.085 140.529C161.95 140.509 161.857 140.383 161.877 140.248C161.953 139.732 162.412 138.693 163.604 138.456C163.741 138.428 163.87 138.517 163.897 138.651C163.924 138.786 163.836 138.917 163.702 138.943C162.56 139.17 162.375 140.274 162.368 140.321C162.349 140.444 162.243 140.532 162.123 140.532Z" fill="#1A0F1C"/>
<path d="M162.049 137.921C162.037 137.921 162.025 137.921 162.013 137.919C161.877 137.899 161.783 137.772 161.803 137.637C161.879 137.121 162.338 136.082 163.531 135.845C163.667 135.817 163.796 135.906 163.823 136.04C163.85 136.175 163.762 136.306 163.628 136.332C162.477 136.561 162.296 137.698 162.295 137.709C162.276 137.832 162.17 137.921 162.049 137.921Z" fill="#1A0F1C"/>
<path d="M164.658 137.672C164.645 137.672 164.633 137.672 164.62 137.67C164.485 137.649 164.391 137.523 164.411 137.388C164.488 136.872 164.947 135.834 166.139 135.596C166.275 135.569 166.404 135.657 166.431 135.791C166.458 135.926 166.37 136.057 166.236 136.084C165.095 136.311 164.91 137.415 164.903 137.461C164.884 137.584 164.778 137.672 164.658 137.672Z" fill="#1A0F1C"/>
<path d="M164.939 134.541C164.927 134.541 164.914 134.541 164.902 134.539C164.766 134.518 164.673 134.393 164.693 134.257C164.769 133.741 165.228 132.703 166.421 132.466C166.556 132.437 166.686 132.526 166.713 132.661C166.74 132.795 166.652 132.926 166.518 132.953C165.376 133.18 165.192 134.284 165.185 134.331C165.166 134.453 165.06 134.541 164.939 134.541Z" fill="#1A0F1C"/>
<path d="M167.245 135.118C167.233 135.118 167.221 135.117 167.208 135.116C167.073 135.095 166.979 134.969 166.999 134.834C167.075 134.318 167.534 133.279 168.727 133.042C168.862 133.014 168.992 133.103 169.019 133.237C169.046 133.372 168.958 133.503 168.824 133.529C167.683 133.757 167.498 134.861 167.491 134.907C167.472 135.03 167.366 135.118 167.245 135.118Z" fill="#1A0F1C"/>
<path d="M167.924 132.479C167.912 132.479 167.899 132.478 167.887 132.476C167.751 132.456 167.658 132.33 167.678 132.195C167.754 131.679 168.213 130.64 169.406 130.403C169.541 130.375 169.671 130.464 169.698 130.598C169.725 130.733 169.637 130.864 169.503 130.891C168.361 131.118 168.177 132.222 168.169 132.268C168.151 132.391 168.045 132.479 167.924 132.479Z" fill="#1A0F1C"/>
<path d="M193.333 19.0087C193.333 19.0087 142.38 22.6442 140.623 23.8739C138.867 25.1036 141.326 47.24 141.853 48.6456C142.38 50.0511 166.098 46.8886 166.8 47.0644C167.503 47.24 170.841 53.0379 171.895 52.3351C172.949 51.6323 176.639 45.6589 176.639 45.6589C176.639 45.6589 195.613 44.2533 196.491 43.1994C197.37 42.1455 197.55 18.4817 193.333 19.0087Z" fill="#FA93BF"/>
<path d="M154.979 28.0461C154.979 28.0461 144.936 28.5984 145.031 29.2429C145.127 29.8874 145.605 44.4317 146.944 44.7999C148.283 45.1681 157.274 43.3271 157.274 43.3271L156.7 39.0926L150.77 39.7371L150.387 38.0802L153.639 37.712L153.065 33.7538L149.909 34.0301L149.813 32.3732L155.361 31.8209L154.979 28.0461Z" fill="#FDFFFF"/>
<path d="M157.178 29.1527C157.178 29.1527 160.509 27.1827 160.983 27.5327C161.457 27.8831 164.405 32.7444 164.405 32.7444C164.405 32.7444 166.757 26.8507 167.213 26.741C167.669 26.6314 172.234 28.0225 172.234 28.0225L168.567 35.6247C168.567 35.6247 173.011 41.0735 172.654 41.3637C172.297 41.6538 168.202 42.9162 168.202 42.9162L165.25 37.9627C165.25 37.9627 164.079 43.4428 163.528 43.4638C162.976 43.4849 159.186 43.0775 159.186 43.0775L161.201 35.6307C161.201 35.6307 156.818 29.351 157.178 29.1527Z" fill="#FDFFFF"/>
<path d="M173.79 27.0535C173.79 27.0535 174.767 41.8537 175.06 41.6551C175.353 41.4565 180.14 41.4565 180.336 41.059C180.531 40.6618 179.359 26.656 178.968 26.4574C178.577 26.2588 173.79 27.0535 173.79 27.0535Z" fill="#FDFFFF"/>
<path d="M192.131 25.259C192.131 25.259 181.049 25.5396 180.949 26.0073C180.849 26.4749 181.548 30.0297 181.548 30.0297L184.244 29.7491C184.244 29.7491 184.743 39.8521 185.242 39.8521C185.742 39.8521 189.835 39.2909 189.835 39.2909L189.136 29.5624C189.136 29.5624 192.531 29.843 192.631 29.4689C192.731 29.0948 192.131 25.259 192.131 25.259Z" fill="#FDFFFF"/>
</svg>
