<svg width="24" height="24" viewBox="0 0 24 24" fill="none" xmlns="http://www.w3.org/2000/svg">
<path fill-rule="evenodd" clip-rule="evenodd" d="M19.6512 18.6977C19.6512 19.308 19.4084 19.894 18.9772 20.326C18.5452 20.7572 17.9592 21 17.3488 21H7.30233C6.692 21 6.10595 20.7572 5.67395 20.326C5.24279 19.894 5 19.308 5 18.6977V5.30233C5 4.692 5.24279 4.10595 5.67395 3.67395C6.10595 3.24279 6.692 3 7.30233 3H14.4906C14.8791 3 15.2516 3.15405 15.5262 3.42949L19.2217 7.12493C19.4971 7.39953 19.6512 7.77209 19.6512 8.16056V18.6977ZM18.3953 18.6977V8.16056C18.3953 8.1053 18.3736 8.05172 18.3342 8.01237L14.6388 4.31693C14.5994 4.27758 14.5459 4.25581 14.4906 4.25581H7.30233C7.02437 4.25581 6.75898 4.36633 6.56223 4.56223C6.36633 4.75898 6.25581 5.02437 6.25581 5.30233V18.6977C6.25581 18.9756 6.36633 19.241 6.56223 19.4378C6.75898 19.6337 7.02437 19.7442 7.30233 19.7442H17.3488C17.6268 19.7442 17.8922 19.6337 18.0889 19.4378C18.2848 19.241 18.3953 18.9756 18.3953 18.6977Z" fill="#A39FA4"/>
<path fill-rule="evenodd" clip-rule="evenodd" d="M14.2092 4.04649C14.2092 3.69988 14.4905 3.41858 14.8371 3.41858C15.1837 3.41858 15.465 3.69988 15.465 4.04649V6.97672C15.465 7.09225 15.5588 7.18602 15.6743 7.18602H18.6046C18.9512 7.18602 19.2325 7.46732 19.2325 7.81393C19.2325 8.16053 18.9512 8.44183 18.6046 8.44183H15.6743C14.8648 8.44183 14.2092 7.7863 14.2092 6.97672V4.04649Z" fill="#A39FA4"/>
<path fill-rule="evenodd" clip-rule="evenodd" d="M8.97678 11.3721C8.63018 11.3721 8.34888 11.0908 8.34888 10.7442C8.34888 10.3976 8.63018 10.1163 8.97678 10.1163H15.6745C16.0211 10.1163 16.3024 10.3976 16.3024 10.7442C16.3024 11.0908 16.0211 11.3721 15.6745 11.3721H8.97678Z" fill="#A39FA4"/>
<path fill-rule="evenodd" clip-rule="evenodd" d="M8.97678 14.3023C8.63018 14.3023 8.34888 14.021 8.34888 13.6744C8.34888 13.3278 8.63018 13.0465 8.97678 13.0465H15.6745C16.0211 13.0465 16.3024 13.3278 16.3024 13.6744C16.3024 14.021 16.0211 14.3023 15.6745 14.3023H8.97678Z" fill="#A39FA4"/>
<path fill-rule="evenodd" clip-rule="evenodd" d="M8.97678 17.2325C8.63018 17.2325 8.34888 16.9512 8.34888 16.6046C8.34888 16.258 8.63018 15.9767 8.97678 15.9767H12.7442C13.0908 15.9767 13.3721 16.258 13.3721 16.6046C13.3721 16.9512 13.0908 17.2325 12.7442 17.2325H8.97678Z" fill="#A39FA4"/>
</svg>
