<svg width="10" height="10" viewBox="0 0 10 10" fill="none" xmlns="http://www.w3.org/2000/svg">
<path fill-rule="evenodd" clip-rule="evenodd" d="M5 0.125C5 0.125 5.99157 0.125 6.89769 0.508256C6.89769 0.508256 7.77261 0.878316 8.44715 1.55285C8.44715 1.55285 9.12169 2.22739 9.49174 3.10231C9.49174 3.10231 9.875 4.00843 9.875 5C9.875 5 9.875 5.99156 9.49174 6.89768C9.49174 6.89768 9.12169 7.77261 8.44715 8.44715C8.44715 8.44715 7.77261 9.12168 6.89769 9.49174C6.89769 9.49174 5.99156 9.875 5 9.875C5 9.875 4.00843 9.875 3.10232 9.49174C3.10232 9.49174 2.22739 9.12168 1.55285 8.44715C1.55285 8.44715 0.878316 7.77261 0.508256 6.89769C0.508256 6.89769 0.125 5.99157 0.125 5C0.125 5 0.125 4.00843 0.508256 3.10231C0.508256 3.10231 0.878317 2.22739 1.55285 1.55285C1.55285 1.55285 2.22739 0.878317 3.10232 0.508255C3.10232 0.508255 4.00843 0.125 5 0.125ZM5 0.875C5 0.875 4.16052 0.875 3.39448 1.19901C3.39448 1.19901 2.65428 1.51208 2.08318 2.08318C2.08318 2.08318 1.51209 2.65428 1.19901 3.39448C1.19901 3.39448 0.875 4.16052 0.875 5C0.875 5 0.875 5.83948 1.19901 6.60552C1.19901 6.60552 1.51209 7.34572 2.08318 7.91682C2.08318 7.91682 2.65428 8.48791 3.39448 8.80099C3.39448 8.80099 4.16052 9.125 5 9.125C5 9.125 5.83948 9.125 6.60552 8.80099C6.60552 8.80099 7.34571 8.48792 7.91682 7.91682C7.91682 7.91682 8.48792 7.34571 8.80099 6.60552C8.80099 6.60552 9.125 5.83947 9.125 5C9.125 5 9.125 4.16053 8.80099 3.39448C8.80099 3.39448 8.48792 2.65428 7.91682 2.08318C7.91682 2.08318 7.34571 1.51208 6.60552 1.19901C6.60552 1.19901 5.83948 0.875 5 0.875Z" fill="#A39FA4"/>
<path d="M5 5.375H7.625C7.83211 5.375 8 5.20711 8 5C8 4.79289 7.83211 4.625 7.625 4.625H5.375V2.375C5.375 2.16789 5.20711 2 5 2C4.79289 2 4.625 2.16789 4.625 2.375V5C4.625 5.20711 4.79289 5.375 5 5.375Z" fill="#A39FA4"/>
</svg>
