<svg width="24" height="24" viewBox="0 0 24 24" fill="none" xmlns="http://www.w3.org/2000/svg">
<path d="M18.29 6C17.4449 6 17.0217 7.02172 17.6193 7.61927C17.9897 7.98971 17.9897 8.59029 17.6193 8.96073L15.4093 11.1707C14.3051 12.2749 12.5149 12.2749 11.4107 11.1707C10.306 10.066 8.51465 10.0666 7.41067 11.172L2.70429 15.8848C2.31524 16.2743 2.31546 16.9055 2.70476 17.2948C3.09425 17.6843 3.72575 17.6843 4.11524 17.2948L7.4092 14.0008C8.51421 12.8958 10.3058 12.8958 11.4108 14.0008C12.5152 15.1052 14.3055 15.1059 15.4108 14.0024L19.0391 10.3798C19.4097 10.0098 20.01 10.01 20.3803 10.3803C20.978 10.978 22 10.5547 22 9.70947V7.75736C22 6.7868 21.2132 6 20.2426 6H18.29Z" fill="#00B69B"/>
</svg>
