<svg width="20" height="20" viewBox="0 0 20 20" fill="none" xmlns="http://www.w3.org/2000/svg">
<path d="M5.85645 15.8213L8.69811 18.0213C9.06478 18.3879 9.88978 18.5713 10.4398 18.5713H13.9231C15.0231 18.5713 16.2148 17.7463 16.4898 16.6463L18.6898 9.95459C19.1481 8.67125 18.3231 7.57125 16.9481 7.57125H13.2814C12.7314 7.57125 12.2731 7.11292 12.3648 6.47125L12.8231 3.53792C13.0064 2.71292 12.4564 1.79625 11.6314 1.52125C10.8981 1.24625 9.98145 1.61292 9.61478 2.16292L5.85645 7.75459" stroke="#6265E8" stroke-width="1.5" stroke-miterlimit="10"/>
<path d="M1.18164 15.8217V6.83835C1.18164 5.55501 1.73164 5.09668 3.01497 5.09668H3.93164C5.21497 5.09668 5.76497 5.55501 5.76497 6.83835V15.8217C5.76497 17.105 5.21497 17.5633 3.93164 17.5633H3.01497C1.73164 17.5633 1.18164 17.105 1.18164 15.8217Z" stroke="#6265E8" stroke-width="1.5" stroke-linecap="round" stroke-linejoin="round"/>
</svg>
