<svg width="60" height="60" viewBox="0 0 60 60" fill="none" xmlns="http://www.w3.org/2000/svg">
<path opacity="0.21" fill-rule="evenodd" clip-rule="evenodd" d="M0 30V44C0 52.8366 7.16344 60 16 60H30H44C52.8366 60 60 52.8366 60 44V30V16C60 7.16344 52.8366 0 44 0H30H16C7.16344 0 0 7.16344 0 16V30Z" fill="#10D6E3"/>
<path d="M42.1626 26.6531C42.0531 26.3086 41.842 26.0052 41.5571 25.7826C41.2721 25.5601 40.9266 25.4289 40.5657 25.4062L34.0689 24.9578L31.6626 18.8875C31.5312 18.5533 31.3025 18.2661 31.0061 18.0633C30.7097 17.8605 30.3592 17.7514 30.0001 17.75C29.641 17.7514 29.2905 17.8605 28.9941 18.0633C28.6977 18.2661 28.469 18.5533 28.3376 18.8875L25.8876 24.9906L19.4345 25.4062C19.0741 25.4304 18.7292 25.5622 18.4446 25.7845C18.1599 26.0068 17.9484 26.3094 17.8376 26.6531C17.7238 27.0022 17.7171 27.3773 17.8185 27.7302C17.9199 28.083 18.1246 28.3974 18.4064 28.6328L23.372 32.8328L21.8954 38.6406C21.7933 39.0335 21.8116 39.4481 21.9482 39.8304C22.0847 40.2127 22.3331 40.5451 22.661 40.7844C22.9794 41.0128 23.3586 41.1411 23.7502 41.1528C24.1419 41.1645 24.5281 41.0591 24.8595 40.85L29.9892 37.6016H30.011L35.5345 41.0906C35.8178 41.2747 36.1481 41.3735 36.486 41.375C36.7619 41.3728 37.0337 41.3074 37.2803 41.1838C37.527 41.0602 37.742 40.8817 37.9089 40.662C38.0758 40.4423 38.1901 40.1872 38.243 39.9165C38.296 39.6457 38.2861 39.3664 38.2142 39.1L36.6501 32.7453L41.5939 28.6328C41.8756 28.3974 42.0803 28.083 42.1817 27.7302C42.2831 27.3773 42.2764 27.0022 42.1626 26.6531Z" fill="#10D6E3"/>
</svg>
