<svg width="60" height="60" viewBox="0 0 60 60" fill="none" xmlns="http://www.w3.org/2000/svg">
<path opacity="0.21" fill-rule="evenodd" clip-rule="evenodd" d="M0 30V44C0 52.8366 7.16344 60 16 60H30H44C52.8366 60 60 52.8366 60 44V30V16C60 7.16344 52.8366 0 44 0H30H16C7.16344 0 0 7.16344 0 16V30Z" fill="#FDE9AF"/>
<path d="M36.0937 39.5626C36.743 39.2785 37.3698 38.9455 37.9687 38.5665V43.1251C37.9687 43.3737 37.8699 43.6122 37.6941 43.788C37.5183 43.9638 37.2798 44.0626 37.0312 44.0626C36.7825 44.0626 36.5441 43.9638 36.3682 43.788C36.1924 43.6122 36.0937 43.3737 36.0937 43.1251V39.5626ZM29.1679 25.8048C29.0543 26.0263 29.0312 26.2833 29.1033 26.5215C29.1754 26.7598 29.3372 26.9608 29.5546 27.0821L35.039 30.0001L37.0312 28.9337L30.4452 25.4181C30.2237 25.3045 29.9667 25.2814 29.7285 25.3535C29.4902 25.4256 29.2892 25.5874 29.1679 25.8048ZM44.5077 25.4181L30.4452 17.9181C30.3069 17.849 30.1545 17.813 29.9999 17.813C29.8453 17.813 29.6929 17.849 29.5546 17.9181L15.4921 25.4181C15.343 25.4999 15.2187 25.6203 15.1321 25.7667C15.0455 25.9131 14.9998 26.08 14.9998 26.2501C14.9998 26.4202 15.0455 26.5871 15.1321 26.7335C15.2187 26.8799 15.343 27.0003 15.4921 27.0821L18.2812 28.5587V34.3946C18.2794 34.797 18.4113 35.1886 18.6562 35.5079C19.5819 36.7501 23.1444 40.7814 29.9999 40.7814C32.0946 40.7988 34.1699 40.3798 36.0937 39.5509V30.5626L35.039 30.0001L29.9999 32.6837L19.664 27.1759L17.9296 26.2501L29.9999 19.8165L42.0702 26.2501L40.3358 27.1759L37.0312 28.9337L37.4765 29.1681C37.635 29.2596 37.7649 29.3935 37.8515 29.5548C37.9294 29.6902 37.9699 29.8439 37.9687 30.0001V38.5665C39.2636 37.7519 40.4059 36.7167 41.3437 35.5079C41.5885 35.1886 41.7204 34.797 41.7187 34.3946V28.5587L44.5077 27.0821C44.6568 27.0003 44.7811 26.8799 44.8678 26.7335C44.9544 26.5871 45.0001 26.4202 45.0001 26.2501C45.0001 26.08 44.9544 25.9131 44.8678 25.7667C44.7811 25.6203 44.6568 25.4999 44.5077 25.4181Z" fill="#FFC517"/>
</svg>
