<svg width="24" height="24" viewBox="0 0 24 24" fill="none" xmlns="http://www.w3.org/2000/svg">
<path d="M7.8032 3C7.32291 3.00048 6.93282 3.38944 6.93234 3.86972V4.74512H6.61371C5.18141 4.74512 4 5.92653 4 7.35883V18.3863C4 19.8186 5.18141 21 6.61371 21H17.6457C19.078 21 20.256 19.8186 20.256 18.3863V7.35883C20.256 5.92653 19.078 4.74512 17.6457 4.74512H17.3259V3.86972C17.3255 3.38944 16.9354 3.00046 16.4551 3C15.9748 3.00048 15.5858 3.38944 15.5854 3.86972V4.74512H8.67292V3.86972C8.67245 3.38944 8.28349 3.00048 7.8032 3ZM6.61371 6.48457H17.6457C18.1432 6.48457 18.5154 6.86131 18.5154 7.35883V9.38289H5.74398V7.35883C5.74398 6.86131 6.11619 6.48457 6.61371 6.48457ZM5.74398 11.1246H18.5154V18.3863C18.5154 18.8838 18.1432 19.256 17.6457 19.256H6.61371C6.11619 19.256 5.74398 18.8838 5.74398 18.3863V11.1246ZM8.06287 12.5443C7.8323 12.5446 7.61125 12.6363 7.44821 12.7994C7.28517 12.9624 7.19345 13.1834 7.19315 13.414C7.19315 13.6448 7.28474 13.8661 7.44781 14.0294C7.61089 14.1927 7.8321 14.2846 8.06287 14.2849H8.72735C8.95812 14.2846 9.17934 14.1927 9.34241 14.0294C9.50548 13.8661 9.59708 13.6448 9.59708 13.414C9.59678 13.1834 9.50505 12.9624 9.34201 12.7994C9.17897 12.6363 8.95793 12.5446 8.72735 12.5443H8.06287ZM11.7958 12.5443C11.5652 12.5446 11.3441 12.6363 11.1811 12.7994C11.0181 12.9624 10.9263 13.1834 10.926 13.414C10.926 13.6448 11.0176 13.8661 11.1807 14.0294C11.3438 14.1927 11.565 14.2846 11.7958 14.2849H12.4602C12.5749 14.2853 12.6885 14.2631 12.7946 14.2196C12.9006 14.176 12.997 14.1119 13.0782 14.031C13.1595 13.9501 13.2239 13.8539 13.2679 13.7481C13.3119 13.6422 13.3345 13.5287 13.3345 13.414C13.3344 13.2995 13.3116 13.1861 13.2676 13.0803C13.2235 12.9746 13.1591 12.8785 13.0778 12.7977C12.9966 12.717 12.9003 12.653 12.7943 12.6095C12.6883 12.566 12.5748 12.5438 12.4602 12.5443H11.7958ZM15.5287 12.5443C15.2981 12.5446 15.077 12.6363 14.914 12.7994C14.751 12.9624 14.6592 13.1834 14.6589 13.414C14.6589 13.6448 14.7505 13.8661 14.9136 14.0294C15.0767 14.1927 15.2979 14.2846 15.5287 14.2849H16.1931C16.3078 14.2853 16.4214 14.2631 16.5275 14.2196C16.6335 14.176 16.7299 14.1119 16.8111 14.031C16.8924 13.9501 16.9568 13.8539 17.0008 13.7481C17.0448 13.6422 17.0674 13.5287 17.0674 13.414C17.0673 13.2995 17.0445 13.1861 17.0005 13.0803C16.9564 12.9746 16.8919 12.8785 16.8107 12.7977C16.7295 12.717 16.6332 12.653 16.5272 12.6095C16.4212 12.566 16.3077 12.5438 16.1931 12.5443H15.5287ZM8.06287 15.9041C7.58258 15.9046 7.19362 16.2947 7.19315 16.775C7.19125 17.2569 7.5809 17.6488 8.06287 17.6492H8.72735C9.20932 17.6488 9.59898 17.2569 9.59708 16.775C9.5966 16.2947 9.20764 15.9046 8.72735 15.9041H8.06287ZM11.7958 15.9041C11.3155 15.9046 10.9265 16.2947 10.926 16.775C10.9241 17.2569 11.3138 17.6488 11.7958 17.6492H12.4602C12.9439 17.6511 13.3364 17.2586 13.3345 16.775C13.334 16.293 12.9422 15.9022 12.4602 15.9041H11.7958ZM15.5287 15.9041C15.0484 15.9046 14.6594 16.2947 14.6589 16.775C14.657 17.2569 15.0467 17.6488 15.5287 17.6492H16.1931C16.6768 17.6511 17.0693 17.2586 17.0674 16.775C17.0669 16.293 16.6751 15.9022 16.1931 15.9041H15.5287Z" fill="#A39FA4"/>
</svg>
