<svg width="71" height="70" viewBox="0 0 71 70" fill="none" xmlns="http://www.w3.org/2000/svg">
<rect x="0.100098" width="70" height="70" rx="35" fill="#E5E7EB"/>
<path d="M18.4578 35.1861C18.6437 41.858 23.1035 51.4693 35.2605 51.3462C47.1058 51.2259 51.8746 41.4205 51.5027 34.3767C51.1281 27.333 45.5801 18.665 34.607 18.7279C23.6312 18.788 18.2554 28.0138 18.4578 35.1861Z" fill="url(#paint0_radial_1898_37202)"/>
<path d="M34.8341 18.7258C34.8341 18.7258 34.711 19.0731 35.4275 19.2918C36.1439 19.5106 36.5239 19.5242 37.0353 19.7594C37.5466 19.9918 37.8528 20.3582 38.5829 20.7383C39.313 21.1184 39.5618 21.2059 39.6931 20.9434C39.7532 20.8258 39.5044 20.3008 39.5044 20.3008C39.5044 20.3008 39.622 19.8031 39.447 19.6281C39.2993 19.4805 38.4845 19.1496 38.1919 19.032C37.9185 18.9227 36.9368 18.8024 36.4665 18.7723C35.3126 18.7012 34.8341 18.7258 34.8341 18.7258Z" fill="white"/>
<path d="M31.0145 31.1177C31.0391 31.1806 31.1922 31.4923 31.4985 31.5771C31.8047 31.6618 32.6141 31.6782 32.8082 31.7548C33.0051 31.8313 33.4809 32.0774 33.6094 32.154C33.7379 32.2306 34.2383 32.6517 34.3586 32.6899C34.6403 32.7829 34.8016 32.6134 34.9301 32.6571C35.0586 32.7009 35.1352 32.947 35.3895 32.9634C35.5426 32.9743 35.7395 32.7255 35.8844 32.6981C36.0293 32.6708 36.7704 32.731 36.7868 32.4931C36.8032 32.2552 36.2836 31.7603 35.9774 31.7603C35.7204 31.7603 35.6793 31.9817 35.4825 31.9899C35.2856 31.9981 35.1598 31.7849 34.9301 31.7931C34.7004 31.8013 34.5801 31.9981 34.4543 31.938C34.3258 31.8778 32.9559 30.9345 32.5977 30.8306C32.2395 30.7294 31.3043 30.8552 31.1758 30.8907C31.05 30.9317 30.9735 31.0083 31.0145 31.1177Z" fill="#7ADD8A"/>
<path d="M25.0343 23.3105C25.2394 22.8128 25.562 22.0609 25.9995 21.5769C26.4397 21.0929 27.1917 20.4203 27.1917 20.4203C27.1917 20.4203 28.5315 19.7175 30.5522 19.1925C32.5729 18.6675 34.528 18.7277 34.528 18.7277C34.528 18.7277 34.3585 18.8863 34.3722 18.9738C34.3858 19.0613 34.3858 19.2089 34.7386 19.3402C35.0886 19.4714 35.7913 19.5589 35.9827 19.7804C36.1741 19.9992 36.2315 20.2917 36.0128 20.4394C35.794 20.5871 35.3976 20.5406 35.0175 20.4257C34.6374 20.3081 34.6511 20.2945 34.6073 20.1632C34.5636 20.032 34.9874 19.9718 34.93 19.8406C34.8726 19.7093 34.6811 19.7667 34.4624 19.6492C34.2436 19.5316 34.0851 19.5042 33.9483 19.5617C33.8116 19.6191 33.6776 19.9089 33.6175 20.0538C33.5573 20.1988 33.5245 20.248 33.4644 20.2917C33.4042 20.3355 33.0323 20.3163 32.9311 20.3246C32.83 20.3328 32.4308 20.5187 32.1956 20.6281C31.9577 20.7374 31.4601 20.8578 31.3479 20.9507C31.2386 21.0437 31.1374 21.1968 31.3233 21.3144C31.5093 21.432 31.9249 21.5523 32.171 21.6371C32.4171 21.7218 32.8491 21.73 32.9065 21.8066C32.9667 21.8831 32.9147 22.2386 32.9585 22.2906C32.9995 22.3425 33.1608 22.5531 33.262 22.5367C33.3632 22.5203 33.5081 22.1292 33.5655 22.0117C33.6257 21.8941 34.0304 21.7574 33.9976 21.5714C33.9647 21.3855 33.7761 21.3499 33.7679 21.2406C33.7597 21.1312 33.8937 20.9015 33.8854 20.8413C33.8772 20.7812 33.8937 20.4421 34.0714 20.4093C34.2491 20.3765 34.4952 20.5105 34.6976 20.5788C34.8999 20.6472 35.105 20.5706 35.4167 20.7812C35.7312 20.9917 35.6628 21.1531 35.8159 21.1613C35.969 21.1695 35.9772 20.9152 36.1796 20.8824C36.3819 20.8496 36.7647 21.2296 37.246 21.5167C37.7272 21.8038 38.3808 22.2031 38.5749 22.482C38.769 22.7609 38.7007 22.8292 38.8538 22.9304C39.0069 23.0316 39.5155 23.3105 39.5401 23.4308C39.5647 23.5484 39.5319 23.7097 39.0315 23.6769C38.5311 23.6441 38.3206 23.5156 38.2003 23.3898C38.0827 23.264 38.0745 23.1437 38.1073 23.0671C38.1401 22.9906 38.2769 22.9824 38.2769 22.9824C38.2769 22.9824 38.3534 22.6679 38.1511 22.5749C37.9487 22.482 37.7519 22.4218 37.1257 22.523C36.4995 22.6242 36.0757 22.7691 35.9909 22.9031C35.9061 23.0398 35.9827 23.2066 36.0921 23.2066C36.2015 23.2066 36.6007 22.9769 36.7429 23.0206C36.8878 23.0617 36.7429 23.5292 36.8522 23.5976C36.9616 23.666 37.2925 23.6304 37.4702 23.6386C37.6479 23.6468 37.8339 23.6222 37.9269 23.7644C38.0198 23.9066 37.7655 24.0433 37.5276 24.1445C37.2897 24.2456 36.9425 24.4753 36.8413 24.5601C36.7401 24.6449 36.5706 24.7214 36.5022 24.5765C36.4339 24.4316 36.5104 24.1609 36.5104 24.1609C36.5104 24.1609 35.9335 24.3906 35.8405 24.4999C35.7476 24.6093 35.8925 24.9484 35.7038 25.1261C35.5179 25.3038 35.187 25.1671 35.0175 25.2437C34.8479 25.3203 34.5526 25.6074 34.3558 25.8453C34.1616 26.0831 34.0604 26.2089 34.0604 26.3785C34.0604 26.548 34.2464 26.7175 33.9429 26.9718C33.6394 27.2261 33.478 27.166 33.2073 27.2945C32.9366 27.4203 32.5292 27.6581 32.3679 28.0136C32.2065 28.3691 32.4089 29.08 32.4444 29.3261C32.4772 29.5722 32.5976 30.1218 32.3186 30.13C32.0397 30.1382 32.0042 29.9605 31.8019 29.4109C31.5995 28.8613 31.5229 28.6152 31.3698 28.5386C31.2167 28.4621 31.0226 28.5304 30.6835 28.5714C30.3444 28.6124 28.98 28.6726 28.7011 28.6726C28.4222 28.6726 28.0667 28.5878 27.7522 28.9953C27.4378 29.4027 27.4651 29.6296 27.4569 29.9359C27.4487 30.2421 27.3476 30.3351 27.2026 30.5976C27.0577 30.8601 27.0167 31.5874 27.0659 31.7078C27.1179 31.8253 27.5499 32.3011 27.6237 32.3011C27.7003 32.3011 28.403 32.3339 28.5206 32.2929C28.6382 32.2519 28.7749 32.0824 28.8433 31.9128C28.9116 31.7433 28.8843 31.5984 29.0729 31.4124C29.2616 31.2265 29.5132 31.2511 29.6745 31.2429C29.8358 31.2347 29.9616 31.2019 30.1065 31.1828C30.2515 31.1663 30.4702 31.3851 30.462 31.4617C30.4538 31.5382 30.1394 31.8609 30.0546 32.0386L29.9698 32.2163C29.9698 32.2163 29.9097 32.4871 29.8331 32.6046C29.7565 32.7222 29.6964 32.8425 29.6308 32.9273C29.5624 33.0121 29.6061 33.1734 29.7483 33.2062C29.8933 33.239 29.8659 33.1296 29.9179 33.105C29.9698 33.0804 30.7819 33.0968 30.9515 33.1132C31.121 33.1296 31.3753 33.3757 31.3999 33.4605C31.4245 33.5453 31.4327 34.0456 31.3397 34.2999C31.2468 34.5542 31.0936 34.6882 31.0772 34.7839C31.0608 34.8769 31.1019 35.0218 31.1019 35.0218C31.1019 35.0218 31.2276 35.2597 31.4163 35.4374C31.6022 35.6152 31.8046 35.7246 31.8046 35.7246C31.8046 35.7246 32.2366 35.7246 32.4663 35.7163C32.696 35.7081 32.8546 35.6753 33.0077 35.7847C33.1608 35.8941 33.4315 36.2167 33.4917 36.2085C33.5519 36.2003 33.6366 35.8695 34.1097 35.4894C34.5827 35.1093 34.7714 35.0656 35.0503 35.0246C35.3292 34.9835 35.3811 35.1093 35.3811 35.1093C35.3811 35.1093 35.5069 35.2187 35.7284 35.1257C35.9499 35.0328 35.9226 34.896 36.2616 34.9152C36.6007 34.9343 36.8112 35.1175 37.0409 35.1777C37.2706 35.2378 37.7026 35.2706 38.1593 35.2953C38.6159 35.3199 38.8948 35.2542 39.0644 35.2788C39.2339 35.3035 39.3788 35.5003 39.4718 35.5824C39.5647 35.6671 39.5647 35.8039 39.5647 35.8039C39.5647 35.8039 39.7425 35.8449 39.912 35.9652C40.0815 36.0828 40.2429 36.3808 40.4534 36.4656C40.664 36.5503 41.0468 36.5066 41.4952 36.5339C41.9436 36.5585 42.0722 36.6105 42.2991 36.8292C42.5261 37.048 42.6628 37.3378 42.7476 37.5839C42.8323 37.83 42.9581 38.396 42.9581 38.396C42.9581 38.396 43.289 38.2949 43.8058 38.5054C44.3226 38.716 44.3636 38.9292 44.3636 38.9292C44.3636 38.9292 45.1675 38.9046 45.389 38.9128C45.6104 38.921 46.1847 39.3121 46.2448 39.446C46.305 39.5828 46.1847 40.6246 46.2038 40.7831C46.2202 40.9445 45.6104 41.8167 45.4573 41.9617C45.3042 42.1066 45.203 42.2761 44.9651 42.9515C44.7272 43.6269 44.5577 44.0781 44.4319 44.2038C44.3062 44.3296 43.9069 44.8054 43.4913 45.0078C43.0757 45.2101 42.8296 45.1773 42.5507 45.3113C42.2718 45.448 42.0585 45.8882 41.9245 46.1917C41.7878 46.4953 41.8726 46.8699 41.7987 46.9874C41.7222 47.105 40.7487 48.0621 40.5628 48.1222C40.3769 48.1824 39.5046 48.0292 39.3597 48.1468C39.2147 48.2644 39.5374 48.6035 39.5046 48.7156C39.4718 48.8249 39.1901 49.123 38.9468 49.3089C38.7007 49.4949 38.4901 49.7656 38.3206 49.7929C38.1511 49.8175 37.9405 49.6999 37.771 49.8941C37.6015 50.0882 37.7874 50.4027 37.7108 50.5367C37.6343 50.6734 37.4593 50.7964 37.3581 50.9824C37.2569 51.1683 37.1831 51.2339 37.1831 51.2339C37.1831 51.2339 36.412 51.3023 35.9526 51.3269C35.496 51.3515 34.569 51.3406 34.569 51.3406C34.569 51.3406 34.7769 50.9331 34.8042 50.5257C34.8315 50.1183 34.703 49.8996 34.7878 49.6617C34.8726 49.4238 35.1433 49.1449 35.1433 49.1449C35.1433 49.1449 35.3374 48.2124 35.321 47.5781C35.3046 46.9437 35.228 46.5691 35.2198 46.4515C35.2116 46.3339 35.28 44.2339 35.2444 44.1054C35.2116 43.9796 34.7604 43.7417 34.5417 43.5476C34.3202 43.3535 33.7214 43.091 33.5601 42.8449C33.3987 42.5988 33.3577 42.5058 33.2976 42.4128C33.2374 42.3199 32.7808 41.4996 32.6714 41.2863C32.562 41.0757 32.2913 40.8871 32.1792 40.5917C32.0671 40.2964 32.0698 40.0503 32.1546 39.9574C32.2394 39.8644 32.3761 39.7878 32.3487 39.6785C32.3241 39.5691 32.078 39.5527 32.1628 39.1945C32.2476 38.8363 32.5429 38.5163 32.6194 38.448C32.696 38.3796 32.7561 38.4562 32.83 38.3878C32.9065 38.3195 33.3796 37.9148 33.4397 37.8382C33.4999 37.7617 33.4808 37.2203 33.3987 36.9906C33.314 36.7609 32.9749 36.389 32.8491 36.348C32.7233 36.307 32.4171 36.6624 32.1464 36.6515C31.8757 36.6433 31.6979 36.6515 31.2741 36.3808C30.8503 36.1101 30.2569 35.5851 30.1312 35.3636C30.0054 35.1421 30.0546 35.0601 29.978 34.9398C29.9015 34.8222 29.505 34.6089 29.2835 34.4996C29.062 34.3902 28.8351 34.423 28.7065 34.3382C28.578 34.2535 27.9601 33.5671 27.8425 33.4249C27.7249 33.28 27.621 33.239 27.539 33.2308C27.4569 33.2226 27.3776 33.3402 27.3093 33.3566C27.2409 33.373 26.6913 33.3812 26.6065 33.3402C26.5218 33.2992 25.8601 32.9601 25.5319 32.6538C25.2038 32.3476 24.7854 32.1371 24.5995 31.8828C24.4136 31.6285 24.6077 31.3578 24.6323 31.221C24.6569 31.0843 24.6241 30.5785 24.6077 30.4007C24.5913 30.223 24.2851 29.9003 24.244 29.5449C24.203 29.1894 24.0827 28.8339 24.0499 28.6644C24.0171 28.4949 24.0335 27.9015 23.9897 27.8687C23.9487 27.8359 23.7354 27.7511 23.6862 28.123C23.637 28.4949 23.7546 28.7738 23.7792 29.1976C23.8038 29.6214 23.8038 29.8757 23.864 30.0015C23.9241 30.1273 24.1265 30.3898 23.9651 30.4746C23.8038 30.5593 23.5933 30.3816 23.4729 30.1437C23.3554 29.9058 23.4483 29.4574 23.3472 29.2386C23.246 29.0199 23.2104 28.5878 23.1858 28.3746C23.1612 28.164 23.0683 27.6281 23.0929 27.1632C23.1175 26.6984 23.2624 26.6546 23.2624 26.6546C23.2624 26.6546 23.2624 26.1132 23.2706 26.0038C23.2788 25.8945 23.8202 24.8773 24.2604 24.3113C24.7116 23.7507 25.0343 23.3105 25.0343 23.3105Z" fill="#7ADD8A"/>
<path d="M28.9799 32.9849C29.0237 32.2959 28.6491 32.2549 28.5315 32.2959C28.4139 32.3369 27.7112 32.3041 27.6346 32.3041C27.5581 32.3041 27.126 31.831 27.0768 31.7107C27.0249 31.5931 27.0686 30.8631 27.2135 30.6006C27.3585 30.3381 27.4596 30.2451 27.4678 29.9389C27.476 29.6326 27.4514 29.4056 27.7631 28.9982C28.0776 28.5908 28.4331 28.6756 28.712 28.6756C28.9909 28.6756 30.3553 28.6154 30.6944 28.5744C31.0335 28.5334 31.2276 28.465 31.3807 28.5416C31.5338 28.6181 31.6104 28.8642 31.8128 29.4139C32.0151 29.9635 32.0506 30.1412 32.3296 30.133C32.6085 30.1248 32.4909 29.5752 32.4553 29.3291C32.4225 29.083 32.2174 28.3721 32.3788 28.0166C32.5401 27.6611 32.9475 27.4232 33.2182 27.2974C33.4889 27.1717 33.6503 27.2291 33.9538 26.9748C34.2573 26.7205 34.0713 26.551 34.0713 26.3814C34.0713 26.2119 34.1725 26.0861 34.3667 25.8482C34.5608 25.6103 34.8588 25.3232 35.0284 25.2467C35.1979 25.1701 35.5288 25.3068 35.7147 25.1291C35.9006 24.9514 35.7557 24.6123 35.8514 24.5029C35.9444 24.3935 36.5213 24.1639 36.5213 24.1639C36.5213 24.1639 36.4448 24.4346 36.5131 24.5795C36.5815 24.7244 36.751 24.6478 36.8522 24.5631C36.9534 24.4783 37.3006 24.2486 37.5385 24.1474C37.7764 24.0463 38.0307 23.9096 37.9378 23.7674C37.8448 23.6252 37.6588 23.6498 37.4811 23.6416C37.3034 23.6334 36.9725 23.6662 36.8631 23.6006C36.7538 23.5322 36.896 23.0674 36.7538 23.0236C36.6088 22.9826 36.2124 23.2096 36.103 23.2096C35.9936 23.2096 35.9171 23.04 36.0018 22.906C36.0866 22.7693 33.3686 22.5178 33.2674 22.5342C33.1663 22.5506 33.0049 22.34 32.9639 22.2881C32.9229 22.2361 32.9721 21.8806 32.912 21.8041C32.8518 21.7275 32.4198 21.7193 32.1764 21.6346C31.9303 21.5498 31.5147 21.4322 31.3288 21.3119C31.1428 21.1916 31.244 21.0412 31.3534 20.9482C31.4628 20.8553 31.9631 20.7377 32.201 20.6256C32.4389 20.5162 32.8354 20.3303 32.9366 20.3221C33.0378 20.3139 33.4096 20.3303 33.4698 20.2892C33.5299 20.2482 33.5628 20.1963 33.6229 20.0514C33.6831 19.9064 33.8171 19.6193 33.9538 19.5592C34.0905 19.499 34.394 19.0615 34.3803 18.974C34.3667 18.8865 34.5362 18.7279 34.5362 18.7279C34.5362 18.7279 32.5811 18.665 30.5604 19.1928C28.5397 19.7205 27.1999 20.4205 27.1999 20.4205C27.1999 20.4205 26.4479 21.0931 26.0077 21.5771C25.5674 22.0611 25.2475 22.8131 25.0424 23.3107C25.0424 23.3107 24.7198 23.751 24.2796 24.3197C23.8393 24.8885 23.2979 25.9029 23.2897 26.0123C23.2815 26.1217 23.2815 26.6631 23.2815 26.6631C23.2815 26.6631 23.1366 26.7041 23.112 27.1717C23.0874 27.6365 23.1803 28.1697 23.2049 28.383C23.2296 28.5935 23.2651 29.0256 23.3663 29.2471C23.4674 29.4685 23.3745 29.917 23.4921 30.1521C23.6096 30.39 23.8229 30.5678 23.9842 30.483C24.1456 30.3982 23.9432 30.1357 23.8831 30.0099C23.8229 29.8842 23.8229 29.6299 23.7983 29.206C23.7737 28.7822 23.6534 28.5033 23.7053 28.1314C23.7573 27.7596 23.9678 27.8443 24.0088 27.8771C24.0499 27.9099 24.0335 28.5033 24.069 28.6728C24.1018 28.8424 24.2221 29.1978 24.2631 29.5533C24.3042 29.9088 24.6104 30.2314 24.6268 30.4092C24.6432 30.5869 24.6788 31.0955 24.6514 31.2295C24.6268 31.3662 24.4299 31.6369 24.6186 31.8912C24.8046 32.1455 25.2202 32.356 25.551 32.6623C25.8819 32.9685 26.5409 33.3049 26.6256 33.3486C26.7104 33.3896 27.26 33.3814 27.3284 33.365C27.3967 33.3486 27.4733 33.2283 27.5581 33.2392C27.6428 33.2502 28.001 33.551 28.1514 33.5264C28.4112 33.4799 28.9471 33.4935 28.9799 32.9849Z" fill="url(#paint1_radial_1898_37202)"/>
<path d="M33.412 36.9881C33.4448 37.2287 33.5132 37.7592 33.453 37.8357C33.3928 37.9123 32.9198 38.3197 32.8432 38.3854C32.7667 38.4537 32.7065 38.3772 32.6327 38.4455C32.5561 38.5139 32.2608 38.8338 32.1761 39.192C32.0913 39.5502 32.3374 39.5639 32.362 39.676C32.3866 39.7881 32.2526 39.8619 32.1678 39.9549C32.0831 40.0479 32.0831 40.2939 32.1925 40.5893C32.3018 40.8846 32.5725 41.0732 32.6846 41.2838C32.794 41.4943 33.2534 42.3174 33.3108 42.4104C33.371 42.5033 33.412 42.5963 33.5733 42.8424C33.7346 43.0885 34.3362 43.351 34.555 43.5451C34.7764 43.7393 35.2249 43.9772 35.2577 44.1029C35.2905 44.2287 35.2249 46.3314 35.2331 46.449C35.2413 46.5666 35.3178 46.9412 35.3343 47.5756C35.3507 48.21 35.1565 49.1424 35.1565 49.1424C35.1565 49.1424 34.8858 49.4213 34.8011 49.6592C34.7163 49.8971 34.8421 50.1158 34.8175 50.5232C34.7928 50.9307 34.5823 51.3381 34.5823 51.3381C34.5823 51.3381 35.5065 51.349 35.9659 51.3244C36.4225 51.2998 37.1964 51.2314 37.1964 51.2314C37.1964 51.2314 37.2702 51.1658 37.3714 50.9799C37.4725 50.7939 37.6475 50.6709 37.7241 50.5342C37.8007 50.3975 37.6147 50.0857 37.7843 49.8916C37.9538 49.6975 38.1643 49.815 38.3339 49.7904C38.5034 49.7658 38.7139 49.4951 38.96 49.3064C39.2061 49.1205 39.485 48.8225 39.5178 48.7131C39.5507 48.6037 39.2307 48.2647 39.3729 48.1443C39.5178 48.0268 40.3901 48.1772 40.576 48.1197C40.762 48.0596 41.7354 47.1025 41.812 46.985C41.8886 46.8674 41.8038 46.4928 41.9378 46.1893C42.0745 45.8857 42.1647 41.0377 40.7182 38.9322C39.0257 36.4658 33.2507 35.7467 33.412 36.9881Z" fill="url(#paint2_radial_1898_37202)"/>
<path d="M33.418 36.9984C33.4508 37.2391 33.5192 37.7695 33.459 37.8461C33.3988 37.9227 32.9258 38.3301 32.8492 38.3957C32.7727 38.4641 32.7125 38.3875 32.6387 38.4559C32.5621 38.5242 32.2668 38.8441 32.182 39.2023C32.0973 39.5605 32.3434 39.5742 32.368 39.6863C32.3926 39.7984 32.2586 39.8723 32.1738 39.9652C32.0891 40.0582 32.0891 40.3043 32.1985 40.5996C32.3078 40.8949 32.5785 41.0836 32.6906 41.2941C32.8 41.5047 33.2594 42.3277 33.3168 42.4207C33.3742 42.5137 33.418 42.6066 33.5793 42.8527C33.7406 43.0988 34.3422 43.3613 34.561 43.5555C34.7824 43.7496 35.2309 43.9875 35.2637 44.1133C35.2965 44.2391 35.2309 46.3418 35.2391 46.4594C35.2473 46.5769 35.3238 46.9516 35.3402 47.5859C35.3567 48.2203 35.1625 49.1527 35.1625 49.1527C35.1625 49.1527 34.8918 49.4316 34.807 49.6695C34.7223 49.9074 34.8481 50.1262 34.8235 50.5336C34.7988 50.941 34.5883 51.3484 34.5883 51.3484C34.5883 51.3484 35.5125 51.3594 35.9719 51.3348C36.4285 51.3102 37.2024 51.2418 37.2024 51.2418C37.2024 51.2418 37.2762 51.1762 37.3774 50.9902C37.4785 50.8043 37.6535 50.6812 37.7301 50.5445C37.8067 50.4078 37.6207 50.0961 37.7902 49.9019C37.9598 49.7078 38.1703 49.8254 38.3399 49.8008C38.5094 49.7762 38.7199 49.5055 38.966 49.3168C39.2121 49.1309 39.491 48.8328 39.5238 48.7234C39.5567 48.6141 39.2367 48.275 39.3789 48.1547C39.5211 48.0344 40.3961 48.1875 40.582 48.1301C40.768 48.0699 41.7414 47.1129 41.818 46.9953C41.8945 46.8777 41.8098 46.5031 41.9438 46.1996C42.0805 45.8961 42.1707 41.048 40.7242 38.9426C39.0289 36.4734 33.2539 35.757 33.418 36.9984Z" fill="url(#paint3_radial_1898_37202)"/>
<path d="M30.5085 23.5545C30.585 23.6584 30.9323 23.5326 31.0963 23.5408C31.2604 23.549 31.4381 23.6146 31.46 23.765C31.4819 23.9127 31.3178 23.9373 31.2221 24.1287C31.1729 24.2271 30.842 24.8916 31.0225 24.9681C31.2604 25.072 31.378 24.8342 31.4299 24.722C31.4819 24.6099 31.6077 24.372 31.6077 24.372C31.6077 24.372 31.7499 24.0603 31.9358 24.0822C32.2694 24.1205 32.1354 24.5963 32.1354 24.5963C32.1354 24.5963 32.0616 24.9517 32.2393 25.0338C32.417 25.1158 32.5893 25.0556 32.685 25.0201C32.7807 24.9818 32.9448 25.0201 33.1389 24.9381C33.3331 24.856 33.4151 24.7822 33.5463 24.7302C33.6803 24.6783 33.7979 24.7084 33.8143 24.5881C33.828 24.4705 33.7104 24.3502 33.5108 24.3365C33.3112 24.3228 33.0651 24.5525 32.9831 24.6263C32.901 24.7002 32.6331 24.7521 32.603 24.5607C32.5729 24.3693 32.7452 24.3529 32.871 24.2791C32.9967 24.2052 33.0788 24.1013 33.0788 24.1013C33.0788 24.1013 32.8491 23.8033 32.7807 23.7814C32.7151 23.7595 32.4471 23.8416 32.1792 23.6556C31.9303 23.4834 31.8292 23.2482 31.7635 23.1881C31.6979 23.1279 31.3999 23.0322 31.11 23.0924C30.8202 23.1525 30.3881 23.3904 30.5085 23.5545Z" fill="#4B9EEC"/>
<defs>
<radialGradient id="paint0_radial_1898_37202" cx="0" cy="0" r="1" gradientUnits="userSpaceOnUse" gradientTransform="translate(29.6224 25.4477) rotate(51.2641) scale(24.8682 18.5401)">
<stop offset="0.506" stop-color="#17A1F3"/>
<stop offset="0.767" stop-color="#1B7FFA"/>
<stop offset="0.962" stop-color="#1366F0"/>
<stop offset="1" stop-color="#1160EE"/>
</radialGradient>
<radialGradient id="paint1_radial_1898_37202" cx="0" cy="0" r="1" gradientUnits="userSpaceOnUse" gradientTransform="translate(18.9475 28.1565) rotate(-11.3088) scale(11.0194 6.64243)">
<stop offset="0.344" stop-color="#E3DDA6"/>
<stop offset="0.996" stop-color="#E3DDA6" stop-opacity="0"/>
</radialGradient>
<radialGradient id="paint2_radial_1898_37202" cx="0" cy="0" r="1" gradientUnits="userSpaceOnUse" gradientTransform="translate(29.1349 46.9147) scale(8.63817)">
<stop offset="0.723" stop-color="#E3DDA6"/>
<stop offset="1" stop-color="#E3DDA6" stop-opacity="0"/>
</radialGradient>
<radialGradient id="paint3_radial_1898_37202" cx="0" cy="0" r="1" gradientUnits="userSpaceOnUse" gradientTransform="translate(34.804 54.1993) scale(6.20211)">
<stop offset="0.403" stop-color="#E3DDA6"/>
<stop offset="1" stop-color="#E3DDA6" stop-opacity="0"/>
</radialGradient>
</defs>
</svg>
